<?xml version="1.0" encoding="UTF-8"?>
<svg width="803px" height="265px" viewBox="0 0 803 265" version="1.1" xmlns="http://www.w3.org/2000/svg" xmlns:xlink="http://www.w3.org/1999/xlink">
    <!-- Generator: Sketch 52.6 (67491) - http://www.bohemiancoding.com/sketch -->
    <title>Group 37</title>
    <desc>Created with Sketch.</desc>
    <defs>
        <polygon id="path-1" points="0.183473745 0.565204252 42.6477964 0.565204252 42.6477964 78 0.183473745 78"></polygon>
    </defs>
    <g id="Page-1" stroke="none" stroke-width="1" fill="none" fill-rule="evenodd">
        <g id="Desktop-HD-Copy" transform="translate(-319.000000, -380.000000)">
            <g id="Group-37" transform="translate(319.000000, 380.000000)">
                <path d="M125.479651,145.711491 L125.479651,64.8450926 C127.175388,61.5003493 128.543282,58.5123996 129.652778,55.7790779 L140.860788,64.6093259 L140.860788,68.4271743 L140.860788,154.716207 L140.860788,157.270346 C136.206395,153.884736 130.956072,149.955292 125.479651,145.711491 M153.288114,145.387705 L156.086886,145.929969 L156.086886,77.8216905 L160,74.011701 L131.283915,51.3875306 C133.057171,46.0686343 133.7177,41.7399581 133.72739,37.5668879 C133.745155,31.0220049 132.459625,22 126.20478,22 C123.136305,22 120.465116,24.6060077 120.465116,27.0988474 C120.465116,28.9236815 122.054264,30.3932937 123.683786,30.3932937 C126.274225,30.3932937 127.154393,28.8875306 127.154393,28.8875306 C127.154393,28.8875306 130.329457,42.5572826 122.806848,56.8746071 C115.284238,71.1935033 105,76.6428571 105,76.6428571 L110.203488,80.3035278 L110.203488,130.586273 L106.031977,134.647747 L155.374677,174.379148 C155.872093,174.779951 156.498708,175 157.143088,175 C158.677326,175 159.919251,173.789731 159.919251,172.298114 L159.919251,171.263884 C159.919251,170.127489 159.190891,169.123123 158.09593,168.728606 C156.526163,168.161195 151.077196,164.597974 143.682171,159.304226 C142.230297,152.470136 153.288114,145.387705 153.288114,145.387705" id="Fill-1" fill="#002746"></path>
                <path d="M167.386052,146.82362 L183.512163,160 L195.010556,150.604655 L186.090572,143.316417 L186.090572,90.9992127 L201.657088,78.2823123 L201.657088,141.428994 L197.375496,146.82362 L213.501607,160 L225,150.604655 L216.080016,143.316417 L216.080016,83.6970509 L216.080016,73.5931487 L209.99003,68.6193245 L208.250252,67.1975689 L196.753384,76.5913668 L186.090572,85.3013606 L186.090572,83.6970509 L186.090572,69.1051039 L173.553801,58.8635127 C175.293579,56.8028179 177.989397,53.2832378 177.989397,51.2565785 C177.989397,48.6946336 176.52408,48 175.305778,48 C174.089,48 172.677051,48.8013813 172.677051,50.563492 C172.677051,52.3240555 174.096624,52.6458457 174.096624,52.6458457 C172.202843,56.3820153 168.814774,59.3755922 165.489221,62.0922439 L165.490746,62.0922439 L160,66.5771946 L171.667644,76.1102286 L171.667644,141.430541 L167.386052,146.82362 Z" id="Fill-3" fill="#002746"></path>
                <path d="M368.995819,76.1090698 L368.995819,141.428737 L364.593223,146.823438 L381.176647,160 L393,150.606072 L383.826358,143.317734 L383.826358,83.697544 L383.826358,69.1038484 L370.933714,58.8621156 C372.72266,56.8013924 375.496233,53.2817637 375.496233,51.2566235 C375.496233,48.6930961 373.991072,48 372.738339,48 C371.485606,48 370.033753,48.8013924 370.033753,50.5619803 C370.033753,52.3241153 371.495013,52.6443628 371.495013,52.6443628 C369.546143,56.380584 366.063891,59.3757494 362.642786,62.0924386 L362.644353,62.0924386 L357,66.5774512 L368.995819,76.1090698 Z" id="Fill-5" fill="#002746"></path>
                <path d="M531.898861,143.317734 L531.898861,83.697544 L531.898861,69.1038484 L517.185536,57.3212145 L517.012877,57.1835235 L501.165603,69.6685361 L486.544051,57.3212145 L486.371392,57.1835235 L485.43499,57.935409 L470.615892,69.5695223 L457.79559,58.8976987 C459.568842,56.8431638 462.353159,53.2941404 462.353159,51.2566235 C462.353159,48.6930961 460.856783,48 459.613951,48 C458.372675,48 456.932296,48.8013924 456.932296,50.5619803 C456.932296,52.3241153 458.380452,52.6443628 458.380452,52.6443628 C456.453207,56.3728486 453.006254,59.3633727 449.62152,62.0754206 L444,66.5774512 L455.902566,76.1090698 L455.902566,141.430284 L451.534766,146.824985 L467.987123,160 L479.71703,150.606072 L470.615892,143.316186 L470.615892,83.697544 L470.615892,78.5194353 L480.084124,70.9356024 L486.544051,76.1090698 L486.544051,141.430284 L482.176251,146.824985 L498.627053,160 L510.35696,150.606072 L501.257377,143.317734 L501.257377,83.697544 L501.257377,78.5673951 L510.756719,70.9588087 L517.185536,76.1090698 L517.185536,141.428737 L512.817736,146.824985 L529.270093,160 L541,150.606072 L531.898861,143.317734 Z" id="Fill-7" fill="#002746"></path>
                <path d="M404.342575,120.717926 L427.273421,103.592246 L427.255338,146.886735 L403.007723,129.20758 L390.882272,143.177086 L393.744313,145.543455 L396.270996,142.63276 L424.270004,163 L442.800113,148.301677 L442.800113,139.738837 L442.800113,114.657155 L442.800113,104.697669 L428.596765,94.0917012 L410.785043,107.134176 L406.43198,103.973426 L406.43198,85.5502069 L406.43198,77.4234372 L412.948423,72.5549989 C412.948423,72.5549989 424.644815,88.5127423 437.917712,88.5127423 C447.560865,88.5127423 446.993718,76.0954041 446.993718,76.0954041 C435.775703,79.0564147 425.009762,66.1770856 421.217271,61.0113265 C423.050226,58.9529514 425.373065,55.9934655 425.373065,54.2095404 C425.373065,51.6846003 423.791628,51 422.478147,51 C421.16631,51 419.644053,51.7898061 419.644053,53.5264648 C419.644053,55.2615988 421.174529,55.5772163 421.174529,55.5772163 C419.132798,59.2594206 415.601688,61.9490307 412.014685,64.626443 L412.016329,64.626443 L390.900355,80.087127 L390.882272,80.0947506 L390.882272,107.460466 L389,109.628621 L404.342575,120.717926 Z" id="Fill-9" fill="#002746"></path>
                <path d="M568.352512,68.3393052 L586.152595,76.1086815 L586.152595,141.430541 L586.152595,148.848733 L568.352512,140.380081 L568.352512,68.3393052 Z M576.982314,160 L587.650679,151.471013 L592.396502,155.114359 L598.760515,160 L611,150.604655 L601.503484,143.316417 L601.503484,83.6970509 L601.503484,69.1051039 L579.436379,58.6066994 C581.288289,56.5212515 583.933874,53.2027902 583.933874,51.2565785 C583.933874,48.6946336 582.372492,48 581.075668,48 C579.780467,48 578.275892,48.8013813 578.275892,50.563492 C578.275892,52.3240555 579.788583,52.6442986 579.788583,52.6442986 C578.743333,54.5796809 577.267973,56.3139443 575.601091,57.916707 L568.352512,63.4799641 L553,75.2639823 L553,146.948933 L553,148.256206 L568.352512,155.771863 L576.982314,160 Z" id="Fill-11" fill="#002746"></path>
                <path d="M643.917953,142.087797 C642.695587,144.437826 639.35059,147.015278 636.667506,148.817637 L629.555562,143.316186 L629.555562,83.697544 L629.555562,70.720557 L645.293315,83.4020499 L657,72.3388126 L638.311821,57.1835235 L626.919182,67.0647844 L616.314076,58.8621156 C618.15165,56.8029395 621.002225,53.2817637 621.002225,51.2566235 C621.002225,48.6930961 619.45293,48 618.166144,48 C616.88097,48 615.388041,48.8013924 615.388041,50.5619803 C615.388041,52.3241153 616.889022,52.6443628 616.889022,52.6443628 C614.89362,56.3728486 611.324764,59.3633727 607.820327,62.0754206 L602,66.5774512 L614.321894,76.1090698 L614.321894,141.430284 L609.799625,146.824985 L626.835437,160 L638.980176,150.606072 L647.609206,143.928834 C650.669146,141.366854 646.085678,137.924579 643.917953,142.087797" id="Fill-13" fill="#002746"></path>
                <path d="M91.2781377,86.8486032 C91.2781377,86.8486032 91.4491025,82.7945212 96.3169383,73.3155964 C103.048291,60.2114309 113,43.7653662 113,33.7366056 C113,21.5284121 107.205846,11.0662154 91.0372327,11.0662154 C74.8670655,11.0662154 69.5516127,23.1932354 69.5516127,45.218832 L69.5516127,114.446074 C68.2771474,115.066362 67.3927928,116.348291 67.3927928,117.844641 C67.3927928,119.945964 69.1210921,121.649076 71.2534901,121.649076 C73.3874424,121.649076 75.1172959,119.945964 75.1172959,117.844641 C75.1172959,116.348291 74.2313871,115.066362 72.9569218,114.444542 L72.9569218,53.8768319 C72.9569218,46.1301198 73.9018912,41.0299712 80.9813906,41.0299712 C88.0608899,41.0299712 90.5212296,48.8456043 88.5427,53.8722372 C73.8272884,91.2779215 76.2860739,118.356188 82.4299292,133.143555 L64.5718726,155.501504 L64.5703184,155.499972 L64.5703184,40.3422935 C64.5703184,19.2034795 53.8446049,8 33.680077,8 C13.5155491,8 4.72018431,26.6025239 4.72018431,35.4795392 C4.72018431,44.3580862 6.2215666,46.2618353 13.9445155,58.0993874 C21.6674644,69.9369394 14.3610481,80.507878 8.78293102,80.507878 C1.91946909,80.507878 0,76.9132688 0,76.9132688 C0,82.7271318 5.36518809,92.5583191 15.447452,92.5583191 C25.529716,92.5583191 34.9685304,86.4258882 34.9685304,70.7823694 C34.9685304,55.1403823 19.5210783,48.3754104 19.5210783,38.862791 C19.5210783,25.7555623 39.6871604,24.6987747 39.6871604,40.976366 L39.6871604,117.501568 C39.6871604,132.932198 34.752493,135.679846 34.752493,135.679846 L64.5703184,159.990554 L82.2403136,174.396559 C82.717461,174.787111 83.3205007,175 83.942191,175 C85.4171515,175 86.6123513,173.822218 86.6123513,172.367221 L86.6123513,171.359443 C86.6123513,170.253646 85.9129496,169.273437 84.8591844,168.889011 C82.7563166,168.12016 78.1931091,165.680359 68.4185819,158.409967 L92.4002888,130.599607 C92.4002888,130.599607 78.4371226,116.875154 100.286431,86.8486032 L91.2781377,86.8486032 Z" id="Fill-15" fill="#002746"></path>
                <path d="M680,58 L694.273088,69.1131329 L694.273088,134.47933 C692.916267,135.128435 691.974766,136.465017 691.974766,138.027027 C691.974766,140.220556 693.816402,142 696.086594,142 C698.356786,142 700.196767,140.220556 700.196767,138.027027 C700.196767,136.465017 699.255266,135.128435 697.898445,134.47933 L697.898445,71.9365817 L715.973939,86.0106585 L728,74.5761705 L706.770726,58 L680,58 Z" id="Fill-17" fill="#002746"></path>
                <path d="M705.988971,131.673182 C708.111151,132.677229 710.399747,135.257739 712.063902,137.432917 L697.633078,150.626314 L686.567207,142.419117 L686.567207,83.6970509 L686.567207,69.1051039 L674.01581,58.8635127 C675.756303,56.8028179 678.45712,53.2832378 678.45712,51.2565785 C678.45712,48.6946336 676.989915,48 675.770044,48 C674.550172,48 673.136403,48.8013813 673.136403,50.563492 C673.136403,52.3240555 674.559332,52.6442986 674.559332,52.6442986 C672.663111,56.3820153 669.270676,59.3755922 665.940839,62.0922439 L665.942365,62.0922439 L660.444545,66.5771946 L672.125696,76.1086815 L672.125696,109.816203 C656.009341,100.529153 647,117.344236 647,117.344236 C661.986561,115.210829 671.261556,126.854065 672.125696,140.347593 L672.125696,142.515036 L668.472187,147.112922 L686.087808,160 L709.179875,160 L723,147.112922 L708.15848,128.436715 C706.120272,125.678293 702.043854,129.807418 705.988971,131.673182" id="Fill-19" fill="#002746"></path>
                <path d="M754.131166,76.8372488 L759.161805,72.0818198 L776.341253,85.820739 C769.457139,99.9213688 758.375817,104.983796 754.131166,106.464073 L754.131166,76.8372488 Z M800.417469,132.311175 C798.416916,132.311175 798.019968,134.522472 798.019968,135.78238 C798.019968,138.452654 799.890841,140.135064 799.890841,142.229337 C799.890841,144.902651 797.037879,146.919415 797.034716,146.920935 L777.070308,108.658653 L763.569346,108.658653 C777.245851,101.441161 790.447916,83.9635533 790.447916,76.5408894 L770.157727,60.7836864 L768.372254,56.0404157 L754.898177,68.7808316 L745.635539,77.5393927 C746.427853,27.3892978 760.237201,24.3937879 770.094469,24.3937879 C776.970676,24.3937879 781.227979,17 770.094469,17 C758.96254,17 743.573309,39.4974803 737.631747,42.0142558 C731.690185,44.5310312 720,42.0142558 720,42.0142558 C720,42.0142558 730.638512,52.8701297 730.638512,69.2322099 L730.638512,137.885772 L726.197759,143.185286 L742.923328,156.129354 L754.849151,146.901178 L745.597584,139.741438 L745.597584,84.9058243 L750.666178,80.1139202 L750.666178,129.476763 C749.369377,130.093798 748.469523,131.364345 748.469523,132.847661 C748.469523,134.934336 750.228112,136.625864 752.397881,136.625864 C754.56765,136.625864 756.32782,134.934336 756.32782,132.847661 C756.32782,131.364345 755.427967,130.093798 754.131166,129.476763 L754.131166,111.769667 C756.310424,111.544738 758.556104,110.909465 760.812854,109.961114 L782.964427,154.41047 C770.461368,160.611221 765.674275,169.132694 765.674275,173.69511 C765.674275,178.257525 772.713374,177.942928 772.713374,173.69511 C772.713374,169.448811 779.099327,163.155353 790.447916,156.129354 C801.798087,149.103356 803,145.691423 803,137.510383 C803,134.311221 801.625707,132.311175 800.417469,132.311175 Z" id="Fill-21" fill="#002746"></path>
                <path d="M304.158529,53.6274694 L304.158529,112.469713 C302.915504,113.105402 302.060328,114.344842 302.060328,115.788068 C302.060328,117.874586 303.827903,119.5657 306.008761,119.5657 C308.189619,119.5657 309.957195,117.874586 309.957195,115.788068 C309.957195,114.261199 309.006646,112.951802 307.641226,112.357175 L307.641226,99.2221482 C313.733957,105.489306 333.782908,126.672332 333.782908,134.046622 C333.782908,138.615063 331.527341,141.606448 327.53599,141.606448 C307.130981,141.606448 289.032404,117.835045 270.522135,117.835045 C269.082006,117.835045 267.683205,117.935417 266.306657,118.081413 C275.719952,114.705268 283.478529,106.488463 289.665044,93.4066633 C295.212561,81.6753217 300.938108,66.7944327 304.158529,53.6274694 M312.131695,18.5824816 C314.414283,18.5824816 316.429828,20.8469316 316.429828,25.3986435 L316.429828,58.9258871 C316.429828,72.6175215 320.952088,79.4488913 329.664393,72.7361428 C330.41148,72.1612858 331.198305,71.5560131 331.999437,70.938574 C327.489893,74.4120488 316.329687,83.0090508 307.641226,89.7020291 L307.641226,25.345416 C307.641226,21.2332112 309.621801,18.5824816 312.131695,18.5824816 M245.502672,87.6991542 C256.27185,87.6991542 266.354344,81.3407488 266.354344,65.1154852 C266.354344,48.8917424 249.854851,39.3548947 249.854851,29.4880365 C249.854851,20.9564282 256.386297,17.1635884 262.380477,17.1635884 C271.755623,17.1635884 278.639949,24.7583927 278.639949,37.9831459 C278.639949,62.3446135 259.331727,106.421548 240.300086,106.421548 C240.300086,106.421548 241.616231,119.854649 255.876053,119.854649 C256.759841,119.854649 257.630912,119.819671 258.492447,119.752756 C246.427788,123.738736 238.433959,133.438308 238.433959,143.58499 C238.433959,156.820389 248.060253,160.812452 251.762306,159.868044 C255.46436,158.923636 254.642565,154.516399 252.256655,153.649551 C249.870746,152.784224 248.471945,154.59548 248.471945,154.59548 C248.471945,154.59548 246.003379,152.39034 246.003379,150.186722 C246.003379,147.983103 248.471945,143.58499 256.205089,143.58499 C282.369025,143.58499 294.710264,157.743506 311.987046,157.743506 C320.049226,157.743506 332.225152,156.169493 344.566392,145.619802 C352.391729,138.934428 356,130.349592 356,122.792807 C356,117.441162 351.317196,110.091204 348.907443,106.979676 C342.326721,98.4784839 329.592863,83.2797507 329.592863,78.3995491 C329.592863,73.5223891 334.018161,69.3828102 334.026109,69.376727 C342.172535,63.1019648 351.487277,55.9253767 351.487277,55.9253767 L344.730115,50.7242893 L344.730115,28.966407 C344.730115,17.8418589 343.525239,2.20361861 322.134711,2.20361861 C306.681139,2.20361861 304.419215,16.1735569 304.15535,22.1274333 C299.170532,9.79690207 287.039113,0 267.614854,0 C246.073319,0 234.043631,19.2942093 234.043631,28.5025673 C234.043631,37.7109253 235.645894,39.6833844 243.89723,51.9606881 C252.145387,64.2395126 244.340714,75.2028574 238.383093,75.2028574 C231.050515,75.2028574 229,71.4738906 229,71.4738906 C229,77.5038063 234.730315,87.6991542 245.502672,87.6991542" id="Fill-23" fill="#002746"></path>
                <g id="Group-27" transform="translate(291.000000, 187.000000)">
                    <mask id="mask-2" fill="white">
                        <use xlink:href="#path-1"></use>
                    </mask>
                    <g id="Clip-26"></g>
                    <path d="M29.0459939,37.5477074 C27.553133,42.5441298 25.9218935,46.1180887 24.1522754,48.2726798 C22.2182309,50.6377769 19.7860235,51.8218733 16.8556532,51.8218733 C15.8039758,51.8218733 14.698575,51.3482347 13.5378227,50.4025055 C9.9985865,47.5111433 8.2289684,42.437329 8.2289684,35.1826103 C8.2289684,22.6729803 11.436096,13.6305083 17.8503511,8.05674217 C19.7290441,6.42841616 20.9728235,5.61270532 21.5816894,5.61270532 C21.6354128,5.61270532 22.0505486,5.66533182 22.8270968,5.77058483 C24.2629783,7.5583382 25.7835149,9.03033253 27.3870787,10.18502 C29.5995083,12.3427067 30.7065371,15.6798464 30.7065371,20.2010824 C30.7065371,28.0346926 30.1530227,33.815869 29.0459939,37.5477074 M21.5149421,67.8280703 C20.0872005,72.7176918 18.8255133,75.1617287 17.7249964,75.1617287 C16.6261075,75.1617287 15.3774441,74.5178279 13.9773783,73.2300264 C12.5789404,71.9422248 11.8789075,70.772059 11.8789075,69.7210767 C11.8789075,68.510667 13.5264268,66.461329 16.8198375,63.5715147 C19.7290441,61.0469902 22.0358968,59.3908031 23.7387676,58.6029534 C22.9687314,61.7032737 22.2279988,64.7788286 21.5149421,67.8280703 M42.5663972,5.61270532 C42.5663972,5.66533182 42.5924449,5.53221772 42.6477964,5.21800652 C42.6477964,4.7459158 42.3433635,4.50754869 41.7361256,4.50754869 C40.8505026,4.50754869 39.6620746,4.79854231 38.1692137,5.37588604 C36.5102984,6.00585627 35.4586211,6.61260893 35.0174375,7.18995266 C34.574626,8.18830843 34.2425174,8.95139277 34.0227396,9.47610999 C32.5298787,9.37240482 31.2307478,8.24093494 30.125347,6.08634387 C29.2950754,4.245964 28.4664318,2.40713196 27.6361602,0.565204252 C24.7611412,0.935137633 22.5763873,1.48616811 21.0835264,2.22139135 L21.2512087,3.01078894 C15.5548943,6.05848278 10.5781486,11.6833276 6.32097169,19.8853233 C2.22822107,27.77156 0.183473745,35.0773573 0.183473745,41.8058109 C0.183473745,45.3286911 0.98606963,48.6147521 2.58963342,51.6624459 C4.58065728,55.3942843 7.23427045,57.2609775 10.5521009,57.2609775 C16.7433223,57.2609775 21.8030951,54.9221936 25.7297914,50.2430781 L24.5674112,54.9748201 C21.8584466,56.499441 18.2101355,59.1802971 13.6192219,63.0189364 C8.25501613,67.485998 5.57535523,70.5615529 5.57535523,72.2440533 C5.57535523,73.6634211 6.48865399,74.9775359 8.31199556,76.1879456 C10.1369651,77.3952595 11.8496038,78.0004644 13.4547956,78.0004644 C15.9960779,78.0004644 18.7343462,77.0795005 21.6647165,75.2406685 C24.8164927,73.3476621 26.6398342,71.2704629 27.1379972,69.0106189 C29.5148532,58.1293148 31.8933371,47.2216975 34.2718211,36.287767 C38.5843495,17.2570937 41.3486655,7.03207314 42.5663972,5.61270532" id="Fill-25" fill="#002746" mask="url(#mask-2)"></path>
                </g>
                <path d="M490.277961,231.431407 C490.277961,230.291179 490.619499,228.090684 491.302573,224.83152 C491.563748,223.638519 492.325639,221.952965 493.585154,219.781255 C495.054846,217.283309 496.261817,216.032737 497.206067,216.032737 C497.889141,216.032737 498.518126,216.875513 499.096112,218.559468 C499.569009,219.971559 499.83173,221.247719 499.884275,222.387946 C499.935273,223.691292 496.759441,227.086388 490.358323,232.571635 C490.305779,232.355743 490.277961,231.975134 490.277961,231.431407 M474.217986,210.163683 C473.470004,213.507604 472.830201,216.413345 472.295487,218.904895 L464.851212,227.439811 C462.067916,230.590229 459.811607,232.626007 458.08074,233.548744 C458.08074,228.51607 459.627702,220.203443 462.724718,208.618858 L467.054977,208.618858 L471.385236,208.618858 L474.533251,208.618858 C474.428163,209.27133 474.323074,209.784673 474.217986,210.163683 M436.508261,228.661597 C435.930275,230.726161 435.353835,232.816312 434.777394,234.933649 C434.565672,235.912358 434.09432,236.795115 433.360247,237.583519 C432.623083,238.370324 432.072914,238.763726 431.70665,238.763726 C431.07612,238.763726 430.328138,238.181619 429.461159,237.011006 C428.597271,235.845191 428.164554,234.908062 428.164554,234.201217 C428.164554,232.734753 429.094895,229.857797 430.958668,225.565551 C432.820896,221.274905 434.146864,219.130382 434.933481,219.130382 C435.6691,220.651218 436.560806,221.492396 437.611689,221.655514 C437.452511,223.991941 437.086247,226.326769 436.508261,228.661597 M341.642828,228.661597 C341.064842,230.726161 340.488401,232.816312 339.911961,234.933649 C339.700238,235.912358 339.228886,236.795115 338.494813,237.583519 C337.759194,238.370324 337.20748,238.763726 336.841217,238.763726 C336.212232,238.763726 335.462704,238.181619 334.597271,237.011006 C333.731837,235.845191 333.29912,234.908062 333.29912,234.201217 C333.29912,232.734753 334.229462,229.857797 336.093235,225.565551 C337.957008,221.274905 339.28143,219.130382 340.069593,219.130382 C340.803666,220.651218 341.695372,221.492396 342.746256,221.655514 C342.588623,223.991941 342.220814,226.326769 341.642828,228.661597 M493.506338,239.089963 C493.03344,239.089963 492.521907,238.589414 491.971739,237.583519 C491.420025,236.579223 491.117123,235.696466 491.066124,234.933649 C493.951418,232.544448 496.813531,230.155248 499.64628,227.764448 C503.112651,224.724374 504.92388,222.496692 505.079967,221.084601 L505.158783,220.839923 L505.158783,220.515286 C505.158783,219.210341 504.764702,217.607946 503.978085,215.708099 C503.189922,213.806654 502.403305,212.856731 501.616687,212.856731 C497.994229,212.856731 494.384135,214.377567 490.789494,217.417641 C488.746453,219.147973 487.180945,221.003042 486.060518,222.979649 L482.170703,227.439811 C479.387406,230.590229 477.131097,232.626007 475.40023,233.548744 C475.40023,228.51607 476.947193,220.203443 480.044209,208.618858 L488.704727,208.618858 C489.597978,207.403468 490.044603,206.268038 490.044603,205.214167 C490.044603,204.552099 489.806609,204.219466 489.335257,204.219466 L481.147637,204.219466 L481.303724,203.731711 C481.461356,203.242357 481.960526,201.42247 482.799688,198.273651 C483.638849,195.123232 484.060748,193.466464 484.060748,193.303346 C484.060748,192.434982 483.903115,192 483.58785,192 C482.589511,192.487755 481.566445,192.97711 480.517106,193.466464 C479.730489,193.847073 479.257591,194.254868 479.099959,194.686651 C478.784694,195.502242 478.313342,197.104638 477.682811,199.493838 C477.104825,201.558402 476.553111,203.135211 476.029215,204.219466 L472.015767,204.219466 L470.597074,204.219466 L463.828146,204.219466 L463.984233,203.731711 C464.141866,203.242357 464.641036,201.42247 465.480197,198.273651 C466.319359,195.123232 466.741258,193.466464 466.741258,193.303346 C466.741258,192.434982 466.583625,192 466.26836,192 C465.270021,192.487755 464.246954,192.97711 463.197616,193.466464 C462.410999,193.847073 461.938101,194.254868 461.780469,194.686651 C461.465203,195.502242 460.993851,197.104638 460.363321,199.493838 C459.785335,201.558402 459.233621,203.135211 458.709725,204.219466 L453.277583,204.219466 L449.735487,206.5431 C449.366132,206.931705 449.183773,207.32031 449.183773,207.707316 C449.183773,208.038349 449.366132,208.342197 449.735487,208.618858 L457.213761,208.618858 C457.108672,209.27133 457.003584,209.784673 456.898496,210.163683 C456.199967,213.285316 455.595709,216.034336 455.08263,218.412342 L442.570933,233.713461 C442.15058,234.257189 441.598866,234.527453 440.918882,234.527453 C440.654616,234.527453 440.524801,234.175629 440.524801,233.467185 C440.524801,232.328557 441.258874,229.368443 442.728566,224.588442 C444.198257,219.808441 445.221323,217.174563 445.799309,216.685209 C445.799309,215.92559 445.615405,215.543382 445.247596,215.543382 C444.722154,215.543382 443.541455,215.979963 441.705499,216.848327 C440.549527,216.848327 439.789182,216.494905 439.422918,215.789659 C439.001019,214.81095 438.582211,213.83384 438.161858,212.856731 C434.540945,212.856731 431.890555,213.400458 430.210686,214.484714 C430.261685,215.300304 430.420863,215.844031 430.682039,216.115895 C429.590974,218.121288 428.635906,219.949171 427.748837,221.689097 L422.732413,227.439811 C419.949116,230.590229 417.692807,232.626007 415.96194,233.548744 C415.96194,228.51607 417.508903,220.203443 420.605919,208.618858 L424.015109,208.618858 C424.906815,207.403468 425.35344,206.268038 425.35344,205.214167 C425.35344,204.552099 425.116991,204.219466 424.644094,204.219466 L421.709346,204.219466 L421.865434,203.731711 C422.023066,203.242357 422.522236,201.42247 423.361397,198.273651 C424.200559,195.123232 424.622458,193.466464 424.622458,193.303346 C424.622458,192.434982 424.464825,192 424.14956,192 C423.151221,192.487755 422.128155,192.97711 421.078816,193.466464 C420.292199,193.847073 419.819301,194.254868 419.661669,194.686651 C419.347949,195.502242 418.875051,197.104638 418.244521,199.493838 C417.666535,201.558402 417.114821,203.135211 416.590925,204.219466 L411.158783,204.219466 L407.616687,206.5431 C407.247333,206.931705 407.064973,207.32031 407.064973,207.707316 C407.064973,208.038349 407.247333,208.342197 407.616687,208.618858 L415.096506,208.618858 C414.989873,209.27133 414.884784,209.784673 414.779696,210.163683 C414.048714,213.432442 413.421274,216.287009 412.892741,218.740177 L412.892741,218.314791 L400.925031,233.060989 C401.659104,230.942053 402.604899,227.575742 403.759326,222.95886 C404.966297,217.854222 405.569009,214.513499 405.569009,212.93829 L405.412922,212.93829 C402.419449,212.93829 399.585154,214.187263 396.910037,216.685209 C395.627341,217.879809 394.10665,219.701295 392.369601,222.084099 L387.699351,227.439811 C384.916054,230.590229 382.659745,232.626007 380.928878,233.548744 C380.928878,228.51607 382.475841,220.203443 385.572857,208.618858 L394.23492,208.618858 C395.126626,207.403468 395.573251,206.268038 395.573251,205.214167 C395.573251,204.552099 395.335257,204.219466 394.863905,204.219466 L386.676284,204.219466 L386.832372,203.731711 C386.990004,203.242357 387.489174,201.42247 388.328335,198.273651 C389.167497,195.123232 389.589396,193.466464 389.589396,193.303346 C389.589396,192.434982 389.431763,192 389.116498,192 C388.119704,192.487755 387.095092,192.97711 386.045754,193.466464 C385.259137,193.847073 384.786239,194.254868 384.628607,194.686651 C384.314887,195.502242 383.841989,197.104638 383.211459,199.493838 C382.633473,201.558402 382.081759,203.135211 381.557863,204.219466 L376.125721,204.219466 L372.583625,206.5431 C372.215816,206.931705 372.031911,207.32031 372.031911,207.707316 C372.031911,208.038349 372.215816,208.342197 372.583625,208.618858 L380.063444,208.618858 C379.956811,209.27133 379.851722,209.784673 379.748179,210.163683 C379.015651,213.432442 378.388212,216.287009 377.859679,218.740177 L377.859679,218.314791 L365.891969,233.060989 C366.626042,230.942053 367.571837,227.575742 368.726264,222.95886 C369.933235,217.854222 370.537493,214.513499 370.537493,212.93829 L370.37986,212.93829 C367.386387,212.93829 364.552092,214.187263 361.876975,216.685209 C361.504529,217.032235 361.108903,217.438431 360.696276,217.886206 L360.696276,217.825437 L359.761299,218.970462 C359.46767,219.317488 359.170949,219.678906 358.863411,220.06911 L347.705499,233.713461 C347.286691,234.257189 346.733432,234.527453 346.053448,234.527453 C345.789182,234.527453 345.659367,234.175629 345.659367,233.467185 C345.659367,232.328557 346.39344,229.368443 347.864677,224.588442 C349.332824,219.808441 350.35589,217.174563 350.933876,216.685209 C350.933876,215.92559 350.749971,215.543382 350.383707,215.543382 C349.858266,215.543382 348.676021,215.979963 346.841611,216.848327 C345.685639,216.848327 344.923748,216.494905 344.557485,215.789659 C344.137131,214.81095 343.716778,213.83384 343.29797,212.856731 C339.675512,212.856731 337.025121,213.400458 335.345253,214.484714 C335.396252,215.300304 335.55543,215.844031 335.81815,216.115895 C329.939383,226.924869 327,233.87498 327,236.971026 C327,237.677871 327.709346,238.845286 329.126494,240.474868 C330.543642,242.10445 331.566708,242.92004 332.195693,242.92004 C333.665384,242.92004 335.607974,241.914145 338.023461,239.903954 C338.127004,240.665172 338.664809,241.357624 339.635331,241.982911 C340.605853,242.604998 341.537739,242.92004 342.430991,242.92004 C343.480329,242.92004 346.603617,239.579317 351.800855,232.897871 C354.118981,229.865793 356.407744,226.836913 358.694961,223.804835 C359.39349,223.112383 360.319194,222.180051 361.482894,221.003042 C362.532232,220.025932 363.215306,219.538177 363.529026,219.538177 C363.529026,222.741369 362.374599,228.145057 360.065746,235.74924 C359.436761,234.719357 358.674871,233.903766 357.783165,233.305666 L353.925804,237.378822 C356.182113,238.410304 357.310267,239.903954 357.310267,241.859772 C357.310267,242.619391 357.572988,243 358.09843,243 C359.093679,243 360.328467,242.593804 361.798159,241.778213 C363.583115,240.799505 364.71127,239.606503 365.184168,238.194412 C371.367382,230.185632 375.302014,225.063403 377.001973,222.808535 C376.411624,225.671098 376.040723,227.666897 375.889273,228.77674 L371.716646,231.052397 C371.716646,233.273682 372.662441,235.143144 374.550941,236.660782 C373.972955,238.882067 373.685508,240.969019 373.685508,242.92004 C375.994361,242.92004 378.068311,242.4019 379.904266,241.370418 C380.32462,238.491863 380.613613,236.862281 380.771245,236.481672 C382.451114,235.993917 385.154048,233.713461 388.881595,229.638707 C390.566099,227.801229 392.521052,225.50798 394.720181,222.813333 C395.245623,222.285598 395.8267,221.700292 396.515956,221.003042 C397.565294,220.025932 398.248368,219.538177 398.562088,219.538177 C398.562088,222.741369 397.407661,228.145057 395.098808,235.74924 C394.469823,234.719357 393.707933,233.903766 392.816227,233.305666 L388.95732,237.378822 C391.213629,238.410304 392.343329,239.903954 392.343329,241.859772 C392.343329,242.619391 392.60605,243 393.131492,243 C394.126741,243 395.361529,242.593804 396.831221,241.778213 C398.616178,240.799505 399.744332,239.606503 400.21723,238.194412 C406.400444,230.185632 410.335076,225.063403 412.035035,222.808535 C411.444686,225.671098 411.073785,227.666897 410.922335,228.77674 L406.749708,231.052397 C406.749708,233.273682 407.693958,235.143144 409.584003,236.660782 C409.006017,238.882067 408.71857,240.969019 408.71857,242.92004 C411.027423,242.92004 413.101373,242.4019 414.937328,241.370418 C415.357682,238.491863 415.646675,236.862281 415.804307,236.481672 C417.48263,235.993917 420.187111,233.713461 423.914657,229.638707 L424.049108,229.488382 C422.594871,232.934652 421.863888,235.430999 421.863888,236.971026 C421.863888,237.677871 422.573235,238.845286 423.990382,240.474868 C425.40753,242.10445 426.432141,242.92004 427.061126,242.92004 C428.530818,242.92004 430.473407,241.914145 432.887349,239.903954 C432.992437,240.665172 433.528697,241.357624 434.500764,241.982911 C435.471286,242.604998 436.403173,242.92004 437.296424,242.92004 C438.345762,242.92004 441.469051,239.579317 446.664743,232.897871 C449.163683,229.633909 451.630169,226.368348 454.092018,223.104387 C453.538759,225.808629 453.186404,227.706877 453.041134,228.77674 L448.868508,231.052397 C448.868508,233.273682 449.812758,235.143144 451.702803,236.660782 C451.124817,238.882067 450.83737,240.969019 450.83737,242.92004 C453.146223,242.92004 455.218627,242.4019 457.056128,241.370418 C457.474936,238.491863 457.765475,236.862281 457.921562,236.481672 C459.60143,235.993917 462.304365,233.713461 466.033457,229.638707 C467.578874,227.949955 469.354558,225.882192 471.337328,223.469004 C470.82425,225.984541 470.499712,227.753253 470.360625,228.77674 L466.187998,231.052397 C466.187998,233.273682 467.132248,235.143144 469.022293,236.660782 C468.444307,238.882067 468.15686,240.969019 468.15686,242.92004 C470.465713,242.92004 472.538118,242.4019 474.375619,241.370418 C474.794427,238.491863 475.084965,236.862281 475.242598,236.481672 C476.920921,235.993917 479.623855,233.713461 483.352947,229.638707 C483.589396,229.379637 483.84748,229.085385 484.094747,228.810323 C483.711484,230.996425 483.507489,232.808316 483.507489,234.201217 C483.507489,239.63369 486.446872,242.430686 492.325639,242.593804 C497.521332,242.755323 505.079967,235.613308 515,221.16616 L515,217.825437 L501.616687,234.201217 C498.151862,237.460381 495.448927,239.089963 493.506338,239.089963" id="Fill-28" fill="#002746"></path>
                <path d="M429.397291,199 L425,201.968472 C425,202.684721 425.264658,203.646726 425.79539,204.856103 C426.420946,206.286985 427.022442,207 427.601294,207 L432,204.034762 C431.324909,204.034762 430.699353,203.347615 430.121917,201.971706 C429.639304,200.815683 429.397291,199.826192 429.397291,199" id="Fill-30" fill="#002746"></path>
                <path d="M440.397291,199 L436,201.965238 C436,202.679871 436.263243,203.645109 436.793975,204.854487 C437.420946,206.285368 438.022442,207 438.601294,207 L443,204.034762 C442.324909,204.034762 441.699353,203.347615 441.120501,201.971706 C440.637889,200.815683 440.397291,199.826192 440.397291,199" id="Fill-32" fill="#002746"></path>
                <polygon id="Fill-34" fill="#002746" points="167 219 269 219 269 217 167 217"></polygon>
                <polygon id="Fill-36" fill="#002746" points="534 219 636 219 636 217 534 217"></polygon>
            </g>
        </g>
    </g>
</svg>