<?xml version="1.0" encoding="UTF-8"?>
<svg width="571px" height="209px" viewBox="0 0 571 209" version="1.1" xmlns="http://www.w3.org/2000/svg" xmlns:xlink="http://www.w3.org/1999/xlink">
    <!-- Generator: Sketch 52.6 (67491) - http://www.bohemiancoding.com/sketch -->
    <title>Group</title>
    <desc>Created with Sketch.</desc>
    <g id="Page-1" stroke="none" stroke-width="1" fill="none" fill-rule="evenodd">
        <g id="contact" transform="translate(-433.000000, -367.000000)" fill="#FFFFFF">
            <g id="Group-4" transform="translate(433.000000, 366.000000)">
                <g id="Group-3">
                    <g id="Group">
                        <path d="M144.265123,20.2309467 C84.0134452,4.15838 17.7744774,47.32148 3.97912258,105.17078 C-9.81623226,163.026713 13.1760258,213.990613 59.1738323,202.508313 C98.0878968,192.803747 117.093058,78.22618 137.75951,56.29638 C138.623381,55.3743467 138.085123,53.8752133 136.829187,53.7757133 C129.200542,53.1853467 110.241897,54.10738 100.108026,75.7851133 C87.2297032,103.333347 67.9122194,190.574947 47.2191871,195.171847 C26.5128645,199.762113 10.4116387,163.942113 28.8187355,103.79768 C47.2191871,43.6466133 100.573187,15.64068 142.431058,32.1643133 C184.282284,48.7012133 187.040026,104.71308 175.543897,139.611047 C164.326865,173.653313 109.311574,195.032547 105.796284,164.061513 C105.663381,162.94048 104.434026,162.336847 103.497058,162.967013 C97.768929,166.814347 83.1628645,178.853847 93.6755097,196.087247 C106.547187,217.20778 157.608606,219.045213 189.804413,167.61698 C222.000219,116.188747 204.523445,36.29688 144.265123,20.2309467" id="Fill-1"></path>
                        <path d="M537.82292,43.7091875 C542.773902,43.1328125 549.767829,44.8685625 537.82292,73.5680625 C534.189538,82.3130625 529.604556,90.6340625 524.527138,98.1998125 C521.625756,65.4391875 533.184702,44.2524375 537.82292,43.7091875 M240.431284,137.439688 C231.880193,135.505188 230.722302,111.926813 237.323611,84.4860625 C243.918265,57.0453125 256.73492,55.4950625 257.506847,69.7984375 C258.072484,80.1864375 253.926702,87.3149375 251.61092,90.4353125 C251.031975,91.2170625 251.584302,92.3366875 252.56252,92.3433125 C254.971465,92.3631875 257.080956,92.0319375 258.937575,91.4290625 C257.779684,96.4508125 256.781502,101.770688 255.956338,107.295938 C254.884956,114.431063 254.226156,120.731438 254.019865,126.210313 C250.067065,132.318563 244.883175,138.446688 240.431284,137.439688 M567.295902,116.160188 C560.375175,132.868438 537.443611,135.465438 528.426702,115.895188 C543.60572,91.6741875 552.615975,69.3280625 552.968665,51.2484375 C553.547611,21.6744375 521.519284,26.0270625 506.080738,70.0899375 C499.659102,88.4544375 500.557465,106.461188 506.014193,120.638688 C499.639138,126.859563 493.323975,131.622938 487.747465,134.445188 C471.72332,142.560813 464.449902,126.912563 456.584229,112.417063 C448.718556,97.9215625 439.116047,92.4095625 439.116047,92.4095625 C439.116047,92.4095625 443.481429,84.5854375 476.680956,75.5953125 C502.181175,68.6920625 501.722011,45.1600625 492.984593,34.4341875 C486.556302,26.5371875 476.341575,30.8898125 471.397247,33.7451875 C470.026411,34.5335625 469.613829,36.3421875 470.572084,37.6009375 C474.351865,42.5696875 478.011865,54.6404375 463.571502,64.8694375 C452.458411,72.7531875 442.682884,75.8934375 435.116665,81.0609375 C438.716775,63.7696875 442.256993,47.2336875 444.645975,34.7256875 C451.021029,1.3290625 429.420375,-2.9043125 414.520847,3.5219375 C413.476084,3.9724375 413.209902,5.3106875 413.96852,6.1520625 C416.949756,9.4778125 422.559538,18.1963125 418.147575,33.5596875 C413.283102,50.5064375 400.49972,89.5011875 394.889938,126.541563 C387.829465,135.915938 376.869429,141.540563 373.595393,135.028188 C369.516156,126.912563 378.253575,84.8703125 385.826447,64.8694375 C393.39932,44.8685625 372.430847,29.7900625 356.120556,46.3194375 C346.923975,55.6474375 338.639065,68.3939375 333.175684,77.7285625 C335.185356,64.3990625 335.484811,52.7655625 331.951247,46.0279375 C325.749211,34.1625625 309.578665,42.5365625 304.960411,45.2594375 C304.428047,45.5708125 304.408084,46.3260625 304.920484,46.6705625 C306.817029,47.9491875 310.150956,51.4670625 308.660338,59.9404375 C307.662156,65.6246875 305.479465,76.7281875 303.336702,89.6800625 C303.29012,89.9450625 303.243538,90.2166875 303.196956,90.4949375 C300.87452,105.831813 281.829211,135.127563 277.177684,132.225813 C272.759065,129.476438 283.52612,65.5849375 294.852156,56.4821875 C295.797102,55.7269375 295.916884,54.3290625 295.045138,53.4943125 C292.729356,51.2881875 287.971356,48.3930625 280.411793,51.2484375 C276.518884,52.7191875 272.898811,56.4556875 269.664702,61.9014375 C266.47052,53.9978125 258.305393,48.0286875 248.576447,50.0824375 C235.766447,52.7920625 213.247465,66.7045625 210.525756,103.426938 C207.810702,140.149313 229.165138,154.446063 241.981793,149.033438 C246.759756,147.019438 250.998702,142.521063 254.439102,137.684813 C255.696811,146.906813 259.463284,152.094188 266.437247,153.293313 C273.324702,154.472563 288.13772,139.526563 299.224193,119.326938 C298.765029,123.706063 298.399029,128.012313 298.172775,132.126438 C296.755356,157.791688 308.021502,182.357188 326.334811,163.118188 C327.206556,162.203938 327.319684,160.799438 326.627611,159.746063 C323.925865,155.658438 318.262847,143.865938 323.513284,122.268438 C325.489684,114.146188 327.66572,105.394563 329.56892,96.7290625 C339.836884,76.6950625 357.291756,53.4876875 361.943284,56.1708125 C367.479865,59.3640625 361.364338,75.8868125 351.169575,109.806813 C340.981465,143.720188 352.91972,160.534438 369.230011,156.188438 C378.373356,153.750438 387.237211,145.754063 393.266229,139.195313 C392.953465,142.189813 392.700593,145.157813 392.52092,148.072813 C389.899029,190.399938 400.972193,198.800438 409.117356,202.570063 C417.275829,206.339688 431.543175,197.932563 429.799684,186.047313 C429.799684,186.047313 420.476665,189.233938 421.348411,162.853188 C421.794265,149.331563 426.152993,125.223188 431.183829,100.207188 C440.992629,103.877438 444.779065,123.672938 449.590302,152.710313 C455.126884,186.047313 477.253247,184.020063 505.801247,147.781313 C508.928884,143.793063 511.943393,139.831313 514.818156,135.902688 C523.449102,146.237688 535.413975,151.418438 548.017684,148.072813 C566.643756,143.123938 570.463465,127.946063 570.609865,116.835938 C570.629829,114.947813 568.014593,114.417813 567.295902,116.160188" id="Fill-4"></path>
                        <path d="M341.551413,172.763334 C315.339264,184.227408 281.800781,173.747116 251.1355,165.548931 C222.663454,157.939677 205.117581,168.948668 199.184516,177.849555 C198.624541,178.692797 199.431171,179.770272 200.371129,179.42896 C225.71665,170.233608 276.294363,201.433558 306.96631,197.685817 C332.405159,194.573852 340.644787,179.857274 342.924684,174.088428 C343.264669,173.231802 342.391375,172.395252 341.551413,172.763334" id="Fill-7"></path>
                    </g>
                </g>
            </g>
        </g>
    </g>
</svg>