<?xml version="1.0" encoding="UTF-8"?>
<svg width="94px" height="35px" viewBox="0 0 94 35" version="1.1" xmlns="http://www.w3.org/2000/svg" xmlns:xlink="http://www.w3.org/1999/xlink">
    <!-- Generator: Sketch 52.6 (67491) - http://www.bohemiancoding.com/sketch -->
    <title>Group</title>
    <desc>Created with Sketch.</desc>
    <g id="Page-1" stroke="none" stroke-width="1" fill="none" fill-rule="evenodd">
        <g id="Desktop-HD-Copy" transform="translate(-675.000000, -912.000000)" fill="#002746">
            <g id="Group" transform="translate(675.000000, 912.000000)">
                <path d="M23.8455163,3.56184587 C13.8863246,0.899215419 2.93747472,8.0497463 0.657196587,17.6332379 C-1.62308154,27.2178284 2.17738201,35.6606636 9.78050591,33.7584707 C16.2127356,32.1507826 19.3541592,13.1695132 22.7701828,9.53655562 C22.9129748,9.38380877 22.8240044,9.13545776 22.6164068,9.11897429 C21.3554437,9.02117235 18.2217089,9.1739192 16.5466491,12.7651187 C14.4179502,17.3288431 11.2249017,31.7815528 7.80448454,32.5430893 C4.38187055,33.3035269 1.72044766,27.3694763 4.7630153,17.405766 C7.80448454,7.44095667 16.6235371,2.80140828 23.5423579,5.53876381 C30.4600803,8.27831713 30.9159162,17.5574139 29.0156844,23.3387176 C27.1615855,28.9782634 18.0679329,32.5200124 17.4868794,27.3892565 C17.4649114,27.2035427 17.2617074,27.103543 17.106833,27.2079383 C16.1600124,27.8452993 13.7457294,29.8397996 15.483398,32.6947372 C17.6109986,36.1936292 26.0511032,36.4980241 31.3728506,27.978266 C36.6945979,19.4585079 33.8058063,6.22337741 23.8455163,3.56184587" id="Fill-1"></path>
                <path d="M88.6313394,7.17295512 C89.4420294,7.0761766 90.587238,7.36762455 88.6313394,12.1865272 C88.0363976,13.6548909 87.2856376,15.0520613 86.4542445,16.3224183 C85.9791627,10.8216164 87.8718624,7.26417165 88.6313394,7.17295512 M39.9354575,22.9111443 C38.5352739,22.5863244 38.345677,18.6273044 39.426597,14.0197571 C40.5064274,9.41220977 42.6050684,9.15190893 42.7314663,11.5535735 C42.8240855,13.2978116 42.1452416,14.4947505 41.7660479,15.0186894 C41.6712494,15.1499522 41.7616893,15.3379472 41.921866,15.3390596 C42.3163146,15.3423968 42.6617295,15.286777 42.9657383,15.1855489 C42.7761414,16.0287456 42.6126959,16.9220002 42.4775809,17.8497391 C42.3021493,19.0477904 42.1942752,20.1056797 42.1604965,21.0256318 C41.513252,22.0512616 40.6644247,23.0802286 39.9354575,22.9111443 M93.4573421,19.3381259 C92.3241195,22.1435905 88.5692301,22.57965 87.0927718,19.29363 C89.578234,15.2267075 91.0536027,11.4745933 91.1113534,8.43886261 C91.2061519,3.47312355 85.9617285,4.20396821 83.4337705,11.602519 C82.3822707,14.6860827 82.5293717,17.7095771 83.4228741,20.0901061 C82.3790017,21.1346467 81.3449361,21.9344599 80.4318203,22.4083409 C77.8079741,23.7710269 76.6170008,21.1435458 75.3290497,18.7096218 C74.0410987,16.2756977 72.4687523,15.3501836 72.4687523,15.3501836 C72.4687523,15.3501836 73.1835543,14.036443 78.6197538,12.5269206 C82.7952431,11.3678032 82.7200582,7.41657001 81.2893646,5.61559968 C80.2367752,4.28962276 78.5641823,5.02046742 77.7545819,5.49991042 C77.5301167,5.63228563 77.4625592,5.93596994 77.6194669,6.14732532 C78.2383808,6.98162288 78.8376812,9.00840975 76.4731687,10.7259503 C74.6534747,12.0497024 73.0527978,12.5769785 71.8138804,13.444648 C72.4033741,10.5412925 72.9830611,7.76475019 73.3742408,5.66454513 C74.4181131,0.0569531484 70.8811511,-0.653868371 68.4414536,0.425156471 C68.2703806,0.500799449 68.2267951,0.725503592 68.3510138,0.866777978 C68.8391712,1.42520114 69.7577352,2.88911526 69.0353059,5.46876331 C68.2387811,8.31427418 66.1455883,14.8618414 65.2270242,21.0812516 C64.0709192,22.655293 62.2762869,23.5997178 61.7401855,22.5062318 C61.0722379,21.1435458 62.5029315,14.0842761 63.7429385,10.7259503 C64.9829455,7.36762455 61.549499,4.83580956 58.8787985,7.61123944 C57.37292,9.17749405 56.0163218,11.3177454 55.1217298,12.8851124 C55.4508002,10.6469702 55.4998338,8.69360147 54.9212365,7.56229398 C53.9056948,5.56999141 51.2578766,6.9760609 50.5016685,7.43325596 C50.4144975,7.4855386 50.4112286,7.61235183 50.4951306,7.67019646 C50.8056772,7.88488904 51.3515854,8.47557171 51.1075067,9.89832714 C50.9440611,10.8527635 50.5866602,12.7171405 50.235797,14.8918761 C50.2281696,14.936372 50.2205421,14.9819803 50.2129146,15.0287009 C49.8326313,17.6038994 46.7140899,22.5229178 45.9524336,22.035688 C45.2289145,21.5740434 46.9919474,10.8460892 48.8465097,9.31765604 C49.0012382,9.19084281 49.0208516,8.9561271 48.8781092,8.81596511 C48.4989155,8.44553699 47.719825,7.95941962 46.4819972,8.43886261 C45.8445595,8.68581469 45.2517969,9.31320645 44.7222333,10.2275966 C44.1992075,8.90050726 42.8622228,7.8982378 41.2691733,8.24308079 C39.1716219,8.69805106 35.48429,11.0340842 35.0386284,17.2000994 C34.5940565,23.3661145 38.0907019,25.7666667 40.189343,24.8578386 C40.9717024,24.5196699 41.6658012,23.7643526 42.2291436,22.9523029 C42.435085,24.5007592 43.0518196,25.3717659 44.1937593,25.5731097 C45.3215337,25.7711163 47.7470659,23.2615492 49.5624013,19.8698516 C49.4872163,20.6051458 49.4272863,21.3282037 49.3902386,22.0190021 C49.1581459,26.3284271 51.0029015,30.4531942 54.0015828,27.222794 C54.1443253,27.0692833 54.1628491,26.8334552 54.0495269,26.6565841 C53.6071342,25.9702353 52.679853,23.9901691 53.5395767,20.3637557 C53.8631989,18.9999573 54.2195102,17.5304812 54.5311464,16.0754663 C56.2124565,12.7115785 59.0705746,8.81485271 59.8322309,9.2653734 C60.738809,9.80154863 59.7374325,12.5758661 58.0681085,18.2713374 C56.3998741,23.9656964 58.354683,26.7889593 61.0253835,26.059227 C62.5225449,25.649865 63.9739415,24.3072022 64.9611527,23.2059294 C64.9099398,23.7087327 64.8685336,24.2070865 64.8391134,24.696541 C64.4097964,31.8036438 66.2229525,33.2141629 67.5566683,33.8471166 C68.8925634,34.4800704 71.2287453,33.0684389 70.9432604,31.0727992 C70.9432604,31.0727992 69.4166788,31.607862 69.5594213,27.1782982 C69.632427,24.9078964 70.3461393,20.8598847 71.1699049,16.6594746 C72.77603,17.2757423 73.3960335,20.5995838 74.1838411,25.4752187 C75.0904192,31.0727992 78.7134625,30.7324058 83.3880057,24.6475956 C83.9001351,23.9779327 84.3937407,23.3127195 84.864464,22.6530682 C86.2777233,24.3884071 88.2368908,25.2583014 90.3006634,24.696541 C93.3505577,23.8655807 93.9760094,21.3170797 93.9999814,19.4515904 C94.0032503,19.1345573 93.5750229,19.0455656 93.4573421,19.3381259" id="Fill-4"></path>
                <path d="M56.7585688,28.6737144 C52.3898774,30.6389843 46.8001301,28.8423628 41.6892501,27.4369596 C36.943909,26.132516 34.0195968,28.0197717 33.0307526,29.545638 C32.9374235,29.6901937 33.0718619,29.8749039 33.2285215,29.8163932 C37.4527749,28.2400471 45.8823938,33.58861 50.9943849,32.94614 C55.2341932,32.4126604 56.6074645,29.8898183 56.9874473,28.9008734 C57.0441114,28.7540231 56.8985624,28.6106146 56.7585688,28.6737144" id="Fill-7"></path>
            </g>
        </g>
    </g>
</svg>