<?xml version="1.0" encoding="UTF-8"?>
<svg width="158px" height="97px" viewBox="0 0 158 97" version="1.1" xmlns="http://www.w3.org/2000/svg" xmlns:xlink="http://www.w3.org/1999/xlink">
    <!-- Generator: Sketch 52.6 (67491) - http://www.bohemiancoding.com/sketch -->
    <title>Group 383 Copy</title>
    <desc>Created with Sketch.</desc>
    <g id="Page-1" stroke="none" stroke-width="1" fill="none" fill-rule="evenodd" stroke-linecap="round" stroke-linejoin="round">
        <g id="Desktop-HD-Copy" transform="translate(-36.000000, -43.000000)" stroke="#DEAD87" stroke-width="1.20000005">
            <g id="Group-383-Copy" transform="translate(36.000000, 43.000000)">
                <path d="M70.4468136,32.951858 C70.4468136,31.6956481 71.4642379,30.6789444 72.7186621,30.6789444 L74.2902833,30.6789444 L73.1794955,29.5664383 C72.2913439,28.6790679 72.2913439,27.2384383 73.1794955,26.3498704 C74.06645,25.4625 75.5064045,25.4625 76.3945561,26.3498704 L77.504147,27.4623765 L77.504147,25.891216 C77.504147,24.6350062 78.5227682,23.6159074 79.7771924,23.6159074 C81.0328136,23.6159074 82.0502379,24.6350062 82.0502379,25.891216 L82.0502379,27.4623765 L83.1610258,26.3498704 C84.0491773,25.4625 85.4879348,25.4625 86.3760864,26.3498704 C87.2642379,27.2384383 87.2642379,28.6790679 86.3760864,29.5664383 L85.2652985,30.6789444 L86.8357227,30.6789444 C88.0913439,30.6789444 89.1087682,31.6956481 89.1087682,32.951858 C89.1087682,34.2080679 88.0913439,35.2259691 86.8357227,35.2259691 L85.2652985,35.2259691 L86.3760864,36.3372778 C87.2642379,37.2246481 87.2642379,38.6652778 86.3760864,39.5538457 C85.4879348,40.441216 84.0491773,40.441216 83.1610258,39.5538457 L82.0502379,38.442537 L82.0502379,40.0125 C82.0502379,41.2687099 81.0328136,42.2878086 79.7771924,42.2878086 C78.5227682,42.2878086 77.504147,41.2687099 77.504147,40.0125 L77.504147,38.442537 L76.3945561,39.5538457 C75.5064045,40.441216 74.06645,40.441216 73.1794955,39.5538457 C72.2913439,38.6652778 72.2913439,37.2246481 73.1794955,36.3372778 L74.2902833,35.2259691 L72.7186621,35.2259691 C71.4642379,35.2259691 70.4468136,34.2080679 70.4468136,32.951858 Z" id="Stroke-1"></path>
                <path d="M86.3756076,26.3502296 C86.3756076,26.3502296 90.1209258,22.2283284 87.8646379,17.1496 C85.60835,12.0708716 77.8603652,6.2041679 77.5048652,2.14094568 C72.8630167,5.97783457 69.7006227,17.3495877 74.4394258,25.7143407 C74.4394258,25.7143407 71.1716985,20.6475877 64.4040318,17.713637 C57.6351682,14.7796864 46.581153,17.0370321 44.21235,15.6826247 C47.2574409,25.162279 54.6068348,35.3185383 70.4463348,33.5126617" id="Stroke-3"></path>
                <path d="M66.3999788,33.7224691 C66.3999788,33.7224691 59.8920545,33.0614321 56.0557667,38.3652963 C52.2206758,43.6691605 51.2068424,47.3934815 49.1755848,47.9575185 C59.6658273,50.2136667 69.2751,46.674963 76.3946758,39.5532469" id="Stroke-5"></path>
                <path d="M83.7326985,39.9685506 C83.7326985,39.9685506 85.4970318,45.6999333 91.8122439,47.393242 C98.128653,49.0853531 102.753744,46.6028716 106.927577,49.6505877 C106.927577,41.164884 104.10632,37.2058469 97.4523652,34.4012296" id="Stroke-7"></path>
                <path d="M88.5872485,34.4007506 C88.5872485,34.4007506 98.3545212,36.6724667 106.024703,30.0141951 C113.696082,23.3559235 112.228597,12.0715901 112.228597,12.0715901 C112.228597,12.0715901 108.507218,14.8929728 102.978415,15.908479 C97.4520061,16.9239852 91.214597,18.6113062 87.5099758,24.6456642" id="Stroke-9"></path>
                <path d="M98.8900455,16.8166864 C98.8900455,16.8166864 103.430152,10.9427975 101.512606,0.899106173 C98.1287727,3.38158765 85.6623333,4.39829136 84.3947424,12.0708716" id="Stroke-11"></path>
                <path d="M72.8780985,10.3308593 C72.8780985,10.3308593 69.5924167,3.60792099 59.4397197,2.14094568 C59.4397197,2.14094568 57.6358864,10.6446123 59.4397197,16.4358716" id="Stroke-13"></path>
                <path d="M89.7152727,46.6170025 C89.7152727,46.6170025 87.5834697,54.1650395 80.8146061,57.0977926 C79.4620303,55.1793481 70.5110909,53.1507309 70.4464545,44.2913975" id="Stroke-15"></path>
                <path d="M80.0809833,23.639379 C80.0809833,23.639379 82.8459833,21.8897864 84.8197864,21.3245519" id="Stroke-17"></path>
                <path d="M73.9418455,24.7608667 C73.9418455,24.7608667 77.5447242,20.5359778 83.1836485,18.8426691" id="Stroke-19"></path>
                <path d="M72.8780985,21.8021272 C72.8780985,21.8021272 76.8675985,18.2789914 81.4352348,16.8168062" id="Stroke-21"></path>
                <path d="M72.2422682,18.8421901 C72.2422682,18.8421901 74.8289197,15.9621284 79.7771924,14.2161284" id="Stroke-23"></path>
                <path d="M72.15465,14.616942 C72.15465,14.616942 75.1542561,12.9188432 78.1813924,11.9021395" id="Stroke-25"></path>
                <path d="M72.5859182,11.5529395 C72.5859182,11.5529395 74.6674485,10.4404333 76.9237364,9.5351" id="Stroke-27"></path>
                <path d="M69.6717758,20.8256605 C69.6717758,20.8256605 68.6902606,16.3600679 69.1977758,13.5949691" id="Stroke-29"></path>
                <path d="M66.9307152,18.9884086 C66.9307152,18.9884086 65.7469121,15.005421 66.4004576,10.1530259" id="Stroke-31"></path>
                <path d="M63.7407909,17.4482642 C63.7407909,17.4482642 62.4851697,12.9814741 63.0501394,9.53617778" id="Stroke-33"></path>
                <path d="M88.4141667,18.8421901 C88.4141667,18.8421901 90.4585909,16.3597086 94.6886818,14.9490173" id="Stroke-35"></path>
                <path d="M87.3610727,16.1560086 C87.3610727,16.1560086 89.6137697,13.8208235 94.6889212,12.0712309" id="Stroke-37"></path>
                <path d="M85.7491136,13.7562765 C85.7491136,13.7562765 87.8653561,10.8917827 94.0117955,8.85837531" id="Stroke-39"></path>
                <path d="M88.8688955,31.9379086 C88.8688955,31.9379086 91.7559864,31.3223778 93.6172742,31.9379086" id="Stroke-41"></path>
                <path d="M86.9262136,28.6680506 C86.9262136,28.6680506 91.1922136,27.983063 96.94485,29.6763716" id="Stroke-43"></path>
                <path d="M86.9262136,25.6263222 C86.9262136,25.6263222 95.5910773,25.1053963 100.723683,27.4190259" id="Stroke-45"></path>
                <path d="M88.8688955,22.7505716 C88.8688955,22.7505716 94.7304561,21.5386704 101.985289,24.7612259" id="Stroke-47"></path>
                <path d="M92.8794621,19.3088679 C92.8794621,19.3088679 98.4645227,19.2130654 103.994523,22.4811272" id="Stroke-49"></path>
                <path d="M98.4377106,16.9430259 C98.4377106,16.9430259 102.809044,17.4316185 106.249135,19.5751988" id="Stroke-51"></path>
                <path d="M104.885427,15.4718593 C104.885427,15.4718593 107.039973,16.2286988 108.28123,16.9436247" id="Stroke-53"></path>
                <path d="M70.8466015,31.6653506 C70.8466015,31.6653506 67.5621167,28.1517951 67.6183742,24.3149062" id="Stroke-55"></path>
                <path d="M68.6361576,33.6687 C68.6361576,33.6687 63.8686273,28.1732309 63.7405515,23.4226259" id="Stroke-57"></path>
                <path d="M64.9002955,33.7224691 C64.9002955,33.7224691 60.45475,27.1671852 59.9472348,21.8022469" id="Stroke-59"></path>
                <path d="M60.1720258,32.8419247 C60.1720258,32.8419247 56.7331318,25.3872951 57.0718742,21.3252704" id="Stroke-61"></path>
                <path d="M56.100653,31.2221444 C56.100653,31.2221444 53.4050773,23.8082309 53.6875621,20.4216136" id="Stroke-63"></path>
                <path d="M51.5840076,27.9897691 C51.5840076,27.9897691 49.8495985,23.0116333 50.0207652,19.5759173" id="Stroke-65"></path>
                <path d="M73.5665955,39.8632877 C73.5665955,39.8632877 68.8385652,40.3961889 64.9005348,37.8011395" id="Stroke-67"></path>
                <path d="M71.6987242,43.4722864 C71.6987242,43.4722864 64.7886182,42.7657432 62.424603,40.622163" id="Stroke-69"></path>
                <path d="M67.6168182,45.8427988 C67.6168182,45.8427988 62.4854091,44.9674037 59.6653485,42.766342" id="Stroke-71"></path>
                <path d="M62.7845318,47.6496333 C62.7845318,47.6496333 58.7172288,46.9418926 57.0474561,44.9108802" id="Stroke-73"></path>
                <path d="M56.6851333,48.6050235 C56.6851333,48.6050235 54.6466939,47.1979247 54.5329818,46.280616" id="Stroke-75"></path>
                <path d="M88.3498894,45.8427988 C88.3498894,45.8427988 84.2550561,51.2304901 80.8149652,52.6411815" id="Stroke-77"></path>
                <path d="M86.4842924,44.3049296 C86.4842924,44.3049296 82.7449591,48.5777198 79.7764742,49.8758432" id="Stroke-79"></path>
                <path d="M85.2031758,42.7659827 C85.2031758,42.7659827 81.3010545,46.5334148 78.1817515,47.4423407" id="Stroke-81"></path>
                <path d="M83.9863364,40.6222827 C83.9863364,40.6222827 80.6228515,44.0568012 76.0097303,45.1046407" id="Stroke-83"></path>
                <path d="M100.724042,36.0765753 C100.724042,36.0765753 102.922876,40.9062173 103.092845,43.4725259" id="Stroke-85"></path>
                <path d="M99.9256636,44.0641062 C99.9256636,44.0641062 98.8843,36.6430074 96.7584818,34.4012296" id="Stroke-87"></path>
                <path d="M96.7578833,42.8629827 C96.7578833,42.8629827 95.6458985,36.7424025 94.0120348,34.7329457" id="Stroke-89"></path>
                <path d="M93.1904348,42.0256691 C93.1904348,42.0256691 92.2017379,36.9505333 90.6229348,34.6895951" id="Stroke-91"></path>
                <path d="M89.8799758,39.907716 C89.8799758,39.907716 89.1282788,36.6564198 87.5099758,35.2265679" id="Stroke-93"></path>
                <path d="M77.466203,32.8419247 C77.466203,34.1196901 78.5003848,35.1555543 79.7787485,35.1555543 C81.0547182,35.1555543 82.0889,34.1196901 82.0889,32.8419247 C82.0889,31.5653568 81.0547182,30.5294926 79.7787485,30.5294926 C78.5003848,30.5294926 77.466203,31.5653568 77.466203,32.8419247 Z" id="Stroke-95"></path>
                <path d="M82.0740576,70.885684 C82.0740576,70.885684 108.393027,62.8526469 117.529497,50.439042 C126.667164,38.0266346 122.605845,25.1160543 127.682194,18.9882889 C112.905603,25.5759062 103.497421,38.3571531 103.497421,38.3571531" id="Stroke-97"></path>
                <path d="M80.6058545,67.6030123 C84.2793545,66.0605926 88.2880061,55.0181605 95.4267333,47.9838642" id="Stroke-99"></path>
                <path d="M75.8331773,70.885684 C75.8331773,70.885684 49.5142076,62.8526469 40.3777379,50.439042 C31.2412682,38.0266346 35.3025864,25.1160543 30.2250409,18.9882889 C45.0016318,25.5759062 54.4110106,38.3571531 54.4110106,38.3571531" id="Stroke-101"></path>
                <path d="M77.3013803,67.6030123 C73.6290773,66.0605926 69.6204258,55.0181605 62.4805015,47.9838642" id="Stroke-103"></path>
                <path d="M75.4228561,70.7242568 C74.9057652,70.5110963 74.4150076,70.2787753 73.9338258,70.0368741 C72.503447,69.3099728 71.1784015,68.4908617 69.8880682,67.6370222 C67.3325379,65.9029975 64.91825,64.038442 62.5901439,62.0816765 C57.9411136,58.1645531 53.6152652,53.9097259 49.6006288,49.3686889 C47.6028864,47.0909852 45.7104773,44.7090963 43.9856439,42.1990716 C43.1393864,40.9296889 42.3266439,39.6375531 41.6108561,38.2759605 L39.6322652,34.2115407 C38.2928561,31.5482321 36.8481136,28.9340222 35.2022803,26.4491457 C33.5779924,23.9726519 33.2177045,21.9452321 31.18525,19.8866765 L31.0176742,19.5753185 C32.0793864,20.7453062 32.6886439,20.8494914 33.593553,22.0769605 C34.4924773,23.2972444 35.3602803,24.5378864 36.1849924,25.8060716 C37.8188561,28.3508247 39.3725227,30.9458741 40.7789621,33.621158 C41.4863712,34.9468247 42.1375227,36.3467383 42.8461288,37.5993556 C43.5774773,38.8699358 44.4105682,40.0902198 45.2747803,41.2865531 C47.0415076,43.6600593 48.9770076,45.9186025 51.0202348,48.0765531 C55.1054924,52.3948494 59.5725833,56.3694543 64.2826591,59.9656395 C66.6347045,61.7667259 69.0693409,63.4552444 71.5829773,64.9353926 C72.8409924,65.6646889 74.1181591,66.3496765 75.4001136,66.9065284 C75.9698712,67.1532198 76.5396288,67.3663802 77.0938258,67.5352321 L77.0938258,54.8114667" id="Stroke-105"></path>
                <path d="M106.887718,48.0764333 C108.929748,45.9184827 110.865248,43.6599395 112.631976,41.2864333 C113.496188,40.0901 114.330476,38.8710136 115.061824,37.5992358 C115.769233,36.3466185 116.420385,34.9467049 117.130188,33.6210383 C118.53543,30.9457543 120.0879,28.3507049 121.722961,25.8059519 C122.546476,24.5377667 123.415476,23.2983222 124.3144,22.0768407 C125.218112,20.8493716 125.828567,20.7451864 126.889082,19.5751988 L126.722703,19.8865568 C124.690248,21.9451123 124.328764,23.9725321 122.704476,26.4490259 C121.059839,28.9339025 119.615097,31.5481123 118.276885,34.211421 L116.2959,38.2758407 C115.582506,39.6374333 114.76737,40.9295691 113.921112,42.1989519 C112.197476,44.7089765 110.305067,47.0908654 108.307324,49.3685691 C104.291491,53.9096062 99.9668394,58.1644333 95.3178091,62.0815568 C92.989703,64.0383222 90.5754152,65.9028778 88.0186879,67.6369025 C86.7295515,68.490742 85.4045061,69.3098531 83.9741273,70.0367543 C83.5025212,70.2726679 83.0225364,70.5013963 82.5186121,70.7097667 C82.2540818,70.8199395 82.5317788,70.721742 82.2540818,70.8199395" id="Stroke-107"></path>
                <path d="M80.8150848,56.8649926 L80.8150848,67.5349926 C81.3692818,67.3673383 81.9378424,67.1529802 82.506403,66.9074864 C83.7895545,66.349437 85.0667212,65.6656469 86.3259333,64.9351531 C88.8383727,63.4550049 91.2730091,61.7664864 93.6238576,59.9654 C97.9389333,56.6721901 102.04813,53.0616346 105.847312,49.160079" id="Stroke-109"></path>
                <path d="M78.9541561,95.692416 C78.9541561,95.692416 70.3982167,90.275984 70.3982167,81.1352309 C70.3982167,71.9944778 78.9541561,69.0605272 78.9541561,69.0605272 C78.9541561,69.0605272 80.456353,69.5754654 82.2015348,70.8460457 C84.6206106,72.6088111 87.5088985,75.8241815 87.5088985,81.1352309 C87.5088985,90.275984 78.9541561,95.692416 78.9541561,95.692416 Z" id="Stroke-111"></path>
                <path d="M78.9541561,69.0601679 L78.9541561,95.6920568" id="Stroke-113"></path>
                <path d="M78.9541561,72.2200926 L84.1430197,79.4424012" id="Stroke-115"></path>
                <path d="M78.9541561,78.1398469 L82.8455045,83.5550815" id="Stroke-117"></path>
                <path d="M78.9541561,84.0585235 L81.5479894,87.6702765" id="Stroke-119"></path>
                <path d="M78.9541561,72.2200926 L73.7652924,79.4424012" id="Stroke-121"></path>
                <path d="M78.9541561,78.1398469 L75.0628076,83.5550815" id="Stroke-123"></path>
                <path d="M78.9541561,84.0585235 L76.3591258,87.6702765" id="Stroke-125"></path>
                <path d="M91.9069242,61.2481951 L92.3773333,56.2520963" id="Stroke-127"></path>
                <path d="M94.9718848,58.9209136 L95.3297788,53.600284" id="Stroke-129"></path>
                <path d="M98.2307545,56.2603593 L97.9590424,51.3720383" id="Stroke-131"></path>
                <path d="M101.257053,53.5998049 L101.257053,49.8766815" id="Stroke-133"></path>
                <path d="M108.928671,45.8427988 L108.676111,39.2312309" id="Stroke-135"></path>
                <path d="M111.270064,43.1051235 L111.045033,35.4876296" id="Stroke-137"></path>
                <path d="M113.97725,39.2119506 L113.58225,32.4411111" id="Stroke-139"></path>
                <path d="M117.135694,33.851084 L116.628179,28.886121" id="Stroke-141"></path>
                <path d="M119.729408,29.3369914 L119.165635,26.4605222" id="Stroke-143"></path>
                <path d="M120.124527,29.7884605 L122.154588,29.845942" id="Stroke-145"></path>
                <path d="M117.868598,33.7388753 L121.534917,32.6108012" id="Stroke-147"></path>
                <path d="M116.796712,37.180579 L120.406773,36.1075914" id="Stroke-149"></path>
                <path d="M115.274765,40.7918531 L118.714856,39.9451988" id="Stroke-151"></path>
                <path d="M112.34195,44.5154556 L116.853329,43.7825667" id="Stroke-153"></path>
                <path d="M109.014015,48.5220346 L114.540424,46.9987753" id="Stroke-155"></path>
                <path d="M105.799553,52.4152074 L112.115962,51.1733679" id="Stroke-157"></path>
                <path d="M102.076498,55.9692395 L107.547847,55.5177704" id="Stroke-159"></path>
                <path d="M99.2010182,58.734937 L102.584852,58.4523198" id="Stroke-161"></path>
                <path d="M96.3242212,61.4995568 L99.8780242,60.8780383" id="Stroke-163"></path>
                <path d="M66.0013879,61.2481951 L65.5309788,56.2520963" id="Stroke-165"></path>
                <path d="M62.93535,58.9209136 L62.5774561,53.600284" id="Stroke-167"></path>
                <path d="M59.6775576,56.2603593 L59.9480727,51.3720383" id="Stroke-169"></path>
                <path d="M56.6500621,53.5998049 L56.6500621,49.8766815" id="Stroke-171"></path>
                <path d="M48.9784439,45.8427988 L49.2322015,39.2312309" id="Stroke-173"></path>
                <path d="M46.6383682,43.1051235 L46.8633985,35.4876296" id="Stroke-175"></path>
                <path d="M43.9311818,39.2119506 L44.3261818,32.4411111" id="Stroke-177"></path>
                <path d="M40.7727379,33.851084 L41.280253,28.886121" id="Stroke-179"></path>
                <path d="M38.1777076,29.3369914 L38.7426773,26.4605222" id="Stroke-181"></path>
                <path d="M37.7837848,29.7884605 L35.7537242,29.845942" id="Stroke-183"></path>
                <path d="M40.0398333,33.7388753 L36.3735152,32.6108012" id="Stroke-185"></path>
                <path d="M41.1105227,37.180579 L37.5004621,36.1075914" id="Stroke-187"></path>
                <path d="M42.6336667,40.7918531 L39.1935758,39.9451988" id="Stroke-189"></path>
                <path d="M45.5664818,44.5154556 L41.0539061,43.7825667" id="Stroke-191"></path>
                <path d="M48.894297,48.5220346 L43.3666909,46.9987753" id="Stroke-193"></path>
                <path d="M52.1088788,52.4152074 L45.7924697,51.1733679" id="Stroke-195"></path>
                <path d="M55.8307364,55.9692395 L50.3605848,55.5177704" id="Stroke-197"></path>
                <path d="M58.7074136,58.734937 L55.3235803,58.4523198" id="Stroke-199"></path>
                <path d="M61.5828939,61.4995568 L58.0302879,60.8780383" id="Stroke-201"></path>
                <path d="M106.927458,59.6553593 C142.909564,62.4372235 157.00867,43.1054827 157.00867,43.1054827 C157.00867,43.1054827 137.815261,32.4953593 122.36717,40.7918531" id="Stroke-203"></path>
                <path d="M113.58213,54.8500272 C116.688267,53.5040025 119.359903,52.6812988 122.669524,51.6358543 C126.400479,50.4694593 130.1841,49.413237 133.990464,48.4276691 C141.600797,46.4457556 149.285342,44.6913728 157.008191,43.1046444 C149.178812,44.0471012 141.366191,45.1620025 133.575115,46.5140148 C129.678979,47.1858296 125.790024,47.9306938 121.910645,48.7989037 C120.622706,49.0922988 119.334767,49.3892864 118.048024,49.7090272" id="Stroke-205"></path>
                <path d="M113.891906,54.8839173 L118.417648,56.617942" id="Stroke-207"></path>
                <path d="M118.192379,53.2046198 L123.241197,55.9409778" id="Stroke-209"></path>
                <path d="M123.071347,51.7099815 L128.61212,54.544537" id="Stroke-211"></path>
                <path d="M128.400495,50.2704296 L133.223086,53.1480963" id="Stroke-213"></path>
                <path d="M133.138102,48.7477691 L138.383223,51.5823247" id="Stroke-215"></path>
                <path d="M138.256823,47.5619741 L142.231959,50.2707889" id="Stroke-217"></path>
                <path d="M142.485956,46.2509173 L145.362274,48.3669543" id="Stroke-219"></path>
                <path d="M145.869909,45.6159864 L148.577455,47.3931222" id="Stroke-221"></path>
                <path d="M149.930748,44.727179 L152.002703,45.6576605" id="Stroke-223"></path>
                <path d="M149.719124,44.007942 L150.607276,42.9924358" id="Stroke-225"></path>
                <path d="M146.504662,44.3458852 L147.307829,42.6968852" id="Stroke-227"></path>
                <path d="M141.343927,44.9387827 L143.627745,42.6119802" id="Stroke-229"></path>
                <path d="M137.706217,45.4884494 L139.355641,42.737721" id="Stroke-231"></path>
                <path d="M134.15385,46.0813469 L135.549517,42.9078901" id="Stroke-233"></path>
                <path d="M129.3309,47.0964938 L132.335294,42.1878148" id="Stroke-235"></path>
                <path d="M125.778653,47.9853012 L128.274335,42.7796346" id="Stroke-237"></path>
                <path d="M123.325105,48.324442 L124.636983,44.2612198" id="Stroke-239"></path>
                <path d="M121.210538,48.7045383 L121.801841,47.2243901" id="Stroke-241"></path>
                <path d="M50.9808545,59.6553593 C14.9975515,62.4372235 0.898445455,43.1054827 0.898445455,43.1054827 C0.898445455,43.1054827 20.0930515,32.4953593 35.5399455,40.7918531" id="Stroke-243"></path>
                <path d="M44.3261818,54.8500272 C41.2200455,53.5040025 38.5472121,52.6812988 35.2387879,51.6358543 C31.5078333,50.4694593 27.7230152,49.413237 23.9178485,48.4276691 C16.3075152,46.4457556 8.62177273,44.6913728 0.900121212,43.1046444 C8.72830303,44.0471012 16.5421212,45.1620025 24.332,46.5140148 C28.2293333,47.1858296 32.1182879,47.9306938 35.9976667,48.7989037 C37.2856061,49.0922988 38.5723485,49.3892864 39.8590909,49.7090272" id="Stroke-245"></path>
                <path d="M44.0153288,54.8839173 L39.4895864,56.617942" id="Stroke-247"></path>
                <path d="M39.7148561,53.2046198 L34.6672348,55.9409778" id="Stroke-249"></path>
                <path d="M34.8369652,51.7099815 L29.2949955,54.544537" id="Stroke-251"></path>
                <path d="M29.5067394,50.2704296 L24.6853455,53.1480963" id="Stroke-253"></path>
                <path d="M24.7690136,48.7477691 L19.5238924,51.5823247" id="Stroke-255"></path>
                <path d="M19.6516091,47.5619741 L15.6752758,50.2707889" id="Stroke-257"></path>
                <path d="M15.4212788,46.2509173 L12.5461576,48.3669543" id="Stroke-259"></path>
                <path d="M12.0372061,45.6159864 L9.32966061,47.3931222" id="Stroke-261"></path>
                <path d="M7.97756364,44.727179 L5.90441212,45.6576605" id="Stroke-263"></path>
                <path d="M8.18799091,44.007942 L7.30103636,42.9924358" id="Stroke-265"></path>
                <path d="M11.40365,44.3458852 L10.5992864,42.6968852" id="Stroke-267"></path>
                <path d="M16.5633076,44.9387827 L14.2794894,42.6119802" id="Stroke-269"></path>
                <path d="M20.2008985,45.4884494 L18.5514742,42.737721" id="Stroke-271"></path>
                <path d="M23.7544621,46.0813469 L22.3587955,42.9078901" id="Stroke-273"></path>
                <path d="M28.5762152,47.0964938 L25.5730182,42.1878148" id="Stroke-275"></path>
                <path d="M32.1297788,47.9853012 L29.634097,42.7796346" id="Stroke-277"></path>
                <path d="M34.5833273,48.324442 L33.2714485,44.2612198" id="Stroke-279"></path>
                <path d="M36.6978939,48.7045383 L36.1053939,47.2243901" id="Stroke-281"></path>
                <path d="M106.251888,60.0774889 C106.251888,60.0774889 116.712206,62.119279 122.154827,70.2445259 C113.77963,75.8310074 95.8957061,79.0583531 88.0172515,68.8110815" id="Stroke-283"></path>
                <path d="M93.3131242,66.8077321 C95.5538515,67.675942 97.7838061,68.140584 100.013761,68.5621148 C102.477124,69.013584 104.939291,69.3225469 107.401458,69.5524728 C109.862427,69.7883864 112.321003,69.9572383 114.780776,70.0662136 C117.239352,70.1763864 119.699124,70.2446457 122.155306,70.2446457 C119.714685,69.9740037 117.283639,69.6303123 114.863367,69.2518926 C112.443094,68.8734728 110.034791,68.433979 107.646836,67.9334111 C105.257685,67.4388309 102.890079,66.8688062 100.584715,66.1742383 C99.3362758,65.794621 98.4229879,65.5179914 97.2284121,65.0485593" id="Stroke-285"></path>
                <path d="M101.704839,66.5002062 C101.704839,66.5002062 104.81337,64.6596012 105.799673,63.7710333" id="Stroke-287"></path>
                <path d="M105.253615,67.4088926 L108.80263,65.0485593" id="Stroke-289"></path>
                <path d="M108.802391,68.1713605 L112.1168,66.2289654" id="Stroke-291"></path>
                <path d="M112.919368,68.9338284 L115.288171,67.4093716" id="Stroke-293"></path>
                <path d="M106.157208,69.4285284 L107.970617,72.1493185" id="Stroke-295"></path>
                <path d="M109.842797,69.7641963 L111.312676,71.5569" id="Stroke-297"></path>
                <path d="M102.851536,69.0226852 L104.121521,71.810537" id="Stroke-299"></path>
                <path d="M98.9169773,68.3490741 L100.188159,71.8111358" id="Stroke-301"></path>
                <path d="M95.7257364,67.6030123 L96.3242212,70.7237778" id="Stroke-303"></path>
                <path d="M51.655347,60.0774889 C51.655347,60.0774889 41.1962258,62.119279 35.7536045,70.2445259 C44.1288015,75.8310074 62.0127258,79.0583531 69.8911803,68.8110815" id="Stroke-305"></path>
                <path d="M64.5951879,66.8077321 C62.3544606,67.675942 60.1233091,68.140584 57.8933545,68.5621148 C55.4311879,69.013584 52.9690212,69.3225469 50.5068545,69.5524728 C48.0458848,69.7883864 45.5861121,69.9572383 43.1263394,70.0662136 C40.6677636,70.1763864 38.2091879,70.2446457 35.7530061,70.2446457 C38.1924303,69.9740037 40.6234758,69.6303123 43.0437485,69.2518926 C45.4652182,68.8734728 47.8735212,68.433979 50.2602788,67.9334111 C52.6506273,67.4388309 55.0170364,66.8688062 57.323597,66.1742383 C58.5720364,65.794621 59.4841273,65.5179914 60.6799,65.0485593" id="Stroke-307"></path>
                <path d="M56.2035924,66.5002062 C56.2035924,66.5002062 53.0950621,64.6596012 52.1087591,63.7710333" id="Stroke-309"></path>
                <path d="M52.6536197,67.4088926 L49.1058015,65.0485593" id="Stroke-311"></path>
                <path d="M49.1059212,68.1713605 L45.7915121,66.2289654" id="Stroke-313"></path>
                <path d="M44.9878667,68.9338284 L42.6190636,67.4093716" id="Stroke-315"></path>
                <path d="M51.7500273,69.4285284 L49.9366182,72.1493185" id="Stroke-317"></path>
                <path d="M48.0644379,69.7641963 L46.5945591,71.5569" id="Stroke-319"></path>
                <path d="M55.0556985,69.0226852 L53.7857136,71.810537" id="Stroke-321"></path>
                <path d="M58.9902576,68.3490741 L57.7190758,71.8111358" id="Stroke-323"></path>
                <path d="M62.1825758,67.6030123 L61.5828939,70.7237778" id="Stroke-325"></path>
                <path d="M101.257053,75.3729519 C101.257053,75.3729519 108.647144,82.1797173 107.548326,92.6736802 C106.157447,88.5266309 92.2582348,86.0728901 87.5098561,80.4864086" id="Stroke-327"></path>
                <path d="M83.6801515,70.2448852 C85.0889848,70.9634037 86.4966212,71.7813173 87.8551818,72.624379 C89.6757727,73.7632309 91.4568636,74.9763296 93.1769091,76.2768481 C94.8885758,77.5869469 96.5798939,78.9365642 98.1802424,80.3927617 C99.8057273,81.8226136 101.340242,83.3554531 102.852015,84.9158358 C101.473106,83.2392926 100.063076,81.5795148 98.5501061,80.0107494 C97.0610758,78.4180333 95.4715,76.9211198 93.8472121,75.457737 C92.2157424,74.000342 90.5100606,72.621984 88.7493182,71.3106877 C87.7905455,70.6029469 86.8281818,69.9203543 85.8335,69.2641074" id="Stroke-329"></path>
                <path d="M100.229574,81.8821309 L102.725256,81.9671556" id="Stroke-331"></path>
                <path d="M97.988847,79.6403531 L100.78018,79.173316" id="Stroke-333"></path>
                <path d="M96.1267212,77.397258 L98.5386152,76.6344309" id="Stroke-335"></path>
                <path d="M97.7772227,79.8507593 L98.0728742,83.236179" id="Stroke-337"></path>
                <path d="M95.6194455,78.1164951 L95.4075818,81.0791864" id="Stroke-339"></path>
                <path d="M93.1237636,75.9155531 L92.9537939,79.3848" id="Stroke-341"></path>
                <path d="M90.7134258,74.477079 L90.1209258,78.0313506" id="Stroke-343"></path>
                <path d="M88.8092864,73.2491309 L88.3436652,75.3232543" id="Stroke-345"></path>
                <path d="M56.6500621,75.3729519 C56.6500621,75.3729519 49.2599712,82.1797173 50.3599864,92.6736802 C51.7496682,88.5266309 65.6500773,86.0728901 70.3972591,80.4864086" id="Stroke-347"></path>
                <path d="M74.2282803,70.2448852 C72.819447,70.9634037 71.4106136,71.7813173 70.052053,72.624379 C68.2326591,73.7632309 66.4515682,74.9763296 64.7315227,76.2768481 C63.0198561,77.5869469 61.3285379,78.9365642 59.7281894,80.3927617 C58.1015076,81.8226136 56.5681894,83.3554531 55.0552197,84.9158358 C56.4353258,83.2392926 57.8453561,81.5795148 59.3583258,80.0107494 C60.8461591,78.4180333 62.4369318,76.9211198 64.0600227,75.457737 C65.6914924,74.000342 67.3971742,72.621984 69.1591136,71.3106877 C70.1178864,70.6029469 71.079053,69.9203543 72.0749318,69.2641074" id="Stroke-349"></path>
                <path d="M57.6775409,81.8821309 L55.1818591,81.9671556" id="Stroke-351"></path>
                <path d="M59.9195848,79.6403531 L57.1282515,79.173316" id="Stroke-353"></path>
                <path d="M61.7805136,77.397258 L59.3698167,76.6344309" id="Stroke-355"></path>
                <path d="M60.1310894,79.8507593 L59.8354379,83.236179" id="Stroke-357"></path>
                <path d="M62.2877894,78.1164951 L62.499653,81.0791864" id="Stroke-359"></path>
                <path d="M64.7833515,75.9155531 L64.9533212,79.3848" id="Stroke-361"></path>
                <path d="M67.1948864,74.477079 L67.7873864,78.0313506" id="Stroke-363"></path>
                <path d="M69.0978288,73.2491309 L69.56345,75.3232543" id="Stroke-365"></path>
                <path d="M112.289283,74.4081012 C112.289283,74.4081012 117.31895,77.9887185 117.74148,83.5332864 C115.965177,82.8566815 108.272253,83.110558 105.752632,81.9250025" id="Stroke-367"></path>
                <path d="M105.253615,75.4840827 L112.3696,79.1736753" id="Stroke-369"></path>
                <path d="M45.6190288,74.4081012 C45.6190288,74.4081012 40.5893621,77.9887185 40.1656348,83.5332864 C41.9431348,82.8566815 49.6360591,83.110558 52.1556803,81.9250025" id="Stroke-371"></path>
                <path d="M52.6536197,75.4840827 L45.5388318,79.1736753" id="Stroke-373"></path>
                <path d="M95.924553,85.8641605 C95.924553,85.8641605 97.6924773,92.1236543 93.67425,96.185679 C92.48925,94.9174938 86.3092955,91.4015432 85.1266894,89.2447901" id="Stroke-375"></path>
                <path d="M87.8870212,80.9021914 C87.8870212,80.9021914 90.6699758,85.3103025 91.8980667,88.9927099" id="Stroke-377"></path>
                <path d="M61.9838788,85.8641605 C61.9838788,85.8641605 60.2147576,92.1236543 64.2341818,96.185679 C65.4179848,94.9174938 71.5979394,91.4015432 72.7805455,89.2447901" id="Stroke-379"></path>
                <path d="M70.0212909,80.9021914 C70.0212909,80.9021914 67.2371394,85.3103025 66.0102455,88.9927099" id="Stroke-381"></path>
            </g>
        </g>
    </g>
</svg>