<?xml version="1.0" encoding="UTF-8"?>
<svg width="170px" height="105px" viewBox="0 0 170 105" version="1.1" xmlns="http://www.w3.org/2000/svg" xmlns:xlink="http://www.w3.org/1999/xlink">
    <!-- Generator: Sketch 52.6 (67491) - http://www.bohemiancoding.com/sketch -->
    <title>Group 49</title>
    <desc>Created with Sketch.</desc>
    <defs>
        <polygon id="path-1" points="0.000697016 0.189051422 169.805163 0.189051422 169.805163 105 0.000697016 105"></polygon>
        <polygon id="path-3" points="1 0.5 1.5 0.5 1.5 1 1 1"></polygon>
    </defs>
    <g id="Page-1" stroke="none" stroke-width="1" fill="none" fill-rule="evenodd">
        <g id="Desktop-HD-Copy" transform="translate(-57.000000, -859.000000)">
            <g id="Group-49" transform="translate(56.000000, 859.000000)">
                <path d="M144.5015,64.4995 L144.5005,64.4995 C144.5005,64.4995 144.4995,64.5005 144.4985,64.5005 L144.5015,64.4995 Z" id="Fill-1" fill="#DEAD87"></path>
                <g id="Group-5" transform="translate(1.000000, 0.000000)">
                    <mask id="mask-2" fill="white">
                        <use xlink:href="#path-1"></use>
                    </mask>
                    <g id="Clip-4"></g>
                    <path d="M161.61354,56.9043082 C158.928285,60.6454847 155.579161,64.5587553 151.635657,67.0054847 C148.089234,69.2052965 144.786022,69.7914141 141.833978,69.7939082 C139.13135,69.7976494 136.755073,69.2950847 134.759745,69.0618847 C135.712737,68.6216729 136.655803,68.1677435 137.590182,67.6963553 C137.804854,67.7025906 138.262737,67.7138141 138.891861,67.7138141 C140.055803,67.7138141 141.773175,67.6776494 143.509161,67.5055553 C145.250109,67.3322141 146.999745,67.0366612 148.289015,66.4580259 C148.601715,66.3171082 148.741934,65.9479788 148.601715,65.63372 C148.460255,65.3207082 148.094197,65.1797906 147.782737,65.3207082 C146.735438,65.7970847 145.060255,66.1026141 143.388796,66.2647318 C142.180182,66.3844494 140.971569,66.4355788 139.963978,66.4555318 C141.11427,65.8320024 142.254635,65.1947553 143.376387,64.5250847 C143.646898,64.3667082 143.911204,64.1958612 144.180474,64.0337435 C144.589964,64.0287553 145.870547,64.0075553 147.39062,63.9090376 C149.240766,63.7855788 151.401131,63.5648494 152.828139,63.0747553 C153.152007,62.9612729 153.323248,62.6071082 153.211569,62.2816259 C153.099891,61.9561435 152.747482,61.7840494 152.423613,61.8950376 C151.247263,62.3090612 149.107993,62.5509906 147.309964,62.6644729 C146.95135,62.6881671 146.608869,62.7056259 146.282518,62.7218376 C147.40427,61.9948024 148.506168,61.2365906 149.590693,60.4584259 C149.791715,60.4696494 150.115584,60.4858612 150.562299,60.4858612 C151.849088,60.4846141 153.99208,60.3586612 156.096606,59.6154141 C156.419234,59.5006847 156.589234,59.1440259 156.475073,58.8197906 C156.362153,58.4955553 156.007263,58.3247082 155.684635,58.4381906 C154.122372,58.9931318 152.474489,59.1764494 151.269599,59.2225906 C151.787044,58.8322612 152.306971,58.4431788 152.81573,58.0416259 C152.81573,58.0416259 152.816971,58.0416259 152.816971,58.0416259 C152.818212,58.0403788 152.820693,58.0391318 152.821934,58.0378847 L152.821934,58.0366376 C153.464708,57.5415553 154.09135,57.0290141 154.713029,56.5102376 C155.060474,56.5351788 155.742956,56.5763318 156.518504,56.5763318 C157.038431,56.5763318 157.596825,56.5576259 158.124197,56.5015082 C158.654051,56.4428965 159.151642,56.3543553 159.582226,56.1747788 C159.897409,56.0425906 160.047555,55.6772024 159.914781,55.3592024 C159.780766,55.0412024 159.41719,54.8915553 159.103248,55.0249906 C158.867482,55.1260024 158.456752,55.2132965 157.992664,55.2619318 C157.528577,55.3118141 157.007409,55.3292729 156.518504,55.3292729 C156.368358,55.3292729 156.235584,55.3242847 156.095365,55.3217906 C157.898358,53.7417671 159.63062,52.0919082 161.298358,50.3946612 C161.524197,50.1652024 161.537847,49.7985671 161.32938,49.5516494 C161.122153,49.3059788 160.761058,49.2610847 160.497993,49.4481435 C158.933248,50.5667553 157.506241,51.7764024 155.976241,52.7852729 L155.960109,52.7977435 L155.350839,53.2292259 C155.416606,53.0608729 155.486095,52.8887788 155.556825,52.7116965 C156.075511,51.4160024 156.704635,49.9307553 157.043394,49.3384024 C157.213394,49.0391082 157.110401,48.6587553 156.813832,48.4879082 C156.517263,48.3170612 156.137555,48.4205671 155.967555,48.7198612 C155.54938,49.45812 154.938869,50.9234141 154.405292,52.2452965 C154.00573,53.2429435 153.662007,54.1408259 153.518066,54.5186847 L151.347774,55.9403318 C151.131861,56.0750141 150.915949,56.2059553 150.700036,56.3418847 C151.022664,54.6770612 151.691496,51.8350141 152.741277,49.9494612 C152.907555,49.64892 152.798358,49.2685671 152.500547,49.1014612 C152.200255,48.9343553 151.821788,49.0428494 151.657993,49.3446376 C150.780693,50.9358847 150.190036,52.9611082 149.801642,54.6059788 C149.526168,55.7856965 149.359891,56.7571553 149.285438,57.2210612 C147.991204,58.0166847 146.687044,58.78612 145.370474,59.5306141 C145.672007,58.4107553 146.134854,56.7771082 146.684562,55.1459553 C147.260328,53.4275082 147.939088,51.7190376 148.559526,50.7413435 C148.741934,50.4495318 148.657555,50.0654376 148.365949,49.8808729 C148.078066,49.6963082 147.694635,49.7823553 147.510985,50.07292 C146.544343,51.6180259 145.64719,54.2231318 144.951058,56.4877906 C144.413759,58.2486376 144.01792,59.7737906 143.867774,60.3686376 C143.156752,60.7539788 142.443248,61.1343318 141.721058,61.4984729 L141.714854,61.5009671 C141.183759,61.7740729 140.648942,62.0372024 140.114124,62.3028259 C140.158796,62.1107788 140.208431,61.9012729 140.266752,61.6755553 C140.596825,60.3586612 141.135365,58.5030376 141.830255,56.7247318 C142.520182,54.9476729 143.383832,53.2404494 144.282226,52.2540259 C144.513029,51.9983788 144.494416,51.6043082 144.241277,51.3723553 C143.988139,51.1416494 143.596022,51.1603553 143.36646,51.4147553 C141.87865,53.0733435 140.751934,55.8630141 139.934197,58.3446612 C139.532153,59.5829906 139.21573,60.7402612 138.998577,61.62692 C138.89062,62.0708729 138.807482,62.4449906 138.749161,62.7330612 C138.730547,62.83532 138.716898,62.9126376 138.703248,62.9936965 C137.380474,63.6284494 136.045292,64.2332729 134.697701,64.8056729 C135.048869,63.6671082 135.629599,61.8987788 136.350547,60.1379318 C137.072737,58.3671082 137.950036,56.5987788 138.817409,55.5350376 C139.033321,55.2681671 138.993613,54.8753435 138.728066,54.6583553 C138.462518,54.44012 138.071642,54.4800259 137.85573,54.7468965 C136.50938,56.4167082 135.364051,59.1303082 134.510328,61.4598141 C133.86135,63.2418612 133.402226,64.7807318 133.219818,65.4117435 C132.692445,65.6249906 132.168796,65.8419788 131.638942,66.0427553 L131.632737,66.0440024 C130.977555,66.2996494 130.314927,66.5428259 129.654781,66.7847553 C129.874416,66.3894376 130.085365,65.9716729 130.293832,65.5102612 C132.168796,61.2291082 133.953175,54.0684965 140.007409,49.9744024 C143.830547,47.3767788 149.385949,45.8803082 155.780182,45.8828024 C159.597117,45.8828024 163.716825,46.4414847 167.939526,47.5763082 C167.863832,47.6660965 167.791861,47.7359318 167.713686,47.8356965 C166.312737,49.6227318 164.305,53.1593906 161.61354,56.9043082 Z M121.987409,72.5087553 C121.402956,72.6746141 120.41646,72.9776494 119.794781,73.1447553 C118.849234,72.8566847 117.99427,72.6658847 117.278285,72.5424259 C117.834197,72.2082141 118.469526,71.7929435 119.154489,71.2704259 C119.935,71.0871082 120.715511,70.8963082 121.491058,70.6930376 L121.494781,70.6917906 C125.078431,69.7303082 128.611204,68.5555788 132.079453,67.2075082 L132.074489,67.2087553 C132.712299,66.9680729 133.342664,66.7099318 133.975511,66.4530376 C133.997847,66.4430612 134.023905,66.4380729 134.045,66.4256024 C135.893905,65.6698847 137.717993,64.8555553 139.517263,63.9876024 C139.524708,63.9838612 139.532153,63.98012 139.539599,63.9763788 C140.459088,63.5324259 141.373613,63.0784965 142.280693,62.6108494 L142.27573,62.6133435 C144.994489,61.2440729 147.622664,59.7101906 150.211131,58.1127082 C150.217336,58.10772 150.227263,58.1039788 150.234708,58.0977435 C150.826606,57.7323553 151.417263,57.3669671 152.006679,56.9953435 L152.015365,56.9903553 L152.663102,56.5651082 C152.46208,56.7247318 152.266022,56.8943318 152.061277,57.0514612 L152.055073,57.0564494 C149.100547,59.3859553 145.997117,61.54212 142.748504,63.4513671 L142.74354,63.4526141 C136.259964,67.3222376 129.283759,70.4199318 121.987409,72.5087553 Z M127.952299,80.8091788 C128.701788,82.1584965 129.007044,83.6512259 129.008285,85.2063082 C129.012007,88.3301906 127.742591,91.6748024 126.453321,94.2175553 C125.809307,95.4883082 125.165292,96.5620259 124.682591,97.3127553 C124.453029,97.6719082 124.263175,97.9512494 124.124197,98.1507788 C122.605365,97.7579553 116.965584,96.0644494 113.512226,92.7048729 C111.101204,90.3766141 109.407409,86.6928024 109.413613,83.0775788 C109.426022,80.1432494 110.511788,77.2737671 113.20573,75.0402847 C113.378212,75.5204024 113.565584,76.0129906 113.771569,76.5192965 C113.594124,76.7076024 113.348431,76.9719788 113.082883,77.27252 C112.562956,77.86612 111.983467,78.5520024 111.669526,79.1343788 C111.508212,79.4374141 111.622372,79.81652 111.925146,79.9773906 C112.226679,80.1395082 112.603905,80.0247788 112.765219,79.7204965 C112.955073,79.3513671 113.51719,78.6542612 114.009818,78.1018141 C114.11281,77.9858376 114.209599,77.8785906 114.303905,77.7750847 C114.460255,78.1304965 114.617847,78.4846612 114.782883,78.8450612 C114.609161,79.0932259 114.358504,79.4685906 114.081788,79.9561906 C113.60281,80.8054376 113.069234,81.9340259 112.883102,83.1361906 C112.829745,83.4766376 113.061788,83.7946376 113.400547,83.8470141 C113.739307,83.8993906 114.05573,83.6674376 114.109088,83.3269906 C114.253029,82.3729906 114.720839,81.3441671 115.160109,80.5734847 C115.24573,80.4238376 115.325146,80.2941435 115.405803,80.1644494 C115.787993,80.9575788 116.188796,81.7507082 116.595803,82.5338612 C116.197482,83.20852 115.301569,84.90452 115.131569,86.85492 C115.10427,87.1978612 115.357409,87.4996494 115.69865,87.5283318 C116.039891,87.5570141 116.341423,87.3013671 116.369964,86.9584259 C116.451861,85.9233671 116.815438,84.8945435 117.162883,84.1350847 C117.208796,84.03532 117.249745,83.9542612 117.294416,83.86572 C117.671642,84.5728024 118.048869,85.2686612 118.416168,85.9320965 C118.449672,85.9919553 118.480693,86.0455788 118.514197,86.1054376 C118.19281,86.7950612 117.443321,88.5808494 117.433394,90.4726376 C117.433394,90.7956259 117.45573,91.1236024 117.514051,91.4540729 C117.572372,91.7932729 117.893759,92.0202376 118.231277,91.9603788 C118.568796,91.9017671 118.794635,91.5787788 118.735073,91.2395788 C118.694124,90.9951553 118.67427,90.7382612 118.67427,90.4726376 C118.67427,89.4961906 118.941058,88.4536494 119.217774,87.6680024 C119.242591,87.6006612 119.264927,87.5457906 119.288504,87.4821906 C120.936387,90.3728729 122.223175,92.4342612 122.228139,92.4392494 C122.39938,92.7148494 122.755511,92.8108729 123.042153,92.6587318 C123.327555,92.5078376 123.449161,92.1586612 123.32135,91.8593671 C123.32135,91.85812 122.970182,91.0437906 122.436606,89.7231553 C122.092883,88.8739082 121.673467,87.80892 121.226752,86.6304494 C121.627555,86.87612 122.073029,87.1529671 122.520985,87.44852 C123.327555,87.97852 124.132883,88.5608965 124.59573,89.0085906 C124.843905,89.2455318 125.237263,89.2368024 125.473029,88.9873906 C125.710036,88.7379788 125.70135,88.3426612 125.453175,88.10572 C124.685073,87.3736965 123.446679,86.5493906 122.378285,85.8772259 C121.532007,85.3484729 120.807336,84.9319553 120.536825,84.7785671 C120.150912,83.7160729 119.760036,82.6012024 119.392737,81.4800965 C119.38281,81.4464259 119.372883,81.4140024 119.360474,81.3815788 C120.26135,81.8978612 121.49354,82.6224024 122.604124,83.3419553 C123.209672,83.7347788 123.77427,84.1251082 124.209818,84.4630612 C124.641642,84.7922847 124.954343,85.1115318 124.996533,85.2000729 C125.172737,85.4956259 125.553686,85.5916494 125.849015,85.4145671 C126.141861,85.2374847 126.236168,84.8546376 126.061204,84.5590847 C125.899891,84.2947082 125.683978,84.0827082 125.412226,83.8420259 C124.475365,83.0227082 122.821277,81.9814141 121.370693,81.1134612 C120.176971,80.4001435 119.144562,79.8252494 118.81573,79.6431788 C118.530328,78.6979082 118.268504,77.7651082 118.053832,76.8834376 C119.513102,77.6354141 122.234343,79.1456024 123.784197,80.5834612 C124.036095,80.8166612 124.428212,80.8004494 124.661496,80.5460494 C124.892299,80.2928965 124.877409,79.8988259 124.62427,79.6656259 C123.385876,78.5258141 121.636241,77.4396259 120.181934,76.6178141 C119.01427,75.95812 118.052591,75.4817435 117.710109,75.3171318 C117.609599,74.7971082 117.525219,74.2995318 117.471861,73.8456024 C118.37646,74.0226847 119.474635,74.2982847 120.647263,74.7484729 C123.246898,75.7436259 126.136898,77.5431318 127.952299,80.8091788 Z M111.619891,74.7335082 C111.358066,74.77092 111.096241,74.8058376 110.834416,74.8407553 L108.059818,75.2098847 L108.056095,75.2098847 C107.618066,75.2709906 107.165146,75.32212 106.699818,75.3969435 L106.679964,75.4006847 L105.349745,75.6600729 C104.426533,75.8184494 103.543029,76.0541435 102.67938,76.2848494 L102.67938,76.2860965 C101.751204,76.4993435 100.902445,76.8248259 100.078504,77.0867082 L100.063613,77.0904494 C96.6139781,78.2788965 93.3703285,80.0409906 90.6627372,82.3655082 L90.6503285,82.3767318 C89.3325182,83.5776494 88.164854,84.9294612 87.2801095,86.4296729 L87.2801095,86.43092 C87.1895255,86.5843082 87.1200365,86.7464259 87.0368978,86.9023082 L87.0368978,83.27212 C87.7193796,82.3954376 88.4725912,81.5798612 89.2804015,80.8316259 C92.2510584,78.2202847 95.7118613,76.2998141 99.3538321,75.0789435 C100.304343,74.7771553 101.210182,74.4429435 102.106095,74.2396729 L102.125949,74.2346847 C103.071496,73.98652 103.999672,73.7458376 104.924124,73.5912024 L104.937774,73.5887082 L106.358577,73.3168494 C106.820182,73.2457671 107.296679,73.1921435 107.785584,73.1260494 L107.781861,73.1260494 L109.225,72.9402376 L110.587482,72.7818612 C110.846825,72.7519318 111.10865,72.7220024 111.371715,72.6883318 L111.358066,72.5860729 C112.01573,72.8616729 112.725511,73.0861435 113.486168,73.2582376 C113.363321,73.3405435 113.241715,73.4216024 113.123832,73.5064024 C113.105219,73.52012 113.089088,73.5325906 113.071715,73.5488024 C112.541861,73.9341435 112.062883,74.3456729 111.626095,74.7759082 L111.619891,74.7335082 Z M103.253905,86.4259318 C106.780474,88.5895788 109.707701,92.5377671 109.782153,98.5248965 C108.365073,98.1869435 106.596825,98.1158612 104.642445,98.0385435 C102.295949,97.9524965 99.734781,97.8539788 97.4776277,97.3339553 C94.9040511,96.7428494 92.8206204,95.9160494 91.2062409,94.5305671 C89.7717883,93.2959788 88.6711314,91.5987318 87.9216423,89.1133435 C88.7629562,89.2841906 90.0832482,89.5647788 91.6690876,89.9476259 L93.1767518,93.06652 C93.3268978,93.3757906 93.6979197,93.5054847 94.0056569,93.3545906 C94.314635,93.2036965 94.4424453,92.8308259 94.2935401,92.5215553 L93.2387956,90.3416965 C93.954781,90.5262612 94.6931022,90.7245435 95.4512774,90.9402847 C96.1883577,91.1510376 96.9403285,91.3804965 97.6873358,91.6199318 L98.364854,94.5941671 C98.4430292,94.9296259 98.7743431,95.1391318 99.1093796,95.0630612 C99.4431752,94.9857435 99.6516423,94.6515318 99.5759489,94.3160729 L99.0659489,92.0813435 C99.914708,92.3768965 100.739891,92.6899082 101.524124,93.0166376 C101.525365,93.0191318 101.524124,93.0203788 101.525365,93.0228729 L102.181788,95.6229906 C102.267409,95.9559553 102.604927,96.1592259 102.937482,96.0731788 C103.268796,95.9883788 103.469818,95.6491788 103.385438,95.3162141 L102.964781,93.6576259 C103.721715,94.02052 104.410401,94.3971318 105.001058,94.7862141 C105.262883,94.9595553 105.616533,94.9059318 105.817555,94.6627553 C106.018577,94.4195788 106.006168,94.0616729 105.789015,93.8334612 C105.34354,93.3658141 104.873248,92.9318376 104.390547,92.5165671 L105.761715,92.3120494 C106.101715,92.2621671 106.336241,91.9454141 106.285365,91.60372 C106.23573,91.2632729 105.919307,91.0275788 105.581788,91.0787082 L103.050401,91.4540729 C102.36792,90.9564965 101.661861,90.5100494 100.945876,90.0935318 L102.336898,89.5884729 C102.659526,89.4712494 102.827044,89.1145906 102.710401,88.7903553 C102.593759,88.46612 102.237628,88.2990141 101.916241,88.4162376 L99.4866058,89.2979082 C98.2407664,88.6681435 96.9936861,88.1368965 95.8036861,87.7066612 C95.8222993,87.7016729 95.8421533,87.6979318 95.8632482,87.6941906 C96.4514234,87.5719788 97.0470438,87.44852 97.5024453,87.3574847 C97.7320073,87.3113435 97.9268248,87.2739318 98.064562,87.2477435 L98.2271168,87.2190612 L98.2631022,87.2140729 L98.2606204,87.2065906 C98.5807664,87.1804024 98.8326642,86.9197671 98.8326642,86.5930376 C98.8326642,86.2476024 98.5571898,85.9695082 98.2134672,85.9695082 C98.0980657,85.9732494 98.0918613,85.9794847 98.0285766,85.9882141 C97.6625182,86.0480729 96.494854,86.2887553 95.3904745,86.5194612 C94.5355109,86.6977906 93.7376277,86.8661435 93.4212044,86.9334847 C91.9470438,86.5044965 90.6739051,86.2239082 89.7370438,86.0468259 C91.5127372,85.1202612 93.7487956,84.6750612 95.984854,84.6775553 C98.7495255,84.6750612 101.494343,85.3472259 103.253905,86.4259318 Z M88.8535401,98.4425906 C89.5695255,99.0586376 90.2731022,99.4988494 90.825292,99.7993906 L84.9025912,103.635344 L78.9798905,99.7993906 C79.5320803,99.4988494 80.2356569,99.0586376 80.9516423,98.4425906 C82.4568248,97.1518847 84.0116423,95.0431082 84.0079197,92.0140024 L84.0079197,91.0961671 C84.0166058,89.6346141 84.3528832,88.1967553 84.9025912,86.8648965 C85.4535401,88.2042376 85.7910584,89.6508259 85.7960219,91.1211082 L85.7960219,92.0140024 C85.7935401,93.9070376 86.4015693,95.44092 87.2242701,96.6405906 C87.7168978,97.3588965 88.2889416,97.9587318 88.8535401,98.4425906 Z M78.8371898,94.5305671 C77.2228102,95.9160494 75.1393796,96.7428494 72.5658029,97.3339553 C70.3098905,97.8539788 67.7462409,97.9524965 65.4009854,98.0385435 C63.4466058,98.1158612 61.6783577,98.1869435 60.2587956,98.5248965 C60.3344891,92.5377671 63.2604745,88.5895788 66.7907664,86.4259318 C68.5503285,85.3472259 71.2939051,84.6750612 74.0585766,84.6775553 C76.2933942,84.6750612 78.5294526,85.1202612 80.3076277,86.0468259 C79.3695255,86.2239082 78.0963869,86.5044965 76.6222263,86.9334847 C76.2809854,86.8599082 75.3701825,86.6678612 74.4320803,86.4720729 C73.8426642,86.3498612 73.244562,86.2276494 72.7829562,86.13412 C72.5521533,86.0879788 72.3523723,86.04932 72.2034672,86.0218847 L72.014854,85.9882141 C71.9528102,85.9794847 71.945365,85.9732494 71.8312044,85.9695082 C71.4874818,85.9695082 71.2107664,86.2476024 71.2107664,86.5930376 C71.2107664,86.9197671 71.4639051,87.1804024 71.7815693,87.2065906 L71.7803285,87.2140729 C71.8386496,87.2203082 72.2121533,87.2913906 72.6725182,87.3836729 C73.125438,87.4759553 73.6887956,87.5906847 74.2409854,87.7066612 C73.0509854,88.1368965 71.8026642,88.6681435 70.5580657,89.2979082 L68.1284307,88.4162376 C67.8058029,88.2990141 67.4496715,88.46612 67.3330292,88.7903553 C67.2176277,89.1145906 67.3839051,89.4712494 67.7065328,89.5884729 L69.0975547,90.0935318 C68.3828102,90.5100494 67.6767518,90.9564965 66.9942701,91.4540729 L64.4616423,91.0787082 C64.1241241,91.0275788 63.8077007,91.2632729 63.7580657,91.60372 C63.7084307,91.9454141 63.9417153,92.2621671 64.2817153,92.3120494 L65.6541241,92.5165671 C65.1714234,92.9318376 64.7011314,93.3658141 64.2556569,93.8334612 C64.0385036,94.0616729 64.0260949,94.4195788 64.2283577,94.6627553 C64.4293796,94.9059318 64.7817883,94.9595553 65.044854,94.7862141 C65.6305474,94.3983788 66.325438,94.0255082 67.0761679,93.6638612 L66.6579927,95.3162141 C66.5736131,95.6491788 66.7733942,95.9883788 67.1059489,96.0731788 C67.4372628,96.1592259 67.7772628,95.9559553 67.8604015,95.6229906 L68.5193066,93.0228729 L68.5193066,93.0153906 C69.3010584,92.6886612 70.1299635,92.3793906 70.9762409,92.0838376 L70.4674818,94.3160729 C70.3917883,94.6515318 70.6002555,94.9857435 70.935292,95.0630612 C71.2678467,95.1391318 71.6016423,94.9296259 71.6773358,94.5941671 L72.354854,91.6224259 C73.6081387,91.2208729 74.8701095,90.8517435 76.0663139,90.5337435 C76.3182117,90.4664024 76.5577007,90.4065435 76.8033942,90.3429435 L75.7511314,92.5215553 C75.6009854,92.8308259 75.7287956,93.2036965 76.0377737,93.3545906 C76.3467518,93.5054847 76.7177737,93.3757906 76.8679197,93.06652 L78.3743431,89.95012 C79.3794526,89.7069435 80.2927372,89.4999318 81.0335401,89.3403082 C81.4628832,89.2480259 81.8115693,89.1756965 82.1205474,89.1133435 C81.3722993,91.5999788 80.2716423,93.2959788 78.8371898,94.5305671 Z M79.1560949,82.3767318 L79.1412044,82.3655082 C76.4336131,80.0409906 73.1912044,78.2788965 69.7403285,77.0904494 L69.7266788,77.0867082 C68.9014964,76.8248259 68.0539781,76.4993435 67.1258029,76.2860965 L67.1258029,76.2848494 C66.2621533,76.0541435 65.3786496,75.8184494 64.4541971,75.6600729 L63.1264599,75.4006847 L63.1041241,75.3969435 C62.6412774,75.32212 62.1858759,75.2709906 61.7490876,75.2098847 L61.745365,75.2098847 L58.9732482,74.8407553 C58.7077007,74.8058376 58.4458759,74.77092 58.1865328,74.7335082 L58.1803285,74.7796494 C57.7435401,74.3481671 57.264562,73.9378847 56.734708,73.5512965 C56.7185766,73.5325906 56.6974818,73.5188729 56.6776277,73.5039082 C56.5609854,73.4203553 56.4393796,73.3392965 56.3190146,73.2582376 C57.0796715,73.0861435 57.7894526,72.8616729 58.4458759,72.5860729 L58.434708,72.6883318 C58.6965328,72.7220024 58.9571168,72.7519318 59.2189416,72.7818612 L60.5764599,72.9402376 L62.0233212,73.1260494 L62.0183577,73.1260494 C62.5097445,73.1921435 62.9862409,73.2457671 63.4466058,73.3168494 L64.8674088,73.5887082 L64.8810584,73.5912024 C65.8067518,73.7458376 66.7336861,73.98652 67.6804745,74.2346847 L67.6990876,74.2396729 C68.5962409,74.4429435 69.5033212,74.7771553 70.4525912,75.0789435 C74.0970438,76.2998141 77.5578467,78.2202847 80.5260219,80.8328729 C81.335073,81.5811082 82.0858029,82.3954376 82.7682847,83.2708729 L82.7682847,86.9023082 C82.7124453,86.7963082 82.6640511,86.6878141 82.6044891,86.5843082 C82.6069708,86.57932 82.6119343,86.5768259 82.6131752,86.5718376 C82.6826642,86.3286612 82.5970438,86.0680259 82.4009854,85.9121435 C82.2756569,85.8123788 82.1391606,85.7288259 82.0088686,85.6365435 C81.2035401,84.4518376 80.2344161,83.3606612 79.1560949,82.3767318 Z M56.2917153,92.7048729 C54.2777737,94.6590141 51.5143431,96.0644494 49.2609124,96.9598376 C48.1341971,97.4087788 47.1328102,97.7330141 46.4180657,97.9450141 C46.1128102,98.0348024 45.8708394,98.1008965 45.6809854,98.1507788 C45.2168978,97.4811082 44.1373358,95.8474612 43.1098905,93.7312024 C41.9062409,91.2570376 40.7931752,88.1331553 40.7956569,85.2050612 C40.7968978,83.6512259 41.1033942,82.1584965 41.8516423,80.8091788 C43.7874088,77.3261435 46.9504015,75.5091788 49.6716423,74.5601671 C50.6469708,74.21972 51.5565328,73.9964965 52.324635,73.8456024 C52.2712774,74.30452 52.1980657,74.7908729 52.0963139,75.3171318 C51.755073,75.4817435 50.7921533,75.9568729 49.6232482,76.6178141 C48.1689416,77.4396259 46.4205474,78.5258141 45.1821533,79.6656259 C44.9302555,79.8988259 44.9128832,80.2928965 45.1461679,80.5460494 C45.3769708,80.8004494 45.7703285,80.8166612 46.0234672,80.5834612 C47.1179197,79.5683553 48.8191606,78.4983788 50.2300365,77.7040024 C50.8144891,77.3747788 51.3232482,77.1066612 51.7513504,76.8859318 C51.5341971,77.7663553 51.2723723,78.6979082 50.9882117,79.6431788 C50.5985766,79.85892 49.2435401,80.6146376 47.8028832,81.4938141 C46.9516423,82.0138376 46.0743431,82.5737671 45.3496715,83.0937906 C44.9860949,83.3544259 44.6622263,83.6050847 44.3917153,83.8420259 C44.1212044,84.0827082 43.9065328,84.2947082 43.745219,84.5590847 C43.5677737,84.8546376 43.6633212,85.2374847 43.9574088,85.4145671 C44.2514964,85.5916494 44.6324453,85.4956259 44.8086496,85.2000729 C44.8359489,85.1476965 44.9860949,84.9731082 45.2082117,84.7810612 C45.9986496,84.0827082 47.6465328,83.0314376 49.0673358,82.1846847 C49.5773358,81.8804024 50.0339781,81.6160259 50.4434672,81.3815788 C50.0898175,82.46652 49.715073,83.5464729 49.3403285,84.5765435 C49.3167518,84.6463788 49.2919343,84.7099788 49.2671168,84.7785671 C48.9966058,84.9319553 48.2719343,85.34972 47.4268978,85.8772259 C46.3572628,86.5493906 45.1213504,87.3736965 44.3532482,88.10572 C44.105073,88.3439082 44.0963869,88.7392259 44.3333942,88.9886376 C44.5704015,89.2368024 44.9625182,89.2467788 45.2106934,89.0085906 C45.8298905,88.4087553 47.0471898,87.5832024 48.0833212,86.9359788 C48.2570438,86.8274847 48.414635,86.7314612 48.5771898,86.6329435 C48.1317153,87.8076729 47.7110584,88.8764024 47.3685766,89.7231553 C46.835,91.0437906 46.4838321,91.85812 46.4838321,91.8593671 C46.354781,92.1586612 46.4763869,92.5078376 46.7630292,92.6587318 C47.0509124,92.8108729 47.404562,92.7148494 47.5782847,92.4392494 C47.5820073,92.4342612 48.8700365,90.3716259 50.5179197,87.4796965 C50.8120073,88.2840494 51.134635,89.4113906 51.1296715,90.4726376 C51.1296715,90.7370141 51.1098175,90.9951553 51.0688686,91.2445671 C51.0117883,91.5850141 51.2413504,91.9055082 51.5788686,91.9616259 C51.9176277,92.0177435 52.2365328,91.7882847 52.2923723,91.4478376 C52.3457299,91.1236024 52.3693066,90.7968729 52.3693066,90.4726376 C52.3606204,88.5796024 51.6123723,86.7938141 51.2922263,86.1041906 C51.3244891,86.0455788 51.3567518,85.9907082 51.3890146,85.9320965 C51.7575547,85.2686612 52.1335401,84.5715553 52.5107664,83.8632259 C52.8892336,84.6388965 53.344635,85.7874376 53.4364599,86.9584259 C53.4662409,87.3013671 53.7665328,87.5570141 54.1077737,87.5283318 C54.4502555,87.4996494 54.7033942,87.1978612 54.674854,86.85492 C54.5036131,84.9032729 53.6064599,83.2060259 53.2118613,82.5326141 C53.6163869,81.7494612 54.0159489,80.9575788 54.4006204,80.1644494 C54.8882847,80.9588259 55.5285766,82.1809435 55.6973358,83.3269906 C55.7494526,83.6674376 56.0658759,83.8993906 56.404635,83.8470141 C56.7421533,83.7946376 56.975438,83.4766376 56.9233212,83.1361906 C56.734708,81.9340259 56.2023723,80.8054376 55.7233942,79.9561906 C55.445438,79.4685906 55.1960219,79.0932259 55.0222993,78.8450612 C55.1873358,78.4846612 55.344927,78.1304965 55.5000365,77.7763318 C55.7109854,78.0070376 55.9393066,78.2614376 56.1701095,78.5370376 C56.5436131,78.9772494 56.8972628,79.4486376 57.0412044,79.7204965 C57.2012774,80.0247788 57.5785036,80.1395082 57.8800365,79.9773906 C58.1815693,79.81652 58.2969708,79.4374141 58.1356569,79.1343788 C57.8204745,78.5520024 57.2434672,77.86612 56.7235401,77.27252 C56.4567518,76.9732259 56.2122993,76.7088494 56.0323723,76.5192965 C56.2383577,76.0129906 56.4269708,75.5216494 56.5994526,75.0402847 C59.2909124,77.2750141 60.3779197,80.1432494 60.3903285,83.0775788 C60.395292,86.6940494 58.7027372,90.3766141 56.2917153,92.7048729 Z M27.0604015,63.4526141 L27.0566788,63.4513671 C23.8080657,61.54212 20.7033942,59.3859553 17.7488686,57.0564494 L17.745146,57.0527082 C17.5404015,56.8943318 17.3443431,56.7259788 17.1408394,56.5663553 L17.7910584,56.9903553 L17.7985036,56.9953435 C18.3866788,57.3682141 18.9810584,57.7336024 19.5729562,58.0989906 C19.5791606,58.1039788 19.5841241,58.1064729 19.5903285,58.1102141 C21.394562,59.2238376 23.2186496,60.3087788 25.0812044,61.3251318 L25.0812044,61.3263788 C25.8890146,61.7665906 26.7030292,62.1968259 27.5257299,62.6120965 C28.435292,63.0797435 29.3485766,63.5336729 30.2668248,63.9776259 C30.2742701,63.98012 30.2804745,63.9838612 30.2866788,63.9863553 C32.0871898,64.8555553 33.9112774,65.6698847 35.7601825,66.4243553 C35.7837591,66.4380729 35.8073358,66.4430612 35.8321533,66.4530376 C36.4625182,66.7099318 37.0928832,66.9680729 37.7294526,67.2087553 L37.7244891,67.2075082 C41.1927372,68.5555788 44.7267518,69.7303082 48.3116423,70.6917906 C49.0884307,70.8963082 49.8689416,71.0871082 50.6494526,71.2704259 C51.3344161,71.7929435 51.9709854,72.2069671 52.5256569,72.5424259 C51.8109124,72.6658847 50.954708,72.8566847 50.0104015,73.1447553 C49.3899635,72.9776494 48.4022263,72.6746141 47.8140511,72.5075082 C40.5214234,70.4199318 33.5464599,67.3222376 27.0604015,63.4526141 Z M27.9699635,69.7939082 C25.015438,69.7914141 21.7122263,69.2052965 18.1682847,67.0054847 C13.6639051,64.2095788 9.93507299,59.4956965 7.08105839,55.3180494 C5.65281022,53.2292259 4.44171533,51.2775788 3.44281022,49.7599082 C2.94273723,49.0004494 2.4960219,48.3494847 2.09149635,47.8356965 C2.01208029,47.7359318 1.94135036,47.6660965 1.86565693,47.5763082 C6.08711679,46.4414847 10.2068248,45.8828024 14.025,45.8828024 C20.4155109,45.8803082 25.9709124,47.3767788 29.7965328,49.9744024 C33.8293796,52.7067082 35.974854,56.7908259 37.5060949,60.4896024 C38.2729562,62.3377435 38.8809854,64.0811318 39.5138321,65.5102612 C39.7210584,65.9716729 39.9320073,66.3894376 40.1504015,66.7847553 C39.4902555,66.5428259 38.8301095,66.2996494 38.1724453,66.0440024 L38.1674818,66.0427553 C37.6363869,65.8419788 37.1114964,65.6249906 36.585365,65.4117435 C36.4041971,64.7807318 35.945073,63.2418612 35.2960949,61.4598141 C34.4423723,59.1303082 33.2970438,56.4167082 31.9494526,54.7468965 C31.7335401,54.4800259 31.3426642,54.44012 31.0771168,54.6583553 C30.8115693,54.8753435 30.7718613,55.2681671 30.9890146,55.5350376 C32.1504745,56.9566847 33.3082117,59.6179082 34.1309124,61.8888024 C34.5404015,63.0148965 34.8741971,64.0487082 35.1087226,64.8056729 C33.7598905,64.2332729 32.424708,63.6272024 31.0994526,62.9924494 C30.9592336,62.1843553 30.4777737,60.1441671 29.7121533,57.8770141 C28.9080657,55.5188259 27.834708,52.9698376 26.4399635,51.4147553 C26.2091606,51.1603553 25.8170438,51.1416494 25.5626642,51.3723553 C25.3107664,51.6043082 25.2921533,51.9983788 25.5217153,52.2540259 C26.765073,53.61332 27.9128832,56.3294141 28.6884307,58.7324965 C29.0793066,59.9359082 29.3895255,61.0657435 29.5979927,61.92372 C29.6327372,62.0608965 29.6587956,62.17812 29.6873358,62.3003318 C29.155,62.0359553 28.6201825,61.7740729 28.0903285,61.5009671 L28.0866058,61.4984729 C27.3644161,61.1343318 26.6484307,60.7539788 25.9361679,60.3686376 C25.7860219,59.7725435 25.3914234,58.2486376 24.8541241,56.4877906 C24.1604745,54.2231318 23.2608394,51.6180259 22.2941971,50.07292 C22.1105474,49.7823553 21.7271168,49.6963082 21.4379927,49.8808729 C21.1488686,50.0654376 21.0620073,50.4495318 21.2468978,50.7413435 C22.0782847,52.0495082 22.995292,54.6371553 23.6678467,56.8519318 C23.9780657,57.8707788 24.2398905,58.8060729 24.4334672,59.5306141 C23.1193796,58.78612 21.8139781,58.0179318 20.5197445,57.2223082 C20.4465328,56.7584024 20.2802555,55.7869435 20.0035401,54.6059788 C19.615146,52.9611082 19.0269708,50.9358847 18.1496715,49.3446376 C17.9821533,49.0428494 17.6036861,48.9343553 17.304635,49.1014612 C17.0055839,49.2685671 16.8976277,49.64892 17.0639051,49.9494612 C17.8431752,51.3536494 18.425146,53.3077906 18.7961679,54.8928024 C18.9227372,55.4302847 19.0232482,55.9203788 19.1039051,56.3418847 C18.8879927,56.2059553 18.6733212,56.0750141 18.4586496,55.9403318 L16.2883577,54.5186847 C16.1456569,54.1420729 15.8006934,53.2441906 15.3986496,52.2452965 C14.8675547,50.9234141 14.2570438,49.45812 13.8401095,48.7198612 C13.6688686,48.4205671 13.2904015,48.3170612 12.9925912,48.4866612 C12.6960219,48.6575082 12.5917883,49.0391082 12.7617883,49.3384024 C13.1005474,49.9307553 13.7296715,51.4160024 14.2483577,52.7116965 C14.3203285,52.8887788 14.3885766,53.0608729 14.4543431,53.2292259 L13.845073,52.7977435 L13.8277007,52.7852729 C12.2989416,51.7764024 10.8731752,50.5667553 9.30718978,49.4481435 C9.04412409,49.2610847 8.6830292,49.3059788 8.47456204,49.5528965 C8.26609489,49.7998141 8.2809854,50.1639553 8.50558394,50.3946612 C10.174562,52.0919082 11.9068248,53.7417671 13.7110584,55.3217906 C13.5695985,55.3242847 13.4355839,55.3292729 13.2866788,55.3292729 C12.795292,55.3292729 12.2741241,55.3118141 11.8087956,55.2619318 C11.3459489,55.2145435 10.935219,55.1260024 10.7044161,55.0249906 C10.3867518,54.8915553 10.0231752,55.0412024 9.89040146,55.3579553 C9.75762774,55.6759553 9.90653285,56.0413435 10.2217153,56.1747788 C10.6535401,56.3543553 11.1474088,56.4428965 11.6785036,56.5015082 C12.2071168,56.5576259 12.7667518,56.5763318 13.2866788,56.5763318 C14.0634672,56.5763318 14.744708,56.5351788 15.0933942,56.5102376 C15.7138321,57.0290141 16.3417153,57.5415553 16.9832482,58.0366376 L16.9832482,58.0378847 C17.4932482,58.4394376 18.0156569,58.8297671 18.5355839,59.2225906 C17.3306934,59.1764494 15.6828102,58.9931318 14.1230292,58.4381906 C13.7991606,58.3247082 13.4455109,58.4955553 13.3313504,58.8197906 C13.2171898,59.1440259 13.3871898,59.5006847 13.7110584,59.6154141 C15.8118613,60.3586612 17.9560949,60.4846141 19.2428832,60.4858612 C19.6883577,60.4858612 20.0134672,60.4696494 20.2157299,60.4584259 C21.2990146,61.2365906 22.3996715,61.9935553 23.5201825,62.7205906 C22.7855839,62.6856729 21.9517153,62.6357906 21.1029562,62.5547318 C19.6933212,62.4225435 18.2613504,62.2030612 17.3840511,61.8950376 C17.0589416,61.7840494 16.7065328,61.9561435 16.594854,62.2816259 C16.4819343,62.6071082 16.6544161,62.9612729 16.9782847,63.0747553 C18.405292,63.5648494 20.5631752,63.7855788 22.414562,63.9090376 C23.9358759,64.0075553 25.2139781,64.0287553 25.624708,64.0337435 C25.8939781,64.1958612 26.1570438,64.3667082 26.4287956,64.5250847 C27.5505474,65.1947553 28.6921533,65.8320024 29.8424453,66.4555318 C28.8323723,66.4355788 27.625,66.3844494 26.4139051,66.2647318 C24.7412044,66.1026141 23.0697445,65.7970847 22.024927,65.3207082 C21.7122263,65.1797906 21.344927,65.3194612 21.204708,65.63372 C21.0632482,65.9479788 21.2034672,66.3171082 21.5161679,66.4580259 C22.805438,67.0366612 24.5525912,67.3322141 26.2922993,67.5055553 C28.0307664,67.6776494 29.7481387,67.7138141 30.9120803,67.7138141 C31.5424453,67.7138141 32.0003285,67.7025906 32.2162409,67.6963553 C33.1506204,68.1677435 34.0936861,68.6216729 35.0441971,69.0618847 C33.0501095,69.2950847 30.6725912,69.7976494 27.9699635,69.7939082 Z M45.475,59.8648259 C45.475,58.4868259 45.8435401,57.1337671 46.4341971,55.8343318 C47.1799635,56.4803082 47.9567518,57.1000965 48.7633212,57.6986847 C48.6777007,57.8258847 48.6379927,57.9842612 48.665292,58.1476259 C48.7198905,58.4519082 48.845219,58.7287553 49.0114964,59.0517435 C49.5897445,60.1553906 50.7561679,61.7279318 51.7960219,63.0647788 C52.6534672,64.1659318 53.4104015,65.0787788 53.6498905,65.3668494 C53.5766788,66.3532729 53.4798905,67.3110141 53.3657299,68.2113906 C52.2737591,66.9755553 50.284635,64.5899318 49.3564599,62.6806847 C49.205073,62.3726612 48.8328102,62.2454612 48.5263139,62.3976024 C48.2185766,62.5497435 48.0932482,62.9226141 48.244635,63.2318847 C48.9866788,64.7445671 50.225073,66.3931788 51.2860219,67.6876259 C52.1397445,68.7314141 52.8693796,69.5257906 53.1262409,69.8013906 C53.0319343,70.3301435 52.9239781,70.80652 52.8085766,71.2529671 C52.3258759,70.9474376 51.7885766,70.5758141 51.2264599,70.1368494 L51.2289416,70.12812 C51.2227372,70.12812 51.2165328,70.1256259 51.2103285,70.1243788 C50.8703285,69.8587553 50.5266058,69.5781671 50.1791606,69.2626612 C48.1143431,67.3883318 46.0693796,64.6597671 45.5531752,60.9560024 C45.5022993,60.58812 45.4762409,60.2252259 45.475,59.8648259 Z M36.8298175,42.8000729 C32.8441241,37.2282141 30.2966058,34.6754847 28.8758029,33.5119788 C29.8027372,33.3922612 31.0882847,33.2712965 32.5822993,33.2712965 C35.1509124,33.2688024 38.2766788,33.6329435 41.0760949,34.9174141 C41.0785766,34.9186612 41.0810584,34.9199082 41.0835401,34.9211553 C42.0266058,35.3538847 42.9299635,35.89012 43.7638321,36.5535553 C46.9603285,39.0813435 49.6555109,42.6604024 52.2104745,45.6471082 C53.4922993,47.1410847 54.7381387,48.4879082 56.0323723,49.4855553 C57.3216423,50.4794612 58.6878467,51.1404024 60.1731752,51.1416494 C61.6944891,51.1391553 63.0023723,50.3609906 64.3313504,49.2311553 C66.3304015,47.5251788 68.4969708,44.9288024 71.6934672,42.1615788 C74.8477737,39.4317671 78.9960219,36.5360965 84.9063139,34.2016024 C92.8082117,37.3254847 97.5533212,41.4495082 100.996752,44.8452494 C102.735219,46.5612024 104.13865,48.0925906 105.473832,49.2311553 C106.801569,50.3609906 108.110693,51.1391553 109.632007,51.1416494 C111.118577,51.1404024 112.482299,50.4794612 113.77281,49.4855553 C115.711058,47.9890847 117.555,45.7069671 119.542883,43.3213435 C121.527044,40.93572 123.645219,38.4490847 126.040109,36.5535553 C126.873978,35.89012 127.777336,35.3538847 128.719161,34.9211553 C128.722883,34.9199082 128.726606,34.9186612 128.730328,34.9161671 C131.529745,33.6329435 134.653029,33.2688024 137.222883,33.2712965 C138.710693,33.2712965 140.003686,33.3910141 140.93062,33.5119788 C139.511058,34.6742376 136.96354,37.2269671 132.974124,42.8000729 C126.542664,51.7863788 120.456168,58.9232965 108.444489,62.6008729 C107.321496,62.9450612 106.246898,63.3092024 105.20208,63.6845671 C105.199599,63.6845671 105.195876,63.6845671 105.192153,63.6845671 C105.179745,63.6870612 105.171058,63.6970376 105.15865,63.7007788 C103.632372,64.2494847 102.194197,64.8256259 100.836679,65.4192259 C100.846606,65.3506376 100.851569,65.2820494 100.836679,65.2122141 L100.165365,61.8576259 C100.651788,61.6393906 101.158066,61.4261435 101.668066,61.2141435 L102.176825,63.7456729 C102.242591,64.0836259 102.570182,64.3018612 102.90646,64.2332729 C103.242737,64.1659318 103.459891,63.8367082 103.391642,63.5000024 L102.836971,60.7290376 C103.327117,60.5357435 103.844562,60.3499318 104.355803,60.1628729 L104.731788,62.0334612 C104.800036,62.3714141 105.127628,62.5908965 105.462664,62.5223082 C105.798942,62.45372 106.016095,62.1257435 105.949088,61.7877906 L105.537117,59.7376259 C106.038431,59.5655318 106.554635,59.3984259 107.075803,59.2325671 L107.285511,60.3175082 C107.351277,60.6554612 107.676387,60.8774376 108.012664,60.8113435 C108.348942,60.7464965 108.568577,60.41852 108.50281,60.0805671 L108.264562,58.8384965 C108.893686,58.63772 109.512883,58.4294612 110.109745,58.2074847 C110.122153,58.2049906 110.13208,58.1987553 110.143248,58.1950141 C111.652153,57.6325906 113.056825,57.00532 114.383321,56.3206847 C114.42427,56.3069671 114.457774,56.2832729 114.493759,56.2608259 C117.661715,54.6134612 120.349453,52.6318847 122.751788,50.3859318 C122.770401,50.3659788 122.795219,50.3522612 122.81135,50.3298141 C123.897117,49.3134612 124.929526,48.2484729 125.916022,47.1323553 C125.918504,47.1298612 125.919745,47.1286141 125.920985,47.1273671 C127.984562,44.7953671 129.883102,42.2625906 131.785365,39.5888965 C131.985146,39.3095553 131.91938,38.9192259 131.642664,38.7184494 C131.363467,38.51892 130.977555,38.5837671 130.776533,38.8631082 C129.428942,40.7548965 128.091277,42.5544024 126.711423,44.2578847 C126.849161,43.4934376 126.958358,42.6454376 126.960839,41.8099082 C126.960839,41.4694612 126.942226,41.1327553 126.902518,40.8060259 C126.861569,40.4643318 126.55135,40.2211553 126.212591,40.2635553 C125.87135,40.3047082 125.63062,40.6152259 125.671569,40.95692 C125.705073,41.2287788 125.719964,41.5156024 125.719964,41.8099082 C125.721204,42.8848729 125.509015,44.0745671 125.295584,44.9836729 C125.188869,45.4388494 125.080912,45.8241906 125.000255,46.0948024 C124.961788,46.2244965 124.930766,46.3255082 124.90719,46.3965906 C124.402153,46.9652494 123.883467,47.5164494 123.354854,48.0576729 C123.537263,47.0687553 123.707263,45.8927788 123.710985,44.9250612 C123.710985,44.66692 123.697336,44.4237435 123.670036,44.1967788 C123.627847,43.8550847 123.317628,43.6119082 122.976387,43.6543082 C122.637628,43.6979553 122.396898,44.0084729 122.439088,44.3514141 C122.457701,44.5147788 122.470109,44.7105671 122.470109,44.9250612 C122.47135,45.8204494 122.285219,47.0600259 122.094124,48.0539318 C121.998577,48.5515082 121.903029,48.99172 121.832299,49.3059788 C121.802518,49.4356729 121.780182,49.5292024 121.761569,49.6102612 C121.030693,50.2874141 120.277482,50.94212 119.488285,51.5656494 C119.747628,50.6789906 119.995803,49.6663788 119.998285,48.7984259 C119.998285,48.5415318 119.975949,48.2983553 119.915146,48.0651553 C119.830766,47.7321906 119.493248,47.5301671 119.161934,47.6162141 C118.82938,47.7022612 118.629599,48.0414612 118.71646,48.3744259 C118.740036,48.4741906 118.75865,48.6213435 118.75865,48.7984259 C118.762372,49.4855553 118.500547,50.58172 118.226314,51.4608965 C118.091058,51.9036024 117.953321,52.29892 117.850328,52.5807553 C117.81062,52.6942376 117.780839,52.7728024 117.75354,52.8451318 C116.97427,53.3863553 116.163978,53.9051318 115.315219,54.3952259 C115.482737,53.8178376 115.62792,53.1706141 115.630401,52.5520729 C115.630401,52.34132 115.611788,52.1355553 115.568358,51.9372729 C115.493905,51.6005671 115.162591,51.3885671 114.828796,51.4633906 C114.493759,51.5382141 114.28281,51.8711788 114.358504,52.2066376 C114.378358,52.29892 114.389526,52.4173906 114.389526,52.5520729 C114.394489,53.0708494 114.205876,53.8340494 114.007336,54.4338847 C113.909307,54.73692 113.810036,55.0025435 113.735584,55.1896024 L113.704562,55.2694141 C112.893029,55.6834376 112.054197,56.0775082 111.174416,56.4466376 C111.217847,56.3306612 111.269964,56.2234141 111.30719,56.1036965 C111.401496,55.8019082 111.475949,55.5013671 111.47719,55.1808729 C111.47719,54.9975553 111.451131,54.8042612 111.358066,54.6072259 C111.209161,54.2967082 110.838139,54.1670141 110.529161,54.3166612 C110.226387,54.4625671 110.099818,54.8254612 110.236314,55.1309906 L110.233832,55.1322376 L110.235073,55.1384729 L110.237555,55.1808729 C110.238796,55.2806376 110.199088,55.4938847 110.124635,55.7245906 C110.014197,56.0750141 109.83427,56.4778141 109.682883,56.7833435 C109.620839,56.9130376 109.568723,57.0115553 109.52281,57.0988494 C108.82792,57.3532494 108.111934,57.5964259 107.371131,57.8233906 C107.12792,57.8982141 106.903321,57.98052 106.663832,58.0578376 C106.820182,57.5315788 106.970328,56.9317435 106.974051,56.3456259 L106.971569,56.24212 C106.971569,55.8979318 106.693613,55.6185906 106.352372,55.6185906 C106.00865,55.6185906 105.733175,55.8979318 105.733175,56.24212 L105.733175,56.3456259 C105.736898,56.7596494 105.585511,57.3981435 105.421715,57.9019553 C105.339818,58.1551082 105.260401,58.3783318 105.199599,58.5367082 L105.197117,58.5404494 C105.042007,58.5940729 104.874489,58.6439553 104.72062,58.6975788 C104.713175,58.7000729 104.704489,58.6963318 104.695803,58.6975788 C104.657336,58.7063082 104.627555,58.7275082 104.594051,58.7412259 C98.8128102,60.7888965 94.2922993,63.2755318 90.9977737,65.4491553 C91.8341241,64.1335082 92.9608394,62.5746847 94.1458759,61.5807788 C95.9166058,60.0818141 97.9491606,58.8459788 99.5958029,57.2210612 C101.244927,55.6048729 102.484562,53.5172965 102.492007,50.5231082 C102.494489,50.17892 102.219015,49.8983318 101.876533,49.8958376 C101.535292,49.8933435 101.254854,50.1701906 101.253613,50.5143788 C101.225073,53.16812 100.221204,54.8366847 98.7259489,56.3331553 C97.2282117,57.8196494 95.2167518,59.0517435 93.3479927,60.6255318 C91.995438,61.7703318 90.8116423,63.4164494 89.9405474,64.7844729 C89.7221533,65.1274141 89.5260949,65.4528965 89.3523723,65.7484494 L88.8262409,63.1258847 C89.2468978,62.4050847 90.8935401,59.7313906 92.6406934,58.1401435 C94.0242701,56.8706376 95.6212774,55.7669906 96.9155109,54.3216494 C98.2097445,52.8837906 99.175146,51.0431318 99.165219,48.4879082 L99.165219,48.4255553 C99.1739051,48.0813671 98.9033942,47.7957906 98.5609124,47.7870612 C98.2171898,47.7795788 97.9342701,48.0514376 97.9268248,48.3956259 L97.9255839,48.4879082 C97.9168978,50.7338612 97.145073,52.1854376 95.9922993,53.4898612 C94.8382847,54.7880494 93.2735401,55.8792259 91.8055839,57.21732 C90.4517883,58.4606376 89.2357299,60.1666141 88.4701095,61.3475788 L87.925365,58.6364729 C87.965073,58.5791082 87.9998175,58.53172 88.0556569,58.4531553 C88.595438,57.6986847 89.8524453,56.0076729 91.1429562,54.6920259 C92.1431022,53.6656965 93.2971168,52.6992259 94.2290146,51.4496729 C95.1609124,50.2038612 95.844635,48.6412965 95.8396715,46.5661906 L95.8371898,46.2980729 C95.834708,45.9538847 95.5542701,45.6770376 95.2117883,45.6795318 C94.8705474,45.6820259 94.5938321,45.9626141 94.5963139,46.3068024 L94.5987956,46.5661906 C94.5925912,48.3731788 94.0466058,49.6027788 93.235073,50.7039318 C92.4222993,51.8013435 91.3179197,52.7378847 90.2582117,53.8165906 C89.2233212,54.8753435 88.2541971,56.1024494 87.5940511,56.9828729 L87.0306934,54.1757435 C87.4898175,53.6943788 88.5817883,52.5283788 89.655146,51.2289435 C90.2917153,50.4532729 91.0077007,49.6302141 91.5698175,48.5939082 C92.1319343,47.5588494 92.5265328,46.3043082 92.5240511,44.7367553 C92.5240511,44.5459553 92.5166058,44.3564024 92.5091606,44.1656024 C92.4930292,43.8226612 92.2026642,43.5557906 91.8601825,43.5720024 C91.5189416,43.5882141 91.254635,43.8800259 91.2707664,44.2229671 C91.2769708,44.4037906 91.2831752,44.5746376 91.2831752,44.7367553 C91.2806934,46.0997906 90.9568248,47.1099082 90.4790876,47.9978141 C90.0001095,48.8844729 89.3523723,49.6439318 88.6996715,50.43332 C88.0184307,51.2576259 87.3210584,52.0370376 86.7936861,52.6081906 C86.7713504,52.6331318 86.7527372,52.6518376 86.7291606,52.6767788 L86.1533942,49.79732 C86.504562,49.5903082 87.0033942,49.2373906 87.5084307,48.6612494 C88.3968978,47.6536259 89.2568248,45.9638612 89.2531022,43.3961671 C89.2531022,42.9621906 89.2282847,42.5057671 89.1786496,42.0231553 C89.1439051,41.6802141 88.8386496,41.4308024 88.4986496,41.4669671 C88.1574088,41.5018847 87.9104745,41.8074141 87.945219,42.1491082 C87.9898905,42.5955553 88.0122263,43.0108259 88.0122263,43.3961671 C88.0072628,45.6895082 87.2776277,47.0313435 86.5765328,47.8369435 C86.3308394,48.1187788 86.1000365,48.3120729 85.8866058,48.4704494 L84.9025912,43.56452 L83.9185766,48.4692024 C83.6865328,48.2958612 83.4284307,48.0776259 83.1616423,47.7596259 C82.4828832,46.9452965 81.795438,45.6171788 81.7917153,43.39492 C81.7929562,43.0070847 81.8115693,42.5943082 81.8612044,42.1540965 C81.8971898,41.8111553 81.6514964,41.5043788 81.3102555,41.4669671 C80.9714964,41.4295553 80.665,41.6764729 80.6265328,42.0181671 C80.5731752,42.50452 80.5508394,42.9621906 80.5520803,43.39492 C80.5471168,45.9626141 81.4070438,47.6523788 82.2967518,48.6612494 C82.8005474,49.2361435 83.2993796,49.5890612 83.6517883,49.7960729 L83.074781,52.6742847 C82.5399635,52.0981435 81.8190146,51.2962847 81.1067518,50.4320729 C80.455292,49.6439318 79.805073,48.8844729 79.3260949,47.9965671 C78.8458759,47.1086612 78.5207664,46.0972965 78.5182847,44.7330141 C78.5182847,44.5684024 78.5232482,44.4037906 78.5356569,44.2379318 C78.5579927,43.8937435 78.2998905,43.5969435 77.9586496,43.5732494 C77.6174088,43.5495553 77.3208394,43.8076965 77.2972628,44.1506376 C77.2823723,44.3539082 77.2786496,44.5484494 77.2786496,44.7330141 C77.2761679,46.3030612 77.6720073,47.5576024 78.235365,48.5939082 C78.7974818,49.6302141 79.5134672,50.4532729 80.1525182,51.2289435 C81.2233942,52.5271318 82.3141241,53.6918847 82.7744891,54.1744965 L82.2111314,56.9816259 C81.5509854,56.1012024 80.5806204,54.8753435 79.5482117,53.8165906 C78.4872628,52.7378847 77.3816423,51.8000965 76.5688686,50.7026847 C75.7573358,49.6027788 75.2101095,48.3731788 75.2039051,46.5661906 L75.2076277,46.3280024 C75.2225182,45.9838141 74.9557299,45.6932494 74.6144891,45.6795318 C74.2720073,45.6658141 73.9828832,45.9326847 73.9692336,46.2768729 L73.9642701,46.5661906 C73.9568248,48.6412965 74.6405474,50.2038612 75.574927,51.4496729 C76.5068248,52.6992259 77.6633212,53.6656965 78.6634672,54.6920259 C79.5221533,55.5687082 80.3684307,56.6137435 80.995073,57.4343082 C81.3102555,57.8458376 81.5695985,58.2012494 81.7495255,58.4519082 C81.8066058,58.53172 81.8388686,58.5791082 81.8798175,58.6352259 L81.3363139,61.3463318 C80.5694526,60.1666141 79.3533942,58.4606376 77.9995985,57.21732 C76.5316423,55.8792259 74.9681387,54.7880494 73.8128832,53.4898612 C72.6601095,52.1854376 71.8870438,50.7351082 71.8808394,48.4904024 L71.8808394,48.4542376 L71.8808394,48.4529906 C71.9019343,48.1100494 71.645073,47.8120024 71.3038321,47.7883082 C70.9613504,47.7646141 70.6660219,48.0240024 70.6412044,48.3681906 L70.6399635,48.4904024 C70.6312774,51.0456259 71.5941971,52.8850376 72.8896715,54.3228965 C74.1839051,55.7669906 75.7809124,56.8706376 77.1644891,58.1401435 C78.1820073,59.0679553 79.1771898,60.3736259 79.9043431,61.4386141 C80.2679197,61.9723553 80.5682117,62.4462376 80.775438,62.7854376 C80.8635401,62.9300965 80.9268248,63.0360965 80.9789416,63.1258847 L80.4528102,65.7484494 C80.2790876,65.4528965 80.0817883,65.1274141 79.864635,64.7844729 C78.9935401,63.4164494 77.8097445,61.7703318 76.4584307,60.6255318 C74.5871898,59.0517435 72.5757299,57.8196494 71.0804745,56.3331553 C69.5839781,54.8366847 68.5813504,53.16812 68.5528102,50.5143788 C68.5503285,50.1701906 68.2711314,49.8933435 67.9298905,49.8958376 C67.5874088,49.8983318 67.3119343,50.17892 67.3144161,50.5231082 C67.3218613,53.5172965 68.5614964,55.6048729 70.2093796,57.2210612 C71.8560219,58.8459788 73.8898175,60.0818141 75.6605474,61.5807788 C76.8393796,62.5709435 77.9871898,64.1422376 78.8173358,65.4541435 C75.5228102,63.28052 71.0010584,60.7913906 65.2123723,58.7424729 C65.1788686,58.7275082 65.1478467,58.7063082 65.1093796,58.6975788 C65.1019343,58.6963318 65.0920073,58.6988259 65.0833212,58.6975788 C64.9294526,58.6439553 64.7631752,58.5940729 64.6068248,58.5404494 C64.5323723,58.3434141 64.4231752,58.04412 64.3239051,57.7074141 C64.1824453,57.2435082 64.0695255,56.7060259 64.0720073,56.3456259 L64.0720073,56.2857671 C64.0955839,55.9428259 63.8387226,55.6447788 63.4974818,55.6198376 C63.155,55.5948965 62.8596715,55.8542847 62.834854,56.1972259 L62.8311314,56.3456259 C62.8336131,56.9317435 62.9837591,57.5315788 63.1413504,58.0565906 C62.9006204,57.98052 62.6785036,57.8982141 62.4340511,57.8233906 C61.6944891,57.5964259 60.9772628,57.3532494 60.2836131,57.0988494 C60.1818613,56.9080494 60.0267518,56.60252 59.8865328,56.2708024 C59.6991606,55.8517906 59.5589416,55.3629435 59.5663869,55.1808729 L59.5701095,55.1322376 L59.5663869,55.1309906 C59.6991606,54.8316965 59.585,54.4775318 59.2921533,54.3253906 C58.9881387,54.1657671 58.6133942,54.2842376 58.4558029,54.5910141 C58.3466058,54.8042612 58.3279927,55.0050376 58.3267518,55.1808729 C58.3279927,55.5013671 58.4024453,55.8019082 58.4967518,56.1036965 C58.5339781,56.2159318 58.5736861,56.3294141 58.6158759,56.4404024 C57.7410584,56.0737671 56.9071898,55.6809435 56.1006204,55.2694141 C56.0100365,55.0412024 55.8598905,54.65212 55.7233942,54.2019318 C55.5521533,53.6482376 55.4106934,53.0047553 55.4131752,52.5520729 C55.4131752,52.4124024 55.4268248,52.2976729 55.445438,52.2191082 C55.5260949,51.8848965 55.3225912,51.5469435 54.9875547,51.4658847 C54.6562409,51.3848259 54.3199635,51.5905906 54.2393066,51.9248024 C54.1884307,52.1368024 54.1735401,52.3463082 54.1735401,52.5520729 C54.1760219,53.1693671 54.3212044,53.8178376 54.4887226,54.3952259 C53.6399635,53.9038847 52.8296715,53.3863553 52.0504015,52.8438847 C52.0243431,52.7715553 51.9933212,52.6942376 51.9536131,52.5807553 C51.7997445,52.1567553 51.5677007,51.4796024 51.3790876,50.7700259 C51.1879927,50.0629435 51.0440511,49.3109671 51.045292,48.7984259 C51.045292,48.6176024 51.0626642,48.4729435 51.0887226,48.3844024 C51.1780657,48.0526847 50.9844891,47.7097435 50.6544161,47.6187082 C50.3231022,47.5276729 49.9818613,47.7234612 49.8912774,48.0551788 C49.8255109,48.2996024 49.8056569,48.5452729 49.8056569,48.7984259 C49.8081387,49.6663788 50.0563139,50.6789906 50.3156569,51.5644024 C49.5277007,50.94212 48.7757299,50.2874141 48.0460949,49.6115082 C48.0262409,49.5304494 48.0026642,49.43692 47.9741241,49.3059788 C47.7582117,48.3706847 47.3313504,46.2768729 47.3338321,44.9275553 C47.3338321,44.7080729 47.345,44.5135318 47.3673358,44.3601435 C47.4144891,44.0184494 47.1762409,43.7041906 46.8374818,43.6555553 C46.4974818,43.6081671 46.1860219,43.8463553 46.1376277,44.1868024 C46.105365,44.4249906 46.0941971,44.6719082 46.0941971,44.9275553 C46.0979197,45.8952729 46.2679197,47.0700024 46.4490876,48.0576729 C45.9229562,47.5164494 45.4030292,46.9640024 44.8955109,46.3953435 C44.7304745,45.8815553 44.0790146,43.6879788 44.0839781,41.8136494 C44.0839781,41.5156024 44.0988686,41.2300259 44.1336131,40.9644024 C44.1782847,40.6239553 43.9412774,40.3096965 43.6012774,40.2648024 C43.2625182,40.2186612 42.9498175,40.4580965 42.905146,40.7985435 C42.8604745,41.1340024 42.8431022,41.4744494 42.8431022,41.8136494 C42.8455839,42.6479318 42.9535401,43.4934376 43.0925182,44.2553906 C41.7126642,42.5531553 40.3774818,40.7536494 39.0286496,38.8631082 C38.8288686,38.58252 38.4417153,38.51892 38.1637591,38.7184494 C37.884562,38.9192259 37.8200365,39.3095553 38.0198175,39.5888965 C39.9233212,42.2625906 41.8206204,44.7953671 43.8829562,47.12612 C43.885438,47.1286141 43.8866788,47.1298612 43.8879197,47.1323553 C44.8768978,48.24972 45.9105474,49.3147082 46.995073,50.3310612 C47.0012774,50.3397906 47.0099635,50.3447788 47.0161679,50.3522612 C49.4284307,52.6119318 52.1285766,54.6047318 55.3101825,56.2620729 C55.3474088,56.2832729 55.3833942,56.3069671 55.4218613,56.3206847 C56.7483577,57.00532 58.1555109,57.6350847 59.6656569,58.1962612 C59.6768248,58.2000024 59.6855109,58.2049906 59.6966788,58.2087318 C60.2935401,58.4307082 60.9114964,58.63772 61.5418613,58.8384965 L61.3011314,60.0805671 C61.235365,60.41852 61.4562409,60.7464965 61.7937591,60.8113435 C62.1287956,60.8774376 62.455146,60.6554612 62.5209124,60.3175082 L62.7293796,59.2338141 C63.2493066,59.3984259 63.7655109,59.5680259 64.2680657,59.7413671 L63.8585766,61.7877906 C63.7903285,62.1257435 64.0087226,62.45372 64.3425182,62.5223082 C64.6800365,62.5908965 65.0063869,62.3714141 65.074635,62.0334612 L65.4493796,60.1616259 C65.9631022,60.3511788 66.4731022,60.5407318 66.9682117,60.7340259 L66.4122993,63.5000024 C66.345292,63.8367082 66.5624453,64.1659318 66.8974818,64.2332729 C67.2337591,64.3018612 67.5613504,64.0836259 67.6295985,63.7456729 L68.1358759,61.2141435 C68.6433942,61.4248965 69.1571168,61.6356494 69.6410584,61.8526376 L68.9685036,65.2122141 C68.954854,65.2820494 68.9598175,65.3506376 68.9685036,65.4192259 C67.6122263,64.8268729 66.1740511,64.2494847 64.6490146,63.7020259 C64.6366058,63.6970376 64.6266788,63.6870612 64.6142701,63.6845671 C64.6093066,63.6845671 64.6068248,63.6845671 64.6031022,63.6845671 C63.5582847,63.3092024 62.4836861,62.9450612 61.3619343,62.6008729 C49.3502555,58.9232965 43.2625182,51.7863788 36.8298175,42.8000729 Z M41.4260219,26.9574376 L48.6268248,29.8294141 C48.5697445,30.5539553 48.5312774,31.2672729 48.5312774,31.9568965 C48.5337591,35.7180259 49.3241971,38.9192259 50.1667518,41.2811553 C48.4630292,39.2696494 46.6277737,37.2344494 44.5319343,35.5746141 C43.6955839,34.9124259 42.7996715,34.3799318 41.8814234,33.9347318 L41.4260219,26.9574376 Z M53.0567518,20.7570612 C53.354562,20.9254141 53.7330292,20.8194141 53.9005474,20.52012 C54.0693066,20.2195788 53.9625912,19.8392259 53.664781,19.6708729 C52.0677737,18.7655082 51.0887226,17.4224259 50.5067518,16.2900965 C50.2176277,15.7251788 50.0277737,15.2163788 49.9123723,14.8534847 C49.8565328,14.6726612 49.8168248,14.5280024 49.7944891,14.4294847 L49.7721533,14.3421906 L49.7721533,8.29894353 C50.8293796,6.28868471 52.1360219,4.97054353 53.3992336,4.13252 C54.684781,3.27703765 55.9331022,2.91539059 56.7694526,2.82809647 C57.0176277,2.80190824 57.2980657,2.78569647 57.6008394,2.78569647 C58.7796715,2.78444941 60.2736861,3.02513176 61.585292,3.71724941 C62.8968978,4.41310824 64.0322993,5.52299059 64.6291606,7.36364941 C65.0895255,8.80150824 65.2421533,10.1371082 65.2433942,11.2806612 C65.2433942,12.4242141 65.0895255,13.3744729 64.9368978,14.03292 C64.8612044,14.3621435 64.7867518,14.6190376 64.7309124,14.7898847 L64.665146,14.9806847 L64.6477737,15.0243318 L64.645292,15.0330612 C64.5274088,15.32612 64.645292,15.6640729 64.9220073,15.8162141 L64.9381387,15.8249435 C65.1404015,15.9396729 67.2511314,17.1942141 69.3010584,20.0350141 C71.3497445,22.8783082 73.3537591,27.3003788 73.3562409,33.8436965 C73.3562409,35.5995553 73.2060949,37.5125435 72.8772628,39.5851553 C70.9365328,41.0928494 69.3233942,42.58932 67.9398175,43.9560965 C66.1777737,45.6957435 64.7731022,47.2221435 63.5285036,48.2796494 C62.2777007,49.3446376 61.2378467,49.8983318 60.1731752,49.8945906 C59.0712774,49.8958376 57.9619343,49.4007553 56.7855839,48.4966376 C55.6278467,47.6062376 54.4403285,46.3304965 53.1957299,44.8826612 L53.184562,44.8652024 C52.8284307,44.2965435 49.7684307,39.1424494 49.7721533,31.9568965 C49.7733942,28.4963082 50.4906204,24.5593435 52.5430292,20.4016494 C52.7167518,20.5188729 52.8656569,20.6498141 53.0567518,20.7570612 Z M45.2516423,12.4104965 L48.5312774,11.9802612 L48.5312774,13.5403318 L45.2516423,12.4104965 Z M48.5312774,10.7232259 L45.3968248,11.1335082 L48.5312774,9.23299059 L48.5312774,10.7232259 Z M78.8285036,20.0262847 C79.1387226,22.0627318 79.2156569,23.7113435 79.2156569,24.7426612 C79.2156569,25.1404729 79.2044891,25.4497435 79.1958029,25.6555082 L79.1821533,25.8887082 L79.1771898,25.9597906 C79.1461679,26.3027318 79.3980657,26.6057671 79.7405474,26.6369435 C80.0817883,26.6668729 80.384562,26.4124729 80.4143431,26.0695318 C80.4143431,26.05332 80.455292,25.5794376 80.455292,24.7426612 C80.455292,22.8446376 80.2418613,19.0760259 78.8396715,14.5142847 C78.4066058,13.1125906 78.2006204,11.7108965 78.2006204,10.3827788 C78.1993796,8.10315529 78.8136131,6.05673176 79.9192336,4.61263765 C81.0310584,3.17103765 82.5920803,2.29934353 84.6829562,2.29186118 C87.2329562,2.29310824 88.9143431,2.90541412 89.9604015,3.49527294 C90.4815693,3.79207294 90.845146,4.08263765 91.0722263,4.29339059 C91.1702555,4.38442588 91.2322993,4.45176706 91.2806934,4.50663765 L91.7323723,7.74649647 C91.7373358,7.78016706 91.7633942,7.80386118 91.7733212,7.83503765 C91.7919343,7.89863765 91.8167518,7.95350824 91.8527372,8.00837882 C91.885,8.05327294 91.9185036,8.08694353 91.9619343,8.12310824 C91.9867518,8.14430824 91.9991606,8.17797882 92.0289416,8.19543765 L95.0529562,10.0099082 C95.6671898,10.7369435 95.8036861,11.55252 95.8061679,12.1236729 C95.8061679,12.3219553 95.7887956,12.48532 95.7739051,12.5950612 L95.755292,12.7160259 L95.7503285,12.7422141 L95.7503285,12.7434612 C95.6957299,12.9629435 95.7677007,13.1986376 95.9339781,13.3507788 L95.9364599,13.3532729 C96.0741971,13.4929435 99.6044891,16.9036494 99.6094526,25.0382141 L99.6094526,25.2489671 C99.5771898,29.5326141 98.6266788,33.1303788 97.684854,35.6506847 C97.214562,36.9114612 96.7467518,37.9016259 96.3980657,38.5737906 C96.3136861,38.7384024 96.2367518,38.8805671 96.1685036,39.0052729 C93.2896715,36.8640729 89.7159489,34.7328494 85.1271898,32.9458141 C84.9844891,32.8896965 84.8219343,32.8896965 84.6792336,32.9458141 C80.4255109,34.6006612 77.0478467,36.5548024 74.2831752,38.5363788 C74.495365,36.8740494 74.5971168,35.3089906 74.5971168,33.8436965 C74.5971168,30.5651788 74.0982847,27.7904729 73.3463139,25.4372729 L78.8285036,20.0262847 Z M94.8444891,3.06877882 L92.7461679,6.02430824 L92.5401825,4.54654353 L94.8444891,3.06877882 Z M95.3408394,8.73042588 L93.7438321,7.77143765 L97.3758759,6.31362588 L95.3408394,8.73042588 Z M103.343248,16.6155788 C103.777555,16.3100494 104.143613,16.1192494 104.390547,16.0082612 C104.514635,15.9521435 104.611423,15.9159788 104.670985,15.8947788 L104.735511,15.8735788 L104.746679,15.8710847 L104.746679,15.8698376 C104.919161,15.8224494 105.06062,15.70772 105.140036,15.5468494 C105.220693,15.3859788 105.226898,15.2001671 105.159891,15.0330612 L105.156168,15.0243318 C105.104051,14.8908965 104.559307,13.4231082 104.559307,11.2806612 C104.559307,10.1371082 104.713175,8.80150824 105.176022,7.36364941 C105.771642,5.52299059 106.907044,4.41310824 108.219891,3.71724941 C109.530255,3.02513176 111.023029,2.78444941 112.204343,2.78569647 C112.504635,2.78569647 112.785073,2.80190824 113.036971,2.82809647 C113.87208,2.91539059 115.119161,3.27703765 116.405949,4.13252 C117.669161,4.97054353 118.978285,6.28868471 120.033029,8.29894353 L120.033029,14.3421906 C119.94865,14.75372 119.107336,18.0072965 116.140401,19.6708729 C115.84135,19.8392259 115.735876,20.2195788 115.904635,20.52012 C116.072153,20.8194141 116.451861,20.9254141 116.750912,20.7570612 C116.939526,20.6498141 117.088431,20.5188729 117.263394,20.4016494 C119.31208,24.5605906 120.030547,28.4975553 120.031788,31.9581435 C120.031788,35.7903553 119.166898,39.0426847 118.299526,41.3322847 C117.867701,42.4770847 117.433394,43.3812024 117.113248,43.9935082 C116.951934,44.3015318 116.81792,44.5359788 116.726095,44.6918612 L116.621861,44.8652024 L116.610693,44.8826612 C115.366095,46.3317435 114.176095,47.6062376 113.018358,48.4966376 C111.844489,49.4007553 110.732664,49.8958376 109.632007,49.8945906 C108.566095,49.8983318 107.526241,49.3446376 106.275438,48.2796494 C104.406679,46.6933906 102.190474,44.05212 98.9207664,41.2175553 C98.3698175,40.7399318 97.7766788,40.25732 97.1612044,39.7722141 C98.0571168,38.1859553 100.789526,32.7587553 100.849088,25.2589435 L100.849088,25.2539553 L100.849088,25.0382141 C100.851569,23.1140024 100.65427,21.4454376 100.355219,19.9913671 C101.401277,18.2404965 102.503175,17.2079318 103.343248,16.6155788 Z M124.409599,11.1335082 L121.272664,10.7232259 L121.272664,9.23299059 L124.409599,11.1335082 Z M121.272664,11.9802612 L124.554781,12.4104965 L121.272664,13.5403318 L121.272664,11.9802612 Z M128.379161,26.9574376 L127.925,33.9334847 C127.00427,34.3799318 126.109599,34.9111788 125.272007,35.5746141 C123.183613,37.2307082 121.342153,39.2634141 119.642153,41.2686847 C120.483467,38.9092494 121.270182,35.7117906 121.272664,31.9581435 C121.272664,31.26852 121.234197,30.5552024 121.175876,29.8306612 L128.379161,26.9574376 Z M112.009526,62.6694612 C112.421496,63.0672729 112.780109,63.3466141 113.038212,63.5174612 C112.945146,64.3567318 112.863248,65.2009906 112.792518,66.0415082 C112.07281,65.4242141 111.078869,64.4365435 110.391423,63.2655553 C110.943613,63.0747553 111.483394,62.8752259 112.009526,62.6694612 Z M114.714635,61.5047082 C114.836241,65.2471318 115.140255,69.2452024 115.889745,71.9039318 C115.670109,72.0236494 115.471569,72.1271553 115.327628,72.1969906 L115.141496,72.2842847 C114.684854,72.2281671 114.253029,72.1508494 113.837336,72.0598141 C113.821204,71.67572 113.806314,71.2953671 113.806314,70.8813435 C113.806314,68.0816965 114.125219,64.6971788 114.516095,61.5957435 C114.581861,61.5658141 114.648869,61.5358847 114.714635,61.5047082 Z M115.934416,60.8936494 C117.198869,60.2352024 118.39135,59.52812 119.518066,58.7724024 C118.97208,59.7239082 117.957044,61.1118847 117.03135,62.2953435 C116.666533,62.7642376 116.33646,63.1757671 116.03865,63.5436494 C115.991496,62.6532494 115.957993,61.7628494 115.934416,60.8936494 Z M108.878796,69.5232965 C107.515073,68.2113906 106.635292,66.5266141 106.106679,64.67972 C106.979015,64.3741906 107.877409,64.0773906 108.805584,63.7943082 C108.938358,63.7544024 109.059964,63.7070141 109.191496,63.6658612 C110.284708,65.6461906 112.025657,67.0603553 112.690766,67.5566847 C112.66719,67.9544965 112.637409,68.3548024 112.621277,68.7451318 C112.344562,68.6079553 112.033102,68.4495788 111.722883,68.2799788 C111.217847,68.0043788 110.716533,67.6938612 110.48573,67.4918376 C110.226387,67.2673671 109.833029,67.2972965 109.610912,67.5579318 C109.387555,67.8198141 109.418577,68.2126376 109.67792,68.4371082 C110.179234,68.8648494 110.965949,69.2950847 111.663321,69.6579788 C112.024416,69.8437906 112.349526,70.00092 112.584051,70.1131553 C112.579088,70.3663082 112.565438,70.6356729 112.565438,70.8813435 C112.565438,71.1719082 112.579088,71.4400259 112.586533,71.7193671 C111.072664,71.2143082 109.852883,70.4585906 108.878796,69.5232965 Z M74.2087226,67.9794376 C73.6974818,67.7013435 73.1589416,67.4232494 72.6129562,67.1439082 L72.7382847,67.1688494 L73.4331752,63.7107553 C73.9431752,63.9813671 74.4271168,64.2507318 74.9023723,64.5200965 L74.2087226,67.9794376 Z M76.8058759,69.4833906 C76.3368248,69.1978141 75.8528832,68.9109906 75.3466058,68.6204259 L76.0365328,65.1760494 C76.5403285,65.4778376 77.0304745,65.7771318 77.4908394,66.0714376 L76.8058759,69.4833906 Z M78.8768978,66.9842847 C79.2901095,67.2673671 79.6722993,67.5392259 80.0408394,67.8060965 L79.3744891,71.1307553 C78.9203285,70.8214847 78.4363869,70.5034847 77.9313504,70.1804965 L78.6076277,66.8072024 C78.6944891,66.8658141 78.7925182,66.92692 78.8768978,66.9842847 Z M85.5242701,52.9660965 L86.654708,58.6052965 C86.654708,58.6090376 86.6559489,58.6115318 86.6571898,58.6140259 L88.3919343,67.2736024 C87.1336861,68.2188729 86.1769708,69.0244729 85.5242701,69.6105906 L85.5242701,52.9660965 Z M83.1504745,58.6102847 L83.1504745,58.6090376 L84.2833942,52.9598612 L84.2833942,69.6118376 C83.6294526,69.0244729 82.6727372,68.2188729 81.4120073,67.2736024 L83.1504745,58.6102847 Z M83.9669708,74.6611788 C83.1604015,73.9540965 82.0014234,73.0038376 80.4813504,71.9101671 L81.1402555,68.6266612 C81.9182847,69.2252494 82.5734672,69.7639788 83.0760219,70.2016965 C83.5401095,70.6069906 83.8887956,70.9312259 84.1183577,71.1519553 C84.1915693,71.2230376 84.2337591,71.2654376 84.2833942,71.3140729 L84.2833942,74.9417671 C84.1965328,74.8644494 84.104708,74.7833906 84.0079197,74.6985906 L84.0079197,74.6611788 L83.9669708,74.6611788 Z M85.8394526,74.6611788 L85.7960219,74.6611788 L85.7960219,74.6985906 C85.7004745,74.7833906 85.6098905,74.8644494 85.5242701,74.9417671 L85.5242701,71.3128259 C85.895292,70.9436965 86.9438321,69.9522847 88.664927,68.6291553 L89.3225912,71.9114141 C87.805,73.0038376 86.644781,73.9540965 85.8394526,74.6611788 Z M91.1987956,66.8084494 L91.875073,70.1804965 C91.3712774,70.5034847 90.884854,70.8214847 90.4331752,71.1307553 L89.7668248,67.8085906 C90.2098175,67.4868494 90.6875547,67.1538847 91.1987956,66.8084494 Z M93.7686496,65.1785435 L94.4598175,68.6204259 C93.9522993,68.9109906 93.4683577,69.1978141 92.9993066,69.4833906 L92.3155839,66.0751788 C92.7784307,65.7808729 93.2611314,65.4815788 93.7686496,65.1785435 Z M96.3720073,63.7057671 L97.0656569,67.1688494 L97.1922263,67.1439082 C96.6474818,67.4232494 96.1064599,67.7013435 95.5964599,67.9794376 L94.9015693,64.5138612 C95.3743431,64.2457435 95.8644891,63.9751318 96.3720073,63.7057671 Z M99.0076277,62.3913671 L99.6218613,65.4578847 C99.6541241,65.6224965 99.7509124,65.7571788 99.8774818,65.84572 C99.3128832,66.1026141 98.7569708,66.3620024 98.2221533,66.6226376 L97.5198175,63.1196494 C98.0012774,62.8752259 98.495146,62.6332965 99.0076277,62.3913671 Z M70.1833212,65.4578847 L70.7963139,62.3951082 C71.3063139,62.6357906 71.8076277,62.8752259 72.2866058,63.1159082 L71.5817883,66.6226376 C71.0494526,66.3620024 70.4935401,66.1026141 69.9277007,65.84572 C70.0555109,65.7571788 70.1522993,65.6224965 70.1833212,65.4578847 Z M57.2186496,70.1144024 C57.4556569,70.0021671 57.7795255,69.8437906 58.1406204,69.6579788 C58.8392336,69.2950847 59.6271898,68.8648494 60.1285036,68.4371082 C60.3878467,68.2126376 60.4163869,67.8198141 60.1942701,67.5579318 C59.9709124,67.2972965 59.5775547,67.2673671 59.3182117,67.4918376 C59.0079927,67.7661906 58.2324453,68.2126376 57.574781,68.5480965 C57.4382847,68.6191788 57.3079927,68.6827788 57.1839051,68.7451318 C57.1665328,68.3560494 57.1379927,67.9557435 57.1131752,67.5566847 C57.7770438,67.0616024 59.5229562,65.6461906 60.6136861,63.6658612 C60.7464599,63.7070141 60.8680657,63.7544024 61.0008394,63.7943082 C61.9290146,64.0773906 62.8261679,64.3754376 63.6985036,64.6822141 C63.1698905,66.5278612 62.2901095,68.2113906 60.9263869,69.5232965 C59.9522993,70.4585906 58.7337591,71.2143082 57.2174088,71.7206141 C57.224854,71.4400259 57.2397445,71.1719082 57.2397445,70.8800965 C57.2397445,70.6356729 57.2236131,70.3663082 57.2186496,70.1144024 Z M56.7669708,63.5174612 C57.0238321,63.3478612 57.3836861,63.0672729 57.7944161,62.6682141 C58.3230292,62.8752259 58.8590876,63.0747553 59.4112774,63.2643082 C58.8541241,64.2083318 58.1021533,65.0488494 57.4469708,65.6574141 C57.2931022,65.8008259 57.1491606,65.9242847 57.0114234,66.0427553 C56.9406934,65.2022376 56.8587956,64.3567318 56.7669708,63.5174612 Z M55.0905474,61.5047082 C55.1563139,61.5358847 55.224562,61.5645671 55.2890876,61.5957435 C55.6799635,64.6971788 55.9988686,68.0816965 55.9988686,70.8800965 C55.9988686,71.2928729 55.9827372,71.67572 55.9690876,72.0598141 C55.5521533,72.1508494 55.1203285,72.2281671 54.6636861,72.2842847 C54.5160219,72.2169435 54.2566788,72.0897435 53.9141971,71.9039318 C54.664927,69.2452024 54.9701825,65.2471318 55.0905474,61.5047082 Z M53.7665328,63.5448965 C53.1125912,62.7368024 52.225365,61.6132024 51.4498175,60.5394847 C51.025438,59.95212 50.6395255,59.3834612 50.3566058,58.9095788 C50.3231022,58.8572024 50.2982847,58.8098141 50.2697445,58.7599318 C51.4039051,59.5193906 52.6001095,60.2314612 53.8707664,60.8924024 C53.8459489,61.7628494 53.8124453,62.6532494 53.7665328,63.5448965 Z M50.5563869,84.8658612 C51.925073,81.0573435 53.3061679,76.6826612 53.5890876,73.6423318 C53.8385036,73.6111553 54.0606204,73.5874612 54.2206934,73.5749906 C54.3063139,73.5675082 54.3596715,73.5637671 54.4179927,73.5612729 C54.825,73.7807553 55.2009854,74.0152024 55.5608394,74.2558847 C54.4738321,77.4159318 52.4313504,81.4601435 50.5563869,84.8658612 Z M70.8434672,73.8954847 L70.8335401,73.8917435 C69.9227372,73.6061671 68.9895985,73.2582376 67.9931752,73.0287788 C67.0501095,72.7806141 66.0921533,72.5312024 65.0994526,72.3640965 L65.0994526,72.3628494 L63.6637591,72.0897435 L63.6439051,72.0860024 C63.1438321,72.0074376 62.6574088,71.9538141 62.184635,71.8902141 L62.1809124,71.8889671 L60.735292,71.7031553 L60.7266058,71.7019082 L60.2389416,71.6445435 C60.8022993,71.2779082 61.3209854,70.8713671 61.785073,70.4236729 C63.3125912,68.9533906 64.2817153,67.0952729 64.8624453,65.1124494 C70.7714964,67.3022847 75.3701825,69.9111318 78.6076277,72.1146847 C80.4230292,73.35052 81.7979197,74.4429435 82.7682847,75.2709906 L82.7682847,81.3441671 C82.3141241,80.8440965 81.8487956,80.3602376 81.3586496,79.9088024 L81.3474818,79.8988259 C78.2440511,77.16652 74.6355839,75.1662376 70.8434672,73.8954847 Z M84.2101825,85.4307788 C84.1406934,85.5692024 84.0736861,85.7076259 84.0079197,85.8485435 L84.0079197,85.1015553 C84.0736861,85.2125435 84.1481387,85.3185435 84.2101825,85.4307788 Z M75.7486496,89.3278376 C73.7582847,89.8615788 71.5941971,90.5088024 69.5678467,91.2607788 C71.6810584,90.0112259 73.9109124,89.0933906 75.9012774,88.4536494 C77.6434672,87.8924729 79.1970438,87.53332 80.3113504,87.3138376 C80.7977737,87.2190612 81.1812044,87.1542141 81.4802555,87.1080729 C81.6279197,87.36372 81.7569708,87.6268494 81.8822993,87.8899788 C80.6364599,88.1418847 78.3507664,88.6332259 75.7486496,89.3278376 Z M85.7960219,85.1003082 L85.7960219,85.8497906 C85.7314964,85.7088729 85.6632482,85.5704494 85.5937591,85.4320259 C85.6570438,85.3185435 85.7314964,85.2125435 85.7960219,85.1003082 Z M84.9025912,84.18372 C84.6221533,83.7260494 84.3243431,83.2833435 84.0079197,82.8580965 L84.0079197,76.3796259 C84.035219,76.4058141 84.0786496,76.4432259 84.1022263,76.4681671 C84.2225912,76.5828965 84.3119343,76.6714376 84.3714964,76.7300494 L84.4533942,76.8160965 C84.5725182,76.9395553 84.7325912,77.0093906 84.9038321,77.0093906 C85.0738321,77.0093906 85.2339051,76.9395553 85.3517883,76.8160965 L85.434927,76.7300494 C85.5056569,76.6602141 85.6371898,76.5317671 85.7960219,76.3808729 L85.7960219,82.8580965 C85.4808394,83.2833435 85.1830292,83.7248024 84.9025912,84.18372 Z M88.3435401,87.0731553 C88.374562,87.0781435 88.3869708,87.0793906 88.4217153,87.0843788 C89.4925912,87.2464965 92.2920073,87.7465671 95.4822993,88.9138141 C97.1214964,89.5111553 98.8624453,90.2905671 100.52646,91.2807318 C98.485219,90.5200259 96.3025182,89.8665671 94.2960219,89.3278376 C91.5338321,88.5908259 89.1277737,88.0820259 87.9464599,87.8463318 C88.0693066,87.5869435 88.1958759,87.3263082 88.3435401,87.0731553 Z M106.162518,72.0860024 L106.141423,72.0897435 L104.706971,72.3628494 L104.706971,72.3640965 C103.71427,72.5312024 102.753832,72.7806141 101.812007,73.0287788 C100.815584,73.2582376 99.8824453,73.6061671 98.9741241,73.8917435 L98.9641971,73.8954847 C95.1708394,75.1662376 91.5623723,77.16652 88.4577007,79.8988259 L88.445292,79.9088024 C87.9576277,80.3614847 87.4910584,80.8453435 87.0368978,81.3441671 L87.0368978,75.2722376 C89.7370438,72.9664259 95.7180657,68.5293906 104.942737,65.1112024 C105.523467,67.0940259 106.492591,68.9533906 108.02135,70.4236729 C108.485438,70.8713671 109.002883,71.2779082 109.567482,71.6445435 L109.077336,71.7019082 L109.069891,71.7031553 L107.623029,71.8889671 L107.620547,71.8902141 C107.147774,71.9538141 106.66135,72.0074376 106.162518,72.0860024 Z M119.250036,84.8708494 C117.376314,81.4613906 115.330109,77.42092 114.241861,74.2571318 C114.602956,74.0164494 114.978942,73.7820024 115.38719,73.5600259 C115.550985,73.5712494 115.833905,73.5949435 116.214854,73.6423318 C116.500255,76.6839082 117.882591,81.0610847 119.250036,84.8708494 Z M124.327701,59.86732 C124.32646,60.2289671 124.304124,60.5918612 124.254489,60.9560024 C123.70354,64.9054376 121.409161,67.7487318 119.21281,69.6243082 C119.004343,69.8026376 118.798358,69.9647553 118.593613,70.1256259 C118.587409,70.1268729 118.582445,70.12812 118.577482,70.12812 L118.579964,70.1356024 C118.017847,70.5745671 117.480547,70.9499318 116.996606,71.2554612 C116.881204,70.8077671 116.773248,70.3301435 116.678942,69.8013906 C116.934562,69.5257906 117.664197,68.7314141 118.519161,67.6876259 C119.578869,66.3931788 120.818504,64.7445671 121.561788,63.2318847 C121.711934,62.9226141 121.585365,62.5497435 121.278869,62.3976024 C120.972372,62.2454612 120.598869,62.3726612 120.448723,62.6806847 C119.792299,64.0262612 118.591131,65.6412024 117.561204,66.8957435 C117.135584,67.41452 116.758358,67.8484965 116.440693,68.2088965 C116.324051,67.3097671 116.229745,66.3532729 116.154051,65.3656024 C116.438212,65.0276494 117.432153,63.8267318 118.459599,62.4811553 C119.067628,61.6855318 119.683102,60.8450141 120.172007,60.0967788 C120.415219,59.7214141 120.62865,59.3709906 120.794927,59.0517435 C120.959964,58.7287553 121.084051,58.4519082 121.139891,58.1476259 C121.168431,57.9842612 121.127482,57.8258847 121.043102,57.6986847 C121.84719,57.1000965 122.625219,56.4803082 123.372226,55.8343318 C123.95792,57.1350141 124.327701,58.48932 124.327701,59.86732 Z M169.356606,46.6522376 C164.649964,45.2792259 160.045073,44.6357435 155.780182,44.6357435 C149.197336,44.6382376 143.417336,46.1596494 139.313759,48.9405906 C134.96573,51.8911318 132.717263,56.2408729 131.153759,60.0107318 C130.373248,61.8962847 129.760255,63.6471553 129.159672,65.0039553 C128.581423,66.33332 127.98208,67.2424259 127.429891,67.5691553 C125.363832,68.2749906 123.279161,68.9222141 121.177117,69.4858847 C123.129015,67.5142847 124.974197,64.7657671 125.482956,61.1280965 C125.541277,60.7040965 125.568577,60.2825906 125.567336,59.86732 C125.567336,58.1388965 125.075949,56.4927788 124.335146,54.9663788 C127.949818,51.6392259 130.962664,47.7571318 133.981715,43.5271082 C137.183175,39.0501671 139.430401,36.5760024 140.857409,35.2354141 C141.570912,34.5644965 142.078431,34.1766612 142.394854,33.9634141 C142.552445,33.8574141 142.664124,33.7925671 142.726168,33.7588965 L142.789453,33.72772 L142.794416,33.7252259 L142.793175,33.7214847 C143.04135,33.6204729 143.201423,33.3698141 143.181569,33.1004494 C143.160474,32.8260965 142.963175,32.5966376 142.695146,32.5380259 C142.665365,32.5317906 140.367263,32.0254847 137.222883,32.0242376 C134.835438,32.0267318 131.951642,32.3322612 129.204343,33.3860259 L129.680839,26.0558141 C129.694489,25.84132 129.600182,25.6368024 129.427701,25.5108494 C129.253978,25.3848965 129.03062,25.3562141 128.833321,25.4347788 L121.043102,28.5424494 C120.680766,25.7465435 119.833248,22.7411318 118.269745,19.6347082 C119.255,18.7430612 119.952372,17.7404259 120.40281,16.8612494 C120.833394,16.0207318 121.062956,15.3011788 121.173394,14.8921435 L127.464635,12.7272494 C127.478285,12.7222612 127.484489,12.7097906 127.496898,12.7048024 C127.581277,12.6698847 127.652007,12.6175082 127.71281,12.5526612 C127.730182,12.5327082 127.746314,12.5177435 127.762445,12.4965435 C127.820766,12.4154847 127.866679,12.3232024 127.879088,12.2172024 C127.880328,12.2147082 127.879088,12.2122141 127.879088,12.2084729 C127.879088,12.2072259 127.881569,12.2047318 127.881569,12.2034847 C127.88281,12.1935082 127.877847,12.1860259 127.877847,12.1772965 C127.884051,12.0787788 127.864197,11.9852494 127.826971,11.8992024 C127.817044,11.8742612 127.807117,11.8530612 127.792226,11.8293671 C127.742591,11.7420729 127.678066,11.6660024 127.593686,11.6123788 C127.589964,11.6098847 127.588723,11.6048965 127.585,11.6024024 L127.578796,11.5986612 C127.578796,11.5986612 127.577555,11.5986612 127.576314,11.5986612 L121.105146,7.67416706 C119.959818,5.50677882 118.510474,4.03275529 117.089672,3.09122588 C115.62792,2.12350824 114.213321,1.69950824 113.166022,1.58852 C112.870693,1.55609647 112.546825,1.53988471 112.204343,1.53988471 C110.864197,1.53988471 109.191496,1.80052 107.644124,2.61235529 C106.099234,3.41920235 104.685876,4.81466118 103.994708,6.98080235 C103.485949,8.55708471 103.318431,10.02612 103.318431,11.2806612 C103.319672,12.9317671 103.607555,14.2037671 103.812299,14.9033671 C102.984635,15.2887082 101.445949,16.2352259 99.9519343,18.3340259 C99.0026642,15.0979082 97.5756569,13.2934141 97.0122993,12.6786141 C97.0296715,12.5289671 97.0470438,12.3468965 97.0470438,12.1236729 C97.0482847,11.4614847 96.8795255,10.4950141 96.2566058,9.57468471 L99.9308394,5.20997882 C100.114489,4.99174353 100.126898,4.67499059 99.9618613,4.44303765 C99.7955839,4.21108471 99.4928102,4.12254353 99.2285036,4.22854353 L94.0788686,6.29367294 L97.7133942,1.17574353 C97.8871168,0.93132 97.8635401,0.600849412 97.6587956,0.383861176 C97.4540511,0.166872941 97.1264599,0.12572 96.874562,0.287837647 L91.9718613,3.43292 C91.1379927,2.63854353 88.9180657,1.03732 84.6829562,1.04480235 C82.2285036,1.03732 80.2393796,2.13348471 78.935219,3.85317882 C77.6236131,5.57287294 76.9597445,7.88242588 76.9597445,10.3827788 C76.9597445,11.8393435 77.1855839,13.3644965 77.6533942,14.8821671 C78.0529562,16.1791082 78.3433212,17.3987318 78.5666788,18.5360494 L72.8884307,24.1415788 C72.0868248,22.0639788 71.0978467,20.3517671 70.0939781,19.01492 C68.415073,16.7739553 66.7386496,15.5144259 65.9631022,14.9981435 C66.1678467,14.3247318 66.4830292,13.0140729 66.4830292,11.2806612 C66.4842701,10.0248729 66.3155109,8.55708471 65.8104745,6.98080235 C65.1193066,4.81466118 63.7059489,3.41920235 62.1598175,2.61235529 C60.6124453,1.80052 58.9409854,1.53988471 57.6008394,1.53863765 C57.2558759,1.53863765 56.9344891,1.55609647 56.6379197,1.58852 C55.5931022,1.69950824 54.1772628,2.12350824 52.7142701,3.09122588 C51.294708,4.03275529 49.8478467,5.50677882 48.7012774,7.67416706 L42.2288686,11.5986612 C42.2276277,11.5986612 42.2276277,11.5986612 42.2276277,11.5986612 L42.2201825,11.6024024 C42.2177007,11.6048965 42.215219,11.6098847 42.2127372,11.6123788 C42.1283577,11.6660024 42.0625912,11.7420729 42.0129562,11.82812 C41.9993066,11.8530612 41.9893796,11.8742612 41.9782117,11.9004494 C41.9422263,11.9864965 41.9223723,12.0787788 41.9298175,12.1772965 C41.9298175,12.1860259 41.9223723,12.1935082 41.924854,12.2034847 C41.924854,12.2047318 41.9273358,12.2072259 41.9273358,12.2084729 C41.9273358,12.2122141 41.924854,12.2147082 41.9260949,12.2172024 C41.9397445,12.3232024 41.9856569,12.4142376 42.0439781,12.4965435 C42.0588686,12.5164965 42.0762409,12.5327082 42.0936131,12.5526612 C42.1544161,12.6175082 42.225146,12.6698847 42.3082847,12.7048024 C42.3206934,12.7097906 42.3268978,12.7222612 42.3405474,12.7272494 L48.6317883,14.8921435 C48.7422263,15.3011788 48.9730292,16.0207318 49.4036131,16.8612494 C49.855292,17.7404259 50.5501825,18.7430612 51.535438,19.6334612 C49.9706934,22.7411318 49.1231752,25.7465435 48.7620803,28.5412024 L40.9718613,25.4347788 C40.7733212,25.3562141 40.5499635,25.3848965 40.3787226,25.5108494 C40.205,25.6368024 40.1094526,25.84132 40.1243431,26.0558141 L40.6020803,33.3860259 C37.8535401,32.3322612 34.9685036,32.0267318 32.5822993,32.0242376 C29.435438,32.0254847 27.1385766,32.5317906 27.1087956,32.5380259 C26.8420073,32.5966376 26.6434672,32.8260965 26.6236131,33.1004494 C26.6037591,33.3710612 26.7625912,33.6204729 27.0120073,33.7214847 L27.0095255,33.7252259 L27.1261679,33.7850847 C27.7031752,34.1068259 30.4008394,35.9362612 35.8234672,43.5271082 C38.8425182,47.7571318 41.8541241,51.6392259 45.4700365,54.9663788 C44.7267518,56.4915318 44.235365,58.1376494 44.235365,59.8648259 C44.2341241,60.2825906 44.265146,60.7053435 44.324708,61.1280965 C44.8309854,64.7657671 46.674927,67.5142847 48.6280657,69.4858847 C46.5272628,68.9222141 44.4425912,68.2749906 42.375292,67.5704024 C41.8231022,67.2424259 41.2237591,66.3345671 40.6479927,65.0039553 C38.825146,60.9260729 37.0072628,53.3713906 30.4914234,48.9405906 C26.3841241,46.1596494 20.605365,44.6382376 14.025,44.6357435 C9.75886861,44.6357435 5.1539781,45.2792259 0.447335766,46.6522376 C0.205364964,46.72332 0.0304014599,46.9328259 0.00434306569,47.1859788 C-0.0229562044,47.4391318 0.104854015,47.6810612 0.326970803,47.8007788 C0.444854015,47.8544024 0.761277372,48.1462141 1.11864964,48.6088729 C2.40667883,50.2412729 4.46156934,53.8390376 7.18777372,57.6338376 C9.92018248,61.4348729 13.3437591,65.4691082 17.5168248,68.0654847 C21.2704745,70.40372 24.8516423,71.0434612 27.9699635,71.0409671 C31.6342701,71.0372259 34.705438,70.1804965 36.6796715,70.1904729 C37.285219,70.1904729 37.7704015,70.2677906 38.1327372,70.4299082 L38.1364599,70.4186847 C41.1815693,71.6869435 44.2961679,72.7968259 47.4777737,73.7084259 C47.6328832,73.7520729 47.8214964,73.8069435 48.025,73.8668024 C45.4303285,74.9804259 42.6073358,76.8959082 40.7683577,80.2018612 C39.8985036,81.7694141 39.554781,83.4878612 39.5560219,85.2050612 C39.5597445,88.6619082 40.9135401,92.1424494 42.2462409,94.7824729 C43.5814234,97.4200024 44.9104015,99.2132729 44.9240511,99.2319788 C45.0704745,99.4302612 45.3198905,99.5212965 45.5593796,99.4676729 C45.6040511,99.4452259 52.7390876,97.8539788 57.1528832,93.6027553 C59.8083577,91.0238376 61.625,87.0793906 61.6312044,83.0775788 C61.6398905,80.6757435 60.9325912,78.2552024 59.3715693,76.1526612 L61.5828102,76.44572 L61.5778467,76.4444729 C62.0357299,76.50932 62.4799635,76.5592024 62.9043431,76.6265435 L64.2184307,76.8834376 L64.2333212,76.8871788 C65.0870438,77.0318376 65.9382847,77.2575553 66.8081387,77.4907553 L66.8292336,77.4957435 C67.6482117,77.6815553 68.4684307,77.9920729 69.3407664,78.2701671 C72.6576277,79.41372 75.7622993,81.1047318 78.3321533,83.3095318 C78.6684307,83.6188024 78.9935401,83.9380494 79.305,84.2647788 C77.6608394,83.6936259 75.8504015,83.4329906 74.0585766,83.4304965 C71.0978467,83.4354847 68.1892336,84.12012 66.1455109,85.3609435 C62.2516423,87.72412 58.9993066,92.1948259 59.0067518,98.7281671 C59.0067518,98.9376729 59.0104745,99.1471788 59.0166788,99.3566847 C59.0228832,99.5562141 59.1271168,99.7432729 59.2921533,99.8542612 C59.4584307,99.9652494 59.6693796,99.9901906 59.8555109,99.9191082 C61.0244161,99.4676729 63.1066058,99.3654141 65.4468978,99.2843553 C67.794635,99.1958141 70.4240511,99.1035318 72.8425182,98.5498376 C75.5104015,97.9350376 77.8060219,97.0533671 79.6425182,95.4783318 C80.9317883,94.3746847 81.9641971,92.9293435 82.7385036,91.0687318 C82.7434672,91.1672494 82.764562,91.2657671 82.7670438,91.3630376 L82.7670438,91.3829906 L82.7682847,91.3829906 L82.7682847,92.0140024 C82.764562,94.5941671 81.4777737,96.3375553 80.1438321,97.4960729 C79.4787226,98.06972 78.804927,98.4837435 78.3023723,98.7506141 C78.0529562,98.8852965 77.8444891,98.98132 77.7017883,99.04492 L77.5392336,99.1122612 L77.4933212,99.1309671 C77.2712044,99.2132729 77.114854,99.4128024 77.0900365,99.6472494 C77.0639781,99.8829435 77.1719343,100.112402 77.3692336,100.240849 L84.5675547,104.901108 C84.7710584,105.033296 85.0341241,105.033296 85.2388686,104.901108 L85.2388686,104.899861 L92.434708,100.240849 C92.6320073,100.112402 92.7412044,99.8829435 92.7163869,99.6472494 C92.6890876,99.4128024 92.5327372,99.2120259 92.3118613,99.1309671 L92.264708,99.1122612 C91.995438,99.0062612 90.6515693,98.4251318 89.4119343,97.2728494 C88.1698175,96.1130847 87.0393796,94.4357906 87.0368978,92.0140024 L87.0368978,91.3630376 L87.0381387,91.3630376 L87.0368978,91.3630376 C87.0443431,91.1098847 87.0815693,90.8554847 87.1125912,90.6010847 C87.9055109,92.6948965 89.004927,94.2836494 90.4009124,95.4783318 C92.2386496,97.0533671 94.5330292,97.9350376 97.2021533,98.5498376 C99.6206204,99.1035318 102.248796,99.1958141 104.596533,99.2843553 C106.938066,99.3654141 109.019015,99.4676729 110.18792,99.9191082 C110.376533,99.9914376 110.585,99.9664965 110.752518,99.8530141 C110.918796,99.7420259 111.021788,99.5562141 111.025511,99.3541906 C111.032956,99.1446847 111.035438,98.9351788 111.035438,98.7281671 C111.042883,92.1948259 107.788066,87.72412 103.89792,85.3609435 C101.855438,84.12012 98.9468248,83.4354847 95.984854,83.4304965 C94.0664599,83.4329906 92.1244891,83.7248024 90.3934672,84.3832494 C90.7384307,84.0153671 91.0958029,83.6549671 91.4742701,83.3095318 C94.0416423,81.1047318 97.1487956,79.41372 100.466898,78.2701671 C101.339234,77.9920729 102.15573,77.6815553 102.974708,77.4957435 L102.997044,77.4907553 C103.866898,77.2575553 104.716898,77.0318376 105.571861,76.8871788 L105.587993,76.8834376 L106.90208,76.6265435 C107.327701,76.5592024 107.769453,76.50932 108.227336,76.4444729 L108.223613,76.44572 L110.429891,76.1526612 C108.868869,78.2552024 108.164051,80.6757435 108.173978,83.0775788 C108.178942,87.0793906 109.995584,91.0238376 112.652299,93.6027553 C117.068577,97.8539788 124.203613,99.4452259 124.247044,99.4676729 C124.486533,99.5212965 124.735949,99.4290141 124.881131,99.2319788 C124.896022,99.2132729 126.223759,97.4200024 127.560182,94.7824729 C128.891642,92.1424494 130.244197,88.6619082 130.24792,85.2063082 C130.249161,83.4891082 129.906679,81.7694141 129.035584,80.2018612 C127.199088,76.8971553 124.374854,74.9816729 121.778942,73.8680494 C121.983686,73.8069435 122.172299,73.7520729 122.326168,73.7084259 C125.507774,72.7980729 128.623613,71.6869435 131.667482,70.4186847 L131.672445,70.4286612 C132.03354,70.2690376 132.518723,70.1904729 133.12427,70.1904729 C135.099745,70.1804965 138.169672,71.0372259 141.833978,71.0409671 C144.949818,71.0434612 148.528504,70.40372 152.288358,68.0654847 C157.057044,65.0974847 160.850401,60.2551553 163.746606,56.0238847 C165.193467,53.9088729 166.412007,51.9422612 167.396022,50.4482847 C167.88865,49.7012965 168.321715,49.0715318 168.686533,48.6088729 C169.043905,48.1462141 169.360328,47.8544024 169.478212,47.8007788 C169.700328,47.6810612 169.826898,47.4391318 169.80208,47.1859788 C169.774781,46.9328259 169.599818,46.72332 169.356606,46.6522376 Z" id="Fill-3" fill="#DEAD87" mask="url(#mask-2)"></path>
                </g>
                <path d="" id="Fill-6" fill="#DEAD87"></path>
                <g id="Group-10" transform="translate(0.000000, 104.000000)">
                    <mask id="mask-4" fill="white">
                        <use xlink:href="#path-3"></use>
                    </mask>
                    <g id="Clip-9"></g>
                    <path d="" id="Fill-8" fill="#DEAD87" mask="url(#mask-4)"></path>
                </g>
                <path d="M28.5025,62.501 C28.5005,62.501 28.5005,62.5 28.4985,62.5 C28.4985,62.499 28.4985,62.499 28.4975,62.499 L28.5025,62.501 Z" id="Fill-11" fill="#DEAD87"></path>
                <path d="M27.501,64.5005 C27.501,64.5005 27.5,64.4995 27.499,64.4995 L27.501,64.5005 Z" id="Fill-13" fill="#DEAD87"></path>
                <path d="M86.5005934,9.18652112 C87.2245431,9.18770764 87.8108236,9.7750356 87.8131972,10.5 C87.8108236,11.2249644 87.2245431,11.8122924 86.5005934,11.8134789 C85.7742701,11.8122924 85.1879896,11.2249644 85.185616,10.5 C85.1879896,9.7750356 85.7742701,9.18770764 86.5005934,9.18652112 M86.5005934,13 C87.880845,12.9988135 89,11.8811106 89,10.5 C89,9.11888942 87.880845,8 86.5005934,8 C85.119155,8 84,9.11888942 84,10.5 C84,11.8811106 85.119155,12.9988135 86.5005934,13" id="Fill-15" fill="#DEAD87"></path>
                <path d="M92.2839099,12.1569675 L92.2862787,12.1582153 C92.4189316,12.2517986 95.9022568,14.6175853 97.837569,21.5514863 C97.9311368,21.8821474 98.259216,22.0718096 98.5742668,21.9744829 C98.8881333,21.8784041 99.0681623,21.5302741 98.975779,21.199613 C96.8876789,13.7029642 92.992182,11.1462675 92.9009831,11.0913653 C92.6214643,10.9116853 92.257853,11.0052686 92.0872992,11.2997442 C91.9155609,11.5942198 92.0055755,11.9772875 92.2839099,12.1569675" id="Fill-17" fill="#DEAD87"></path>
                <path d="M91.3113129,17.1602195 L91.3113129,17.1614657 C91.3238689,17.1689428 92.6183926,17.9341058 93.9430507,20.082544 C95.2664532,22.2334745 96.6300349,25.7764035 96.7442945,31.3892604 C96.7505725,31.7332099 97.0381049,32.0061264 97.3846506,31.9998954 C97.7311962,31.9924182 98.0061726,31.708286 97.9998946,31.3643366 C97.8831238,25.471086 96.4165829,21.6602253 94.9462752,19.3223657 C93.4759675,16.9820138 92.0119377,16.1233862 91.9416241,16.083508 C91.6415357,15.9115333 91.2573221,16.0137212 91.0827937,16.3115615 C90.9120321,16.6081556 91.0137357,16.9869985 91.3113129,17.1602195 Z" id="Fill-19" fill="#DEAD87"></path>
                <path d="M90.2747291,22.1329003 C90.9750732,22.5875097 91.5999242,23.5004045 92.0912104,24.652245 C92.8333662,26.3738789 93.2816793,28.5819816 93.530226,30.3440525 C93.6544994,31.2250879 93.7334768,31.9970661 93.7799341,32.5472537 C93.8020014,32.8217349 93.8171,33.0398493 93.8263915,33.1893435 C93.8356829,33.3400631 93.8380058,33.4160355 93.8380058,33.4160355 C93.8542659,33.7542355 94.1260412,34.0152376 94.4465967,33.9993079 C94.7659908,33.9833782 95.0133761,33.6966435 94.9994389,33.3584435 L94.9982774,33.3584435 C94.997116,33.3388377 94.8914256,30.9334517 94.3490363,28.2143729 C94.0749381,26.8542209 93.6951495,25.4156457 93.149276,24.1461704 C92.602241,22.8779205 91.8949282,21.7591648 90.8868043,21.0925678 C90.615029,20.9136649 90.2561462,21.001891 90.0877384,21.2898511 C89.9181691,21.5765859 90.0017923,21.9539974 90.2747291,22.1329003" id="Fill-21" fill="#DEAD87"></path>
                <path d="M88.1098039,25.2720316 C87.9244481,25.5649884 87.9793683,25.9727526 88.2322303,26.1891711 L88.2310862,26.1904908 C88.2459604,26.2155636 89.8500895,27.5813758 89.8569546,31.3291115 C89.8546662,31.3581433 89.8523779,31.4320423 89.8878472,31.5534478 C89.9896785,31.8991896 90.3146234,32.0826175 90.6143964,31.9638513 C90.8466633,31.8727971 90.9896848,31.6260272 90.9965499,31.3607825 L90.9988382,31.3607825 L90.9999824,31.33439 L90.9999824,31.3330704 L90.9999824,31.3291115 C91.0068474,26.9717089 89.0034023,25.1915344 88.908436,25.1255532 C88.6521415,24.9117739 88.2951598,24.9777552 88.1098039,25.2720316 Z" id="Fill-23" fill="#DEAD87"></path>
                <path d="M113.501187,10.1865211 C114.224122,10.1877076 114.812915,10.7750356 114.814103,11.5 C114.812915,12.2249644 114.224122,12.8122924 113.501187,12.8134789 C112.775878,12.8122924 112.188272,12.2249644 112.187085,11.5 C112.188272,10.7750356 112.775878,10.1877076 113.501187,10.1865211 M113.501187,14 C114.881766,14 116,12.8811106 116,11.5 C116,10.1188894 114.881766,9 113.501187,9 C112.119421,9 111,10.1188894 111,11.5 C111,12.8811106 112.119421,14 113.501187,14" id="Fill-25" fill="#DEAD87"></path>
                <path d="M114.376248,23.0507058 C114.058419,23.1844501 113.91452,23.543128 114.052162,23.8507399 L114.050911,23.8507399 C114.050911,23.8507399 114.089701,23.9370658 114.163528,24.1121492 C114.675308,25.3401651 116.752458,30.7324924 116.748704,36.521189 C116.748704,36.8032679 116.744951,37.0865627 116.73494,37.373505 C116.723679,37.7090817 116.996461,37.9899447 117.340567,37.9996716 C117.687176,38.0106143 117.974974,37.7467732 117.986236,37.4111966 C117.994995,37.1145274 118,36.8178582 118,36.521189 C117.996246,29.5920182 115.212113,23.4057361 115.198349,23.364397 C115.060707,23.0567851 114.691574,22.9169615 114.376248,23.0507058" id="Fill-27" fill="#DEAD87"></path>
                <path d="M111.366371,26.0652203 C111.041753,26.2202186 110.90824,26.6000914 111.066623,26.9151699 L111.091493,26.9647185 C111.357208,27.5211877 113.692365,32.6462944 113.692365,41.0034962 C113.691056,41.7543485 113.672731,42.5306103 113.633462,43.3335522 C113.616446,43.684204 113.895251,43.9827663 114.255211,43.9992825 C114.61517,44.0157987 114.922772,43.7451869 114.939789,43.3945351 C114.981675,42.5725361 115,41.7746761 115,41.0034962 C115,31.8408116 112.273469,26.4184131 112.243364,26.3561597 C112.083672,26.0410813 111.690989,25.9102221 111.366371,26.0652203" id="Fill-29" fill="#DEAD87"></path>
                <path d="M109.039382,31.8644864 C109.039382,31.8644864 109.063217,31.9285346 109.109634,32.0655979 C109.430785,33.0199165 110.74801,37.2637524 110.746755,42.2390192 C110.746755,43.5430412 110.656431,44.8970208 110.436894,46.2548434 C110.380441,46.6032658 110.613778,46.9337546 110.955002,46.991398 C111.29748,47.0490415 111.621141,46.810782 111.677594,46.4623596 C111.907167,45.0251173 112,43.6032465 112,42.2390192 C111.997491,36.2940622 110.227392,31.4584206 110.214847,31.4161488 C110.094416,31.0856599 109.731865,30.9165726 109.408204,31.0408261 C109.083289,31.1650797 108.917695,31.5327166 109.040636,31.8644864 L109.039382,31.8644864 Z" id="Fill-31" fill="#DEAD87"></path>
                <path d="M105.051739,34.855064 L105.05882,34.871678 C105.145814,35.087659 105.989454,37.307991 105.989454,40.8574369 C105.988442,41.3344938 105.973269,41.8364716 105.938876,42.3609969 C105.917633,42.6885285 106.126014,42.9733386 106.405204,42.9982595 C106.683382,43.0231804 106.927168,42.7775317 106.948411,42.4511867 C106.983815,41.8958071 107,41.3641615 107,40.8574369 C106.998988,36.8333075 105.983384,34.3886875 105.959107,34.3317255 C105.836708,34.0374217 105.533241,33.9163774 105.283386,34.0611559 C105.031508,34.2047476 104.928329,34.5607603 105.052751,34.855064 L105.051739,34.855064 Z" id="Fill-33" fill="#DEAD87"></path>
                <path d="M103.167894,40.8898117 C103.352437,41.0735102 103.612626,41.0222973 103.749786,40.7751392 C103.975893,40.3409426 103.992519,39.8711196 104,39.39239 C103.998337,38.446064 103.822939,37.4529784 103.821276,37.4318253 C103.769737,37.1323409 103.546124,36.9453024 103.323343,37.0143285 C103.098899,37.0833547 102.959245,37.3817257 103.011615,37.68121 L103.035722,37.8326221 C103.080611,38.1298798 103.170388,38.8223678 103.169557,39.39239 C103.177038,39.7698071 103.108874,40.0915579 103.082273,40.1104844 C102.945113,40.3576425 102.983352,40.7061131 103.167894,40.8898117" id="Fill-35" fill="#DEAD87"></path>
                <path d="M58.5011871,10.1865211 C59.2264957,10.1877076 59.8129155,10.7750356 59.8141026,11.5 C59.8129155,12.2261509 59.2264957,12.8122924 58.5011871,12.8134789 C57.7758784,12.8122924 57.1882716,12.2249644 57.1870845,11.5 C57.1882716,10.7750356 57.7758784,10.1877076 58.5011871,10.1865211 M58.5011871,14 C59.8829535,14 61,12.8811106 61,11.5 C61,10.1200759 59.8829535,9 58.5011871,9 C57.1194207,9 56,10.1188894 56,11.5 C56,12.8811106 57.1194207,14 58.5011871,14" id="Fill-37" fill="#DEAD87"></path>
                <path d="M54.0162596,37.4159037 C54.0300177,37.7514766 54.3201886,38.0128831 54.665392,37.9995088 C55.0118461,37.9873504 55.2807546,37.7040587 55.2669965,37.3684857 C55.2544891,37.0876258 55.2507369,36.8067658 55.2507369,36.5246899 C55.2494862,33.2175939 55.9248841,30.0357298 56.6015327,27.6891506 C56.9417332,26.5170769 57.2781814,25.5516966 57.5333317,24.8829824 C57.6584054,24.5486252 57.7634673,24.2884346 57.8372608,24.1121372 C57.9085528,23.9370556 57.9485764,23.8507307 57.9485764,23.8507307 C58.0849067,23.5431221 57.941072,23.1844481 57.6246355,23.0507053 C57.3081991,22.9169624 56.9392317,23.0567845 56.8029014,23.364393 C56.7878925,23.4057317 54.0050029,29.5931625 54,36.5246899 C54,36.8189242 54.0050029,37.1155902 54.0162596,37.4159037" id="Fill-39" fill="#DEAD87"></path>
                <path d="M60.9075413,26.9647125 L60.9336962,26.9151642 C61.0919334,26.6000877 60.9572356,26.2202172 60.6329149,26.0652199 C60.309902,25.9102226 59.9175786,26.041081 59.7580337,26.3561575 C59.7279556,26.4184105 57,31.8420459 57,41.0034033 C57,41.7745785 57.0170007,42.5724335 57.061464,43.3969684 C57.0784647,43.7463475 57.3884002,44.0169576 57.74803,43.999171 C58.1076598,43.9813844 58.3862094,43.6828241 58.3692088,43.3321744 C58.3247454,42.530508 58.3077448,41.7555214 58.3077448,41.0034033 C58.3077448,36.5465954 58.9720791,33.0096076 59.6311825,30.5931741 C59.9620419,29.3849574 60.2902858,28.4575145 60.5348341,27.8362548 C60.6577621,27.5249897 60.7597662,27.2912232 60.8277689,27.1362259 L60.9075413,26.9647125 Z" id="Fill-41" fill="#DEAD87"></path>
                <path d="M61.3270195,46.4636054 C61.3834022,46.812027 61.7066628,47.0490049 62.0462118,46.9913617 C62.3895196,46.9324374 62.6188091,46.6032302 62.5624264,46.2535277 C62.3431605,44.8969892 62.2516953,43.5442936 62.2516953,42.2402746 C62.2516953,39.3978204 62.6802035,36.7923443 63.1112177,34.9042067 C63.3254719,33.9601379 63.539726,33.1954037 63.6988504,32.6689284 C63.7790391,32.4050503 63.8454454,32.2026583 63.8918045,32.0655954 C63.9369106,31.9285325 63.9607166,31.8657654 63.9607166,31.8644844 C64.0809996,31.5327154 63.9156105,31.1650793 63.5936028,31.040826 C63.2690892,30.9165728 62.9082401,31.0856597 62.7879571,31.4161478 L62.7867041,31.4161478 C62.7729217,31.4584196 61.0025059,36.2953311 61,42.2402746 C61,43.6044988 61.0927182,45.0263663 61.3270195,46.4636054" id="Fill-43" fill="#DEAD87"></path>
                <path d="M65.5976353,42.9980888 C65.8757021,42.9719796 66.0829883,42.6859651 66.0617541,42.3596 C66.0263638,41.8374158 66.0111965,41.3377806 66.0101853,40.8606941 C66.0101853,38.9665898 66.2508395,37.4510691 66.4884602,36.416195 C66.606765,35.898758 66.7240586,35.501186 66.8110177,35.2365336 C66.8544972,35.1048008 66.8898875,35.0051111 66.9151663,34.9410248 L66.9404451,34.8710047 L66.9485344,34.8555765 C67.0708837,34.5612545 66.9677462,34.2052199 66.7169806,34.0604325 C66.4662149,33.9168318 66.1638804,34.0378836 66.0395087,34.3310188 C66.0162522,34.3891711 65.0010557,36.8351291 65.0000445,40.8606941 C64.9990334,41.3662633 65.0152118,41.8979417 65.0526244,42.4533558 C65.0738586,42.7797209 65.3195685,43.024198 65.5976353,42.9980888" id="Fill-45" fill="#DEAD87"></path>
                <path d="M68.83434,40.8871061 C69.0179945,40.7012038 69.0545592,40.3527761 68.9157796,40.1067616 C68.8908491,40.0922902 68.8227058,39.7716922 68.8301849,39.3932085 C68.8301849,39.0136115 68.8692427,38.5761288 68.9099624,38.2432858 C68.9299068,38.0751945 68.9498512,37.9327065 68.9648095,37.8336328 L68.988909,37.6822393 C69.0404319,37.3827918 68.9008213,37.0833444 68.678109,37.0143268 C68.4545657,36.9453091 68.2310224,37.1323246 68.1803305,37.4317721 L68.1794994,37.4317721 C68.1770064,37.4529226 68.001662,38.4458859 68,39.3932085 C68.0074791,39.8685395 68.0216064,40.340531 68.2534599,40.7791269 C68.3914085,41.0240281 68.6515165,41.0730084 68.83434,40.8871061" id="Fill-47" fill="#DEAD87"></path>
            </g>
        </g>
    </g>
</svg>