<?xml version="1.0" encoding="UTF-8"?>
<svg width="572px" height="244px" viewBox="0 0 572 244" version="1.1" xmlns="http://www.w3.org/2000/svg" xmlns:xlink="http://www.w3.org/1999/xlink">
    <!-- Generator: Sketch 52.6 (67491) - http://www.bohemiancoding.com/sketch -->
    <title>Group</title>
    <desc>Created with Sketch.</desc>
    <g id="Page-1" stroke="none" stroke-width="1" fill="none" fill-rule="evenodd">
        <g id="about" transform="translate(-433.000000, -249.000000)" fill="#FFFFFF">
            <g id="Group" transform="translate(432.000000, 249.000000)">
                <path d="M142.152475,110.966026 C152.046458,100.300224 159.741779,85.5334902 162.933205,75.0870805 C162.877117,74.6595483 179.74288,88.9087437 182.979177,111.506066 C187.763513,144.921076 146.841461,141.382686 142.152475,110.966026 M96.8947945,114.532544 C99.0317602,100.587121 104.068493,88.2674456 108.319989,79.7899337 C107.568405,94.7591832 112.829492,106.42631 121.366137,112.828041 C121.220307,113.143064 121.085695,113.446837 120.934257,113.761861 C106.39055,144.088514 93.4229263,137.17487 96.8947945,114.532544 M121.719493,70.9130169 C127.547072,64.6462961 134.126234,80.0543286 124.434169,105.621874 C113.468899,96.8349642 115.86948,77.2134902 121.719493,70.9130169 M84.4431831,31.1581555 C96.4348701,12.1329763 104.864947,13.646215 88.3357139,43.4272022 C78.5763429,61.0178986 66.1079051,76.5496903 57.5376068,86.3210494 C66.1135139,63.6168438 77.4601849,42.240238 84.4431831,31.1581555 M222.532674,135.976654 C223.66005,134.18777 221.265078,131.85322 219.627298,133.147067 C205.150898,144.549799 190.629627,135.959778 190.629627,135.959778 C190.629627,135.959778 200.708702,125.428987 198.481994,109.593423 C193.972492,77.5453901 169.540411,64.2862691 169.540411,64.2862691 C172.804753,61.1585341 175.541864,47.3199946 168.485951,42.8759108 C161.435646,38.4262015 153.033613,40.7551264 150.481594,49.362023 C147.923965,57.9689195 152.899001,65.8726383 152.899001,65.8726383 C152.899001,65.8726383 144.603536,90.5457417 132.931552,105.582496 C134.91708,99.6139229 136.425856,93.4147072 137.362531,87.2661204 C141.849598,57.9857958 118.253234,46.9768438 110.681308,66.8064584 C105.347307,66.5589398 96.0422517,69.1860122 87.1522499,86.5629425 C81.3919775,97.8250385 77.6677118,109.492165 76.680557,119.578548 C65.3226683,134.750312 44.8896863,158.821496 46.0114531,133.940252 C46.3984627,125.344606 48.2493778,115.803889 50.9920976,106.038156 C64.6159552,91.1420365 98.0558231,52.2197377 103.79366,23.2881893 C111.034665,-13.2095524 71.5036033,5.20245571 46.4040715,64.0668776 C40.9130231,76.9322191 36.6727446,88.7399811 33.5430153,99.3776552 C13.2166012,100.024579 10.2270927,79.8293117 10.2270927,79.8293117 C-11.3220472,104.513666 9.09971707,122.9313 28.3716704,120.956776 C23.9070386,146.068663 27.5303453,161.105417 36.1230789,163.490596 C48.7093022,166.989609 66.752921,146.006783 77.084393,132.083862 C78.5651252,139.498169 82.5081354,144.9042 89.4686983,146.839346 C103.249603,150.670258 116.245271,139.576925 125.382062,123.026932 C127.429286,122.290001 129.437249,121.288676 131.411558,120.067959 C142.539485,153.994883 176.024223,143.115316 176.024223,143.115316 C200.445086,160.773517 215.129014,147.683159 222.532674,135.976654" id="Fill-1"></path>
                <path d="M491.158291,110.728814 C491.158291,110.728814 488.292616,112.278982 484.960566,114.806429 C497.912295,98.4791181 509.234522,81.1464444 511.852963,72.4464083 C511.796773,72.0420167 529.002063,81.3823395 532.193639,102.590433 C536.93605,134.144211 495.327568,139.839393 491.158291,110.728814 M333.967571,76.5633395 C344.862756,59.0677859 336.248873,90.5485493 320.605657,113.407908 C323.555617,99.7990073 328.623929,85.1510446 333.967571,76.5633395 M216.32317,237.000094 C189.649913,245.262039 190.414093,181.671458 264.668798,149.999732 C259.482488,179.03168 246.412761,227.682237 216.32317,237.000094 M569.638463,113.778601 C554.731332,128.859038 539.897248,124.416347 539.897248,124.416347 C539.897248,124.416347 550.286726,111.380334 548.095327,96.5133255 C543.650721,66.4142334 518.680013,60.089998 518.680013,60.089998 C522.045776,56.1471798 524.928309,41.8811425 517.724788,39.4547929 C510.515647,37.0228267 501.896146,41.5778488 499.232753,50.6822766 C496.563742,59.7923209 501.615197,66.1614887 501.615197,66.1614887 C501.615197,66.1614887 486.674352,109.032616 463.125244,124.652242 C444.571401,133.942016 448.049544,106.156942 464.344561,71.3624141 C468.474505,62.5388139 472.171788,53.6028826 475.043082,45.4645015 C479.25731,44.1277626 482.521933,43.0437684 483.971627,42.7797906 C491.349337,41.4318185 494.467866,45.408336 494.467866,45.408336 C494.467866,45.408336 510.408887,19.1565808 498.822568,16.6291332 C494.99043,15.7922672 489.955832,19.9091985 480.617101,25.183139 C481.634135,18.7128733 481.105952,14.3712801 478.436941,13.4838652 C471.132278,11.051899 463.136482,15.5058232 463.136482,15.5058232 C464.586176,17.1009234 462.92858,24.4080551 459.635863,34.6975749 C440.632502,41.2296227 433.974021,37.3710528 433.974021,37.3710528 C427.602108,52.8727311 439.890798,53.8668605 453.97194,51.1652999 C445.273772,75.3220819 433.136794,105.718851 428.225813,122.680833 C418.010524,136.963719 405.817356,153.251715 404.519374,151.454419 C401.558176,147.36557 402.631399,134.239693 416.768731,98.0017113 C439.38509,40.027681 417.712718,38.8145062 396.692147,58.242153 C386.016101,68.1104316 377.683167,79.0683209 372.058577,87.4706798 C383.094236,52.2043617 399.4623,8.816512 394.894076,2.95845023 C388.555876,-5.18554744 376.143569,6.294681 376.143569,6.294681 C376.143569,6.294681 380.678079,10.2374992 371.772009,31.788202 C364.321253,49.8117113 345.031325,104.775271 343.09278,128.342315 C336.92315,136.222335 330.433238,143.012744 325.145786,145.163883 C318.195118,147.989007 316.885898,137.72757 318.745778,123.899624 C331.911027,111.442116 344.78409,86.5046332 346.171976,70.4918488 C347.62729,53.7994619 320.414612,56.832399 305.928904,98.1140423 C301.057256,112.003771 299.113092,122.854946 299.12433,131.161823 C295.696758,132.099787 291.746621,133.223097 287.493059,134.514904 C287.998767,130.830447 288.414571,127.168456 288.740471,123.551398 C292.977175,75.9230528 300.736975,72.3228442 300.736975,72.3228442 C300.736975,72.3228442 282.896741,71.2950155 277.047392,83.3930645 C271.198043,95.49673 269.428067,115.918506 269.428067,115.918506 C269.428067,115.918506 259.819626,129.038767 248.727777,129.583573 C237.641547,130.128378 240.664553,105.685152 252.335156,86.5776484 C264.00576,67.4701449 277.800334,66.7680761 278.69375,73.1035446 C278.69375,73.1035446 300.085174,68.1216647 293.775069,56.1022474 C280.413156,47.0090528 249.643669,58.4443488 236.180614,87.0887544 C222.717559,115.727543 231.691056,131.212372 238.400108,135.795477 C245.097921,140.372965 259.639819,135.525883 267.731138,128.08957 C267.731138,128.08957 267.28162,133.458992 266.02297,141.816419 C259.74096,144.220302 253.576949,146.87693 248.064738,149.730138 C223.065935,162.693136 203.495058,184.316853 193.914712,207.45704 C184.980548,229.030209 192.94263,251.575041 221.172342,241.543883 C258.853163,228.159644 278.896033,184.79426 286.262505,142.38369 C290.589113,141.142433 295.106766,140.002273 299.815463,138.974444 C301.866388,149.61219 308.170874,153.965017 314.627072,153.965017 C321.937353,153.965017 332.315593,147.719413 343.160208,135.104641 C343.356872,136.357132 343.688391,137.368111 344.171622,138.07018 C351.330192,148.393399 364.635916,133.515158 364.635916,133.515158 C361.11844,131.122507 362.882797,119.833242 366.945313,104.803353 C371.485442,96.4964759 377.295458,88.155899 383.038047,81.0116472 C400.097243,59.7586216 410.05406,58.242153 396.175201,91.9358372 C382.296342,125.623905 375.564815,148.97752 387.639984,158.711002 C400.82771,169.337514 414.155909,150.516455 414.155909,150.516455 L425.854608,134.138595 C424.180154,152.454165 436.333989,157.728105 448.965436,150.814132 C450.347703,150.055898 451.735589,149.15725 453.112237,148.106955 C460.282044,142.838631 469.384778,133.487075 478.302085,122.94481 C478.026756,124.360181 478.139135,125.786785 478.729127,127.039275 C491.11334,153.223632 524.883357,135.368619 524.883357,135.368619 C549.809113,145.995132 564.941003,129.21288 572.594042,115.761243 C573.762788,113.705585 571.324154,112.076786 569.638463,113.778601" id="Fill-4"></path>
            </g>
        </g>
    </g>
</svg>